{
.appVersion = "1064";
copyright = "ETBembo designed for Edward Tufte / Graphics Press (c) 2002 Dmitry Krasny / Deka Design";
customParameters = (
{
name = note;
value = "";
},
{
name = openTypeNameVersion;
value = "Version 1.001";
},
{
name = postscriptBlueFuzz;
value = 1;
},
{
name = postscriptBlueScale;
value = 0.01627;
},
{
name = postscriptBlueShift;
value = 7;
},
{
name = postscriptForceBold;
value = 1;
}
);
date = "2015-10-13 15:57:50 +0000";
disablesNiceNames = 1;
familyName = ETBookOT;
featurePrefixes = (
{
code = "languagesystem DFLT dflt;\012languagesystem latn dflt;\012";
name = Languagesystems;
},
{

glyphs = (
{
glyphname = A;
lastChange = "2017-10-06 16:36:12 +0000";
layers = (
{
layerId = "92E73F40-5E0C-43C4-B728-1A2B58992D44";
paths = (
{
closed = 1;
nodes = (
"413 -3 CURVE SMOOTH",
"397 -3 OFFCURVE",
"396 10 OFFCURVE",
"396 22 CURVE SMOOTH",
"396 42 OFFCURVE",
"410 45 OFFCURVE",
"422 45 CURVE SMOOTH",
"440 45 OFFCURVE",
"452 46 OFFCURVE",
"463 46 CURVE SMOOTH",
"495 48 OFFCURVE",
"503 61 OFFCURVE",
"493 89 CURVE SMOOTH",
"469 152 OFFCURVE",
"449 206 OFFCURVE",
"426 269 CURVE SMOOTH",
"424 273 OFFCURVE",
"414 278 OFFCURVE",
"405 278 CURVE SMOOTH",
"360 279 OFFCURVE",
"292 278 OFFCURVE",
"256 278 CURVE SMOOTH",
"246 279 OFFCURVE",
"240 271 OFFCURVE",
"236 265 CURVE SMOOTH",
"218 212 OFFCURVE",
"189 135 OFFCURVE",
"174 95 CURVE SMOOTH",
"170 83 OFFCURVE",
"169 73 OFFCURVE",
"169 65 CURVE SMOOTH",
"169 42 OFFCURVE",
"214 42 OFFCURVE",
"233 44 CURVE SMOOTH",
"239 45 OFFCURVE",
"245 45 OFFCURVE",
"253 44 CURVE SMOOTH",
"260 43 OFFCURVE",
"265 30 OFFCURVE",
"265 19 CURVE SMOOTH",
"264 8 OFFCURVE",
"257 -3 OFFCURVE",
"253 -3 CURVE SMOOTH",
"194 -2 OFFCURVE",
"92 0 OFFCURVE",
"39 -3 CURVE SMOOTH",
"35 -3 OFFCURVE",
"32 -3 OFFCURVE",
"28 -3 CURVE SMOOTH",
"13 0 OFFCURVE",
"12 22 OFFCURVE",
"14 33 CURVE SMOOTH",
"16 42 OFFCURVE",
"24 45 OFFCURVE",
"28 45 CURVE SMOOTH",
"76 45 OFFCURVE",
"81 47 OFFCURVE",
"100 92 CURVE SMOOTH",
"106 107 OFFCURVE",
"112 121 OFFCURVE",
"116 132 CURVE SMOOTH",
"300 633 LINE",
"294 657 LINE SMOOTH",
"292 664 OFFCURVE",
"301 671 OFFCURVE",
"314 672 CURVE SMOOTH",
"323 672 OFFCURVE",
"344 672 OFFCURVE",
"346 672 CURVE SMOOTH",
"362 672 OFFCURVE",
"383 674 OFFCURVE",
"393 659 CURVE SMOOTH",
"510 353 OFFCURVE",
"556 229 OFFCURVE",
"578 172 CURVE SMOOTH",
"587 146 OFFCURVE",
"596 120 OFFCURVE",
"605 95 CURVE SMOOTH",
"621 51 OFFCURVE",
"628 42 OFFCURVE",
"670 42 CURVE SMOOTH",
"677 42 LINE SMOOTH",
"695 42 OFFCURVE",
"697 -5 OFFCURVE",
"676 -4 CURVE SMOOTH",
"613 -1 OFFCURVE",
"483 -1 OFFCURVE"
);
},
{
closed = 1;
nodes = (
"326 512 CURVE SMOOTH",
"309 460 OFFCURVE",
"283 393 OFFCURVE",
"268 353 CURVE SMOOTH",
"267 348 OFFCURVE",
"272 347 OFFCURVE",
"275 345 CURVE SMOOTH",
"310 346 OFFCURVE",
"358 346 OFFCURVE",
"387 345 CURVE SMOOTH",
"390 345 OFFCURVE",
"394 353 OFFCURVE",
"392 358 CURVE SMOOTH",
"377 398 OFFCURVE",
"353 471 OFFCURVE",
"338 521 CURVE SMOOTH",
"335 528 OFFCURVE",
"332 531 OFFCURVE"
);
}
);
width = 711;
}
);
unicode = 0041;
},
{
glyphname = Aacute;
lastChange = "2017-10-06 16:36:12 +0000";
layers = (
{
layerId = "92E73F40-5E0C-43C4-B728-1A2B58992D44";
paths = (
{
closed = 1;
nodes = (
"472 890 CURVE SMOOTH",
"332 720 LINE SMOOTH",
"324 711 OFFCURVE",
"290 713 OFFCURVE",
"297 734 CURVE SMOOTH",
"346 896 LINE SMOOTH",
"349 907 OFFCURVE",
"360 913 OFFCURVE",
"369 913 CURVE SMOOTH",
"441 914 OFFCURVE",
"479 921 OFFCURVE",
"475 898 CURVE SMOOTH",
"474 895 OFFCURVE",
"474 892 OFFCURVE"
);
},
{
closed = 1;
nodes = (
"413 -3 CURVE SMOOTH",
"397 -3 OFFCURVE",
"396 10 OFFCURVE",
"396 22 CURVE SMOOTH",
"396 42 OFFCURVE",
"410 46 OFFCURVE",
"422 46 CURVE SMOOTH",
"440 46 OFFCURVE",
"452 46 OFFCURVE",
"463 46 CURVE SMOOTH",
"495 48 OFFCURVE",
"503 61 OFFCURVE",
"493 89 CURVE SMOOTH",
"469 152 OFFCURVE",
"449 206 OFFCURVE",
"426 269 CURVE SMOOTH",
"424 273 OFFCURVE",
"414 278 OFFCURVE",
"405 278 CURVE SMOOTH",
"360 279 OFFCURVE",
"292 278 OFFCURVE",
"256 278 CURVE SMOOTH",
"246 279 OFFCURVE",
"240 271 OFFCURVE",
"236 265 CURVE SMOOTH",
"218 212 OFFCURVE",
"189 135 OFFCURVE",
"174 95 CURVE SMOOTH",
"170 83 OFFCURVE",
"169 73 OFFCURVE",
"169 65 CURVE SMOOTH",
"169 42 OFFCURVE",
"214 42 OFFCURVE",
"233 44 CURVE SMOOTH",
"239 45 OFFCURVE",
"245 45 OFFCURVE",
"253 44 CURVE SMOOTH",
"260 43 OFFCURVE",
"265 30 OFFCURVE",
"265 19 CURVE SMOOTH",
"264 8 OFFCURVE",
"257 -3 OFFCURVE",
"253 -3 CURVE SMOOTH",
"194 -2 OFFCURVE",
"92 0 OFFCURVE",
"39 -3 CURVE SMOOTH",
"35 -3 OFFCURVE",
"32 -3 OFFCURVE",
"28 -3 CURVE SMOOTH",
"13 0 OFFCURVE",
"12 22 OFFCURVE",
"14 33 CURVE SMOOTH",
"16 42 OFFCURVE",
"24 45 OFFCURVE",
"28 45 CURVE SMOOTH",
"76 45 OFFCURVE",
"81 47 OFFCURVE",
"100 92 CURVE SMOOTH",
"106 107 OFFCURVE",
"112 121 OFFCURVE",
"116 132 CURVE SMOOTH",
"300 633 LINE",
"294 657 LINE SMOOTH",
"292 664 OFFCURVE",
"301 671 OFFCURVE",
"314 672 CURVE SMOOTH",
"323 672 OFFCURVE",
"344 672 OFFCURVE",
"346 672 CURVE SMOOTH",
"362 672 OFFCURVE",
"383 674 OFFCURVE",
"393 659 CURVE SMOOTH",
"510 353 OFFCURVE",
"556 229 OFFCURVE",
"578 172 CURVE SMOOTH",
"587 146 OFFCURVE",
"596 120 OFFCURVE",
"605 95 CURVE SMOOTH",
"621 51 OFFCURVE",
"628 42 OFFCURVE",
"670 42 CURVE SMOOTH",
"677 42 LINE SMOOTH",
"695 42 OFFCURVE",
"697 -5 OFFCURVE",
"676 -4 CURVE SMOOTH",
"613 -1 OFFCURVE",
"483 -1 OFFCURVE"
);
},
{
closed = 1;
nodes = (
"326 512 CURVE SMOOTH",
"309 460 OFFCURVE",
"283 393 OFFCURVE",
"268 353 CURVE SMOOTH",
"267 348 OFFCURVE",
"272 347 OFFCURVE",
"275 345 CURVE SMOOTH",
"310 346 OFFCURVE",
"358 346 OFFCURVE",
"387 345 CURVE SMOOTH",
"390 345 OFFCURVE",
"394 353 OFFCURVE",
"392 358 CURVE SMOOTH",
"377 398 OFFCURVE",
"353 471 OFFCURVE",
"338 521 CURVE SMOOTH",
"335 528 OFFCURVE",
"332 531 OFFCURVE"
);
}
);
width = 711;
}
);
unicode = 00C1;
},
{
glyphname = Acircumflex;
lastChange = "2017-10-06 16:36:12 +0000";
layers = (
{
layerId = "92E73F40-5E0C-43C4-B728-1A2B58992D44";
paths = (
{
closed = 1;
nodes = (
"486 693 CURVE SMOOTH",
"478 691 OFFCURVE",
"467 691 OFFCURVE",
"462 696 CURVE SMOOTH",
"345 795 LINE",
"235 696 LINE SMOOTH",
"223 685 OFFCURVE",
"196 694 OFFCURVE",
"204 708 CURVE SMOOTH",
"291 862 LINE SMOOTH",
"295 869 OFFCURVE",
"301 872 OFFCURVE",
"307 875 CURVE SMOOTH",
"316 876 OFFCURVE",
"370 877 OFFCURVE",
"383 876 CURVE SMOOTH",
"394 875 OFFCURVE",
"398 873 OFFCURVE",
"404 863 CURVE SMOOTH",
"490 713 LINE SMOOTH",
"495 705 OFFCURVE",
"495 695 OFFCURVE"
);
},
{
closed = 1;
nodes = (
"413 -3 CURVE SMOOTH",
"397 -3 OFFCURVE",
"396 10 OFFCURVE",
"396 22 CURVE SMOOTH",
"396 42 OFFCURVE",
"410 45 OFFCURVE",
"422 45 CURVE SMOOTH",
"440 45 OFFCURVE",
"452 46 OFFCURVE",
"463 46 CURVE SMOOTH",
"495 48 OFFCURVE",
"503 61 OFFCURVE",
"493 89 CURVE SMOOTH",
"469 152 OFFCURVE",
"449 206 OFFCURVE",
"426 269 CURVE SMOOTH",
"424 273 OFFCURVE",
"414 278 OFFCURVE",
"405 278 CURVE SMOOTH",
"360 279 OFFCURVE",
"292 278 OFFCURVE",
"256 278 CURVE SMOOTH",
"246 279 OFFCURVE",
"240 271 OFFCURVE",
"236 265 CURVE SMOOTH",
"218 212 OFFCURVE",
"189 135 OFFCURVE",
"174 95 CURVE SMOOTH",
"170 83 OFFCURVE",
"169 73 OFFCURVE",
"169 65 CURVE SMOOTH",
"169 42 OFFCURVE",
"214 42 OFFCURVE",
"233 44 CURVE SMOOTH",
"239 45 OFFCURVE",
"245 45 OFFCURVE",
"253 44 CURVE SMOOTH",
"260 43 OFFCURVE",
"265 30 OFFCURVE",
"265 19 CURVE SMOOTH",
"264 8 OFFCURVE",
"257 -3 OFFCURVE",
"253 -3 CURVE SMOOTH",
"194 -2 OFFCURVE",
"92 0 OFFCURVE",
"39 -3 CURVE SMOOTH",
"35 -3 OFFCURVE",
"32 -3 OFFCURVE",
"28 -3 CURVE SMOOTH",
"13 0 OFFCURVE",
"12 22 OFFCURVE",
"14 33 CURVE SMOOTH",
"16 42 OFFCURVE",
"24 45 OFFCURVE",
"28 45 CURVE SMOOTH",
"76 45 OFFCURVE",
"81 47 OFFCURVE",
"100 92 CURVE SMOOTH",
"106 107 OFFCURVE",
"112 121 OFFCURVE",
"116 132 CURVE SMOOTH",
"300 633 LINE",
"294 657 LINE SMOOTH",
"292 664 OFFCURVE",
"301 671 OFFCURVE",
"314 672 CURVE SMOOTH",
"323 672 OFFCURVE",
"344 672 OFFCURVE",
"346 672 CURVE SMOOTH",
"362 672 OFFCURVE",
"383 674 OFFCURVE",
"393 659 CURVE SMOOTH",
"510 353 OFFCURVE",
"556 229 OFFCURVE",
"578 172 CURVE SMOOTH",
"587 146 OFFCURVE",
"596 120 OFFCURVE",
"605 95 CURVE SMOOTH",
"621 51 OFFCURVE",
"628 42 OFFCURVE",
"670 42 CURVE SMOOTH",
"677 42 LINE SMOOTH",
"695 42 OFFCURVE",
"697 -5 OFFCURVE",
"676 -4 CURVE SMOOTH",
"613 -1 OFFCURVE",
"483 -1 OFFCURVE"
);
},
{
closed = 1;
nodes = (
"326 512 CURVE SMOOTH",
"309 460 OFFCURVE",
"283 393 OFFCURVE",
"268 353 CURVE SMOOTH",
"267 348 OFFCURVE",
"272 347 OFFCURVE",
"275 345 CURVE SMOOTH",
"310 346 OFFCURVE",
"358 346 OFFCURVE",
"387 345 CURVE SMOOTH",
"390 345 OFFCURVE",
"394 353 OFFCURVE",
"392 358 CURVE SMOOTH",
"377 398 OFFCURVE",
"353 471 OFFCURVE",
"338 521 CURVE SMOOTH",
"335 528 OFFCURVE",
"332 531 OFFCURVE"
);
}
);
width = 711;
}
);
unicode = 00C2;
},
{
glyphname = Adieresis;
lastChange = "2017-10-06 16:36:12 +0000";
layers = (
{
layerId = "92E73F40-5E0C-43C4-B728-1A2B58992D44";
paths = (
{
closed = 1;
nodes = (
"442 722 CURVE SMOOTH",
"406 722 OFFCURVE",
"377 751 OFFCURVE",
"377 786 CURVE SMOOTH",
"377 822 OFFCURVE",
"406 851 OFFCURVE",
"442 851 CURVE SMOOTH",
"479 851 OFFCURVE",
"507 822 OFFCURVE",
"507 786 CURVE SMOOTH",
"507 751 OFFCURVE",
"479 722 OFFCURVE"
);
},
{
closed = 1;
nodes = (
"267 722 CURVE SMOOTH",
"232 722 OFFCURVE",
"203 750 OFFCURVE",
"203 786 CURVE SMOOTH",
"203 822 OFFCURVE",
"232 851 OFFCURVE",
"267 851 CURVE SMOOTH",
"303 851 OFFCURVE",
"333 822 OFFCURVE",
"333 786 CURVE SMOOTH",
"333 750 OFFCURVE",
"303 722 OFFCURVE"
);
},
{
closed = 1;
nodes = (
"413 -3 CURVE SMOOTH",
"397 -3 OFFCURVE",
"396 10 OFFCURVE",
"396 22 CURVE SMOOTH",
"396 42 OFFCURVE",
"410 45 OFFCURVE",
"422 45 CURVE SMOOTH",
"440 45 OFFCURVE",
"452 46 OFFCURVE",
"463 46 CURVE SMOOTH",
"495 48 OFFCURVE",
"503 61 OFFCURVE",
"493 89 CURVE SMOOTH",
"469 152 OFFCURVE",
"449 206 OFFCURVE",
"426 269 CURVE SMOOTH",
"424 273 OFFCURVE",
"414 278 OFFCURVE",
"405 278 CURVE SMOOTH",
"360 279 OFFCURVE",
"292 278 OFFCURVE",
"256 278 CURVE SMOOTH",
"246 279 OFFCURVE",
"240 271 OFFCURVE",
"236 265 CURVE SMOOTH",
"218 212 OFFCURVE",
"189 135 OFFCURVE",
"174 95 CURVE SMOOTH",
"170 83 OFFCURVE",
"169 73 OFFCURVE",
"169 65 CURVE SMOOTH",
"169 42 OFFCURVE",
"214 42 OFFCURVE",
"233 44 CURVE SMOOTH",
"239 45 OFFCURVE",
"245 45 OFFCURVE",
"253 44 CURVE SMOOTH",
"260 43 OFFCURVE",
"265 30 OFFCURVE",
"265 19 CURVE SMOOTH",
"264 8 OFFCURVE",
"257 -3 OFFCURVE",
"253 -3 CURVE SMOOTH",
"194 -2 OFFCURVE",
"92 0 OFFCURVE",
"39 -3 CURVE SMOOTH",
"35 -3 OFFCURVE",
"32 -3 OFFCURVE",
"28 -3 CURVE SMOOTH",
"13 0 OFFCURVE",
"12 22 OFFCURVE",
"14 33 CURVE SMOOTH",
"16 42 OFFCURVE",
"24 45 OFFCURVE",
"28 45 CURVE SMOOTH",
"76 45 OFFCURVE",
"81 47 OFFCURVE",
"100 92 CURVE SMOOTH",
"106 107 OFFCURVE",
"112 121 OFFCURVE",
"116 132 CURVE SMOOTH",
"300 633 LINE",
"294 657 LINE SMOOTH",
"292 664 OFFCURVE",
"301 671 OFFCURVE",
"314 672 CURVE SMOOTH",
"323 672 OFFCURVE",
"344 672 OFFCURVE",
"346 672 CURVE SMOOTH",
"362 672 OFFCURVE",
"383 674 OFFCURVE",
"393 659 CURVE SMOOTH",
"510 353 OFFCURVE",
"556 229 OFFCURVE",
"578 172 CURVE SMOOTH",
"587 146 OFFCURVE",
"596 120 OFFCURVE",
"605 95 CURVE SMOOTH",
"621 51 OFFCURVE",
"628 42 OFFCURVE",
"670 42 CURVE SMOOTH",
"677 42 LINE SMOOTH",
"695 42 OFFCURVE",
"697 -5 OFFCURVE",
"676 -4 CURVE SMOOTH",
"613 -1 OFFCURVE",
"483 -1 OFFCURVE"
);
},
{
closed = 1;
nodes = (
"326 512 CURVE SMOOTH",
"309 460 OFFCURVE",
"283 393 OFFCURVE",
"268 353 CURVE SMOOTH",
"267 348 OFFCURVE",
"272 347 OFFCURVE",
"275 345 CURVE SMOOTH",
"310 346 OFFCURVE",
"358 346 OFFCURVE",
"387 345 CURVE SMOOTH",
"390 345 OFFCURVE",
"394 353 OFFCURVE",
"392 358 CURVE SMOOTH",
"377 398 OFFCURVE",
"353 471 OFFCURVE",
"338 521 CURVE SMOOTH",
"335 528 OFFCURVE",
"332 531 OFFCURVE"
);
}
);
width = 711;
}
);
unicode = 00C4;
},
{
glyphname = Agrave;
lastChange = "2017-10-06 16:36:12 +0000";
layers = (
{
layerId = "92E73F40-5E0C-43C4-B728-1A2B58992D44";
paths = (
{
closed = 1;
nodes = (
"379 696 CURVE SMOOTH",
"347 738 OFFCURVE",
"289 806 OFFCURVE",
"247 852 CURVE SMOOTH",
"235 864 OFFCURVE",
"252 880 OFFCURVE",
"265 880 CURVE SMOOTH",
"340 881 LINE SMOOTH",
"351 881 OFFCURVE",
"359 880 OFFCURVE",
"364 870 CURVE SMOOTH",
"381 825 OFFCURVE",
"402 751 OFFCURVE",
"414 707 CURVE",
"414 685 OFFCURVE",
"387 689 OFFCURVE"
);
},
{
closed = 1;
nodes = (
"413 -3 CURVE SMOOTH",
"397 -3 OFFCURVE",
"396 10 OFFCURVE",
"396 22 CURVE SMOOTH",
"396 42 OFFCURVE",
"410 45 OFFCURVE",
"422 45 CURVE SMOOTH",
"440 45 OFFCURVE",
"452 46 OFFCURVE",
"463 46 CURVE SMOOTH",
"495 48 OFFCURVE",
"503 61 OFFCURVE",
"493 89 CURVE SMOOTH",
"469 152 OFFCURVE",
"449 206 OFFCURVE",
"426 269 CURVE SMOOTH",
"424 273 OFFCURVE",
"414 278 OFFCURVE",
"405 278 CURVE SMOOTH",
"360 279 OFFCURVE",
"292 278 OFFCURVE",
"256 278 CURVE SMOOTH",
"246 279 OFFCURVE",
"240 271 OFFCURVE",
"236 265 CURVE SMOOTH",
"218 212 OFFCURVE",
"189 135 OFFCURVE",
"174 95 CURVE SMOOTH",
"170 83 OFFCURVE",
"169 73 OFFCURVE",
"169 65 CURVE SMOOTH",
"169 42 OFFCURVE",
"214 42 OFFCURVE",
"233 44 CURVE SMOOTH",
"239 45 OFFCURVE",
"245 45 OFFCURVE",
"253 44 CURVE SMOOTH",
"260 43 OFFCURVE",
"265 30 OFFCURVE",
"265 19 CURVE SMOOTH",
"264 8 OFFCURVE",
"257 -3 OFFCURVE",
"253 -3 CURVE SMOOTH",
"194 -2 OFFCURVE",
"92 0 OFFCURVE",
"39 -3 CURVE SMOOTH",
"35 -3 OFFCURVE",
"32 -3 OFFCURVE",
"28 -3 CURVE SMOOTH",
"13 0 OFFCURVE",
"12 22 OFFCURVE",
"14 33 CURVE SMOOTH",
"16 42 OFFCURVE",
"24 45 OFFCURVE",
"28 45 CURVE SMOOTH",
"76 45 OFFCURVE",
"81 47 OFFCURVE",
"100 92 CURVE SMOOTH",
"106 107 OFFCURVE",
"112 121 OFFCURVE",
"116 132 CURVE SMOOTH",
"300 633 LINE",
"294 657 LINE SMOOTH",
"292 664 OFFCURVE",
"301 671 OFFCURVE",
"314 672 CURVE SMOOTH",
"323 672 OFFCURVE",
"344 672 OFFCURVE",
"346 672 CURVE SMOOTH",
"362 672 OFFCURVE",
"383 674 OFFCURVE",
"393 659 CURVE SMOOTH",
"510 353 OFFCURVE",
"556 229 OFFCURVE",
"578 172 CURVE SMOOTH",
"587 146 OFFCURVE",
"596 120 OFFCURVE",
"605 95 CURVE SMOOTH",
"621 51 OFFCURVE",
"628 42 OFFCURVE",
"670 42 CURVE SMOOTH",
"677 42 LINE SMOOTH",
"695 42 OFFCURVE",
"697 -5 OFFCURVE",
"676 -4 CURVE SMOOTH",
"613 -1 OFFCURVE",
"483 -1 OFFCURVE"
);
},
{
closed = 1;
nodes = (
"326 512 CURVE SMOOTH",
"309 460 OFFCURVE",
"283 393 OFFCURVE",
"268 353 CURVE SMOOTH",
"267 348 OFFCURVE",
"272 347 OFFCURVE",
"275 345 CURVE SMOOTH",
"310 346 OFFCURVE",
"358 346 OFFCURVE",
"387 345 CURVE SMOOTH",
"390 345 OFFCURVE",
"394 353 OFFCURVE",
"392 358 CURVE SMOOTH",
"377 398 OFFCURVE",
"353 471 OFFCURVE",
"338 521 CURVE SMOOTH",
"335 528 OFFCURVE",
"332 531 OFFCURVE"
);
}
);
width = 711;
}
);
unicode = 00C0;
},
{
glyphname = Aring;
lastChange = "2017-10-06 16:36:12 +0000";
layers = (
{
layerId = "92E73F40-5E0C-43C4-B728-1A2B58992D44";
paths = (
{
closed = 1;
nodes = (
"347 722 CURVE SMOOTH",
"290 722 OFFCURVE",
"244 768 OFFCURVE",
"244 825 CURVE SMOOTH",
"244 882 OFFCURVE",
"290 928 OFFCURVE",
"347 928 CURVE SMOOTH",
"402 928 OFFCURVE",
"448 882 OFFCURVE",
"448 825 CURVE SMOOTH",
"448 768 OFFCURVE",
"402 722 OFFCURVE"
);
},
{
closed = 1;
nodes = (
"347 873 CURVE SMOOTH",
"320 873 OFFCURVE",
"299 852 OFFCURVE",
"299 825 CURVE SMOOTH",
"299 798 OFFCURVE",
"320 777 OFFCURVE",
"347 777 CURVE SMOOTH",
"371 777 OFFCURVE",
"393 798 OFFCURVE",
"393 825 CURVE SMOOTH",
"393 852 OFFCURVE",
"371 873 OFFCURVE"
);
},
{
closed = 1;
nodes = (
"413 -3 CURVE SMOOTH",
"397 -3 OFFCURVE",
"396 10 OFFCURVE",
"396 22 CURVE SMOOTH",
"396 42 OFFCURVE",
"410 45 OFFCURVE",
"422 45 CURVE SMOOTH",
"440 45 OFFCURVE",
"452 46 OFFCURVE",
"463 46 CURVE SMOOTH",
"495 48 OFFCURVE",
"503 61 OFFCURVE",
"493 89 CURVE SMOOTH",
"469 152 OFFCURVE",
"449 206 OFFCURVE",
"426 269 CURVE SMOOTH",
"424 273 OFFCURVE",
"414 278 OFFCURVE",
"405 278 CURVE SMOOTH",
"360 279 OFFCURVE",
"292 278 OFFCURVE",
"256 278 CURVE SMOOTH",
"246 279 OFFCURVE",
"240 271 OFFCURVE",
"236 265 CURVE SMOOTH",
"218 212 OFFCURVE",
"189 135 OFFCURVE",
"174 95 CURVE SMOOTH",
"170 83 OFFCURVE",
"169 73 OFFCURVE",
"169 65 CURVE SMOOTH",
"169 42 OFFCURVE",
"214 42 OFFCURVE",
"233 44 CURVE SMOOTH",
"239 45 OFFCURVE",
"245 45 OFFCURVE",
"253 44 CURVE SMOOTH",
"260 43 OFFCURVE",
"265 30 OFFCURVE",
"265 19 CURVE SMOOTH",
"264 8 OFFCURVE",
"257 -3 OFFCURVE",
"253 -3 CURVE SMOOTH",
"194 -2 OFFCURVE",
"92 0 OFFCURVE",
"39 -3 CURVE SMOOTH",
"35 -3 OFFCURVE",
"32 -3 OFFCURVE",
"28 -3 CURVE SMOOTH",
"13 0 OFFCURVE",
"12 22 OFFCURVE",
"14 33 CURVE SMOOTH",
"16 42 OFFCURVE",
"24 45 OFFCURVE",
"28 45 CURVE SMOOTH",
"76 45 OFFCURVE",
"81 47 OFFCURVE",
"100 92 CURVE SMOOTH",
"106 107 OFFCURVE",
"112 121 OFFCURVE",
"116 132 CURVE SMOOTH",
"300 633 LINE",
"294 657 LINE SMOOTH",
"292 664 OFFCURVE",
"301 671 OFFCURVE",
"314 672 CURVE SMOOTH",
"323 672 OFFCURVE",
"344 672 OFFCURVE",
"346 672 CURVE SMOOTH",
"362 672 OFFCURVE",
"383 674 OFFCURVE",
"393 659 CURVE SMOOTH",
"510 353 OFFCURVE",
"556 229 OFFCURVE",
"578 172 CURVE SMOOTH",
"587 146 OFFCURVE",
"596 120 OFFCURVE",
"605 95 CURVE SMOOTH",
"621 51 OFFCURVE",
"628 42 OFFCURVE",
"670 42 CURVE SMOOTH",
"677 42 LINE SMOOTH",
"695 42 OFFCURVE",
"697 -5 OFFCURVE",
"676 -4 CURVE SMOOTH",
"613 -1 OFFCURVE",
"483 -1 OFFCURVE"
);
},
{
closed = 1;
nodes = (
"326 512 CURVE SMOOTH",
"309 460 OFFCURVE",
"283 393 OFFCURVE",
"268 353 CURVE SMOOTH",
"267 348 OFFCURVE",
"272 347 OFFCURVE",
"275 345 CURVE SMOOTH",
"310 346 OFFCURVE",
"358 346 OFFCURVE",
"387 345 CURVE SMOOTH",
"390 345 OFFCURVE",
"394 353 OFFCURVE",
"392 358 CURVE SMOOTH",
"377 398 OFFCURVE",
"353 471 OFFCURVE",
"338 521 CURVE SMOOTH",
"335 528 OFFCURVE",
"332 531 OFFCURVE"
);
}
);
width = 711;
}
);
unicode = 00C5;
},
{
glyphname = Atilde;
lastChange = "2017-10-06 16:36:12 +0000";
layers = (
{
layerId = "92E73F40-5E0C-43C4-B728-1A2B58992D44";
paths = (
{
closed = 1;
nodes = (
"508 859 CURVE SMOOTH",
"508 787 OFFCURVE",
"467 732 OFFCURVE",
"406 732 CURVE SMOOTH",
"378 732 OFFCURVE",
"346 745 OFFCURVE",
"308 771 CURVE SMOOTH",
"272 796 OFFCURVE",
"265 799 OFFCURVE",
"254 799 CURVE SMOOTH",
"239 799 OFFCURVE",
"231 792 OFFCURVE",
"223 757 CURVE SMOOTH",
"223 751 OFFCURVE",
"221 745 OFFCURVE",
"220 739 CURVE SMOOTH",
"214 727 OFFCURVE",
"186 722 OFFCURVE",
"183 740 CURVE SMOOTH",
"187 826 OFFCURVE",
"220 878 OFFCURVE",
"284 878 CURVE SMOOTH",
"315 878 OFFCURVE",
"339 868 OFFCURVE",
"383 838 CURVE SMOOTH",
"413 817 OFFCURVE",
"428 812 OFFCURVE",
"438 812 CURVE SMOOTH",
"453 812 OFFCURVE",
"464 819 OFFCURVE",
"471 872 CURVE SMOOTH",
"472 878 OFFCURVE",
"481 883 OFFCURVE",
"489 883 CURVE SMOOTH",
"495 884 OFFCURVE",
"506 881 OFFCURVE",
"506 873 CURVE SMOOTH",
"508 866 OFFCURVE",
"508 862 OFFCURVE"
);
},
{
closed = 1;
nodes = (
"413 -3 CURVE SMOOTH",
"397 -3 OFFCURVE",
"396 10 OFFCURVE",
"396 22 CURVE SMOOTH",
"396 42 OFFCURVE",
"410 45 OFFCURVE",
"422 45 CURVE SMOOTH",
"440 45 OFFCURVE",
"452 46 OFFCURVE",
"463 46 CURVE SMOOTH",
"495 48 OFFCURVE",
"503 61 OFFCURVE",
"493 89 CURVE SMOOTH",
"469 152 OFFCURVE",
"449 206 OFFCURVE",
"426 269 CURVE SMOOTH",
"424 273 OFFCURVE",
"414 278 OFFCURVE",
"405 278 CURVE SMOOTH",
"360 279 OFFCURVE",
"292 278 OFFCURVE",
"256 278 CURVE SMOOTH",
"246 279 OFFCURVE",
"240 271 OFFCURVE",
"236 265 CURVE SMOOTH",
"218 212 OFFCURVE",
"189 135 OFFCURVE",
"174 95 CURVE SMOOTH",
"170 83 OFFCURVE",
"169 73 OFFCURVE",
"169 65 CURVE SMOOTH",
"169 42 OFFCURVE",
"214 42 OFFCURVE",
"233 44 CURVE SMOOTH",
"239 45 OFFCURVE",
"245 45 OFFCURVE",
"253 44 CURVE SMOOTH",
"260 43 OFFCURVE",
"265 30 OFFCURVE",
"265 19 CURVE SMOOTH",
"264 8 OFFCURVE",
"257 -3 OFFCURVE",
"253 -3 CURVE SMOOTH",
"194 -2 OFFCURVE",
"92 0 OFFCURVE",
"39 -3 CURVE SMOOTH",
"35 -3 OFFCURVE",
"32 -3 OFFCURVE",
"28 -3 CURVE SMOOTH",
"13 0 OFFCURVE",
"12 22 OFFCURVE",
"14 33 CURVE SMOOTH",
"16 42 OFFCURVE",
"24 45 OFFCURVE",
"28 45 CURVE SMOOTH",
"76 45 OFFCURVE",
"81 47 OFFCURVE",
"100 92 CURVE SMOOTH",
"106 107 OFFCURVE",
"112 121 OFFCURVE",
"116 132 CURVE SMOOTH",
"300 633 LINE",
"294 657 LINE SMOOTH",
"292 664 OFFCURVE",
"301 671 OFFCURVE",
"314 672 CURVE SMOOTH",
"323 672 OFFCURVE",
"344 672 OFFCURVE",
"346 672 CURVE SMOOTH",
"362 672 OFFCURVE",
"383 674 OFFCURVE",
"393 659 CURVE SMOOTH",
"510 353 OFFCURVE",
"556 229 OFFCURVE",
"578 172 CURVE SMOOTH",
"587 146 OFFCURVE",
"596 120 OFFCURVE",
"605 95 CURVE SMOOTH",
"621 51 OFFCURVE",
"628 42 OFFCURVE",
"670 42 CURVE SMOOTH",
"677 42 LINE SMOOTH",
"695 42 OFFCURVE",
"697 -5 OFFCURVE",
"676 -4 CURVE SMOOTH",
"613 -1 OFFCURVE",
"483 -1 OFFCURVE"
);
},
{
closed = 1;
nodes = (
"326 512 CURVE SMOOTH",
"309 460 OFFCURVE",
"283 393 OFFCURVE",
"268 353 CURVE SMOOTH",
"267 348 OFFCURVE",
"272 347 OFFCURVE",
"275 345 CURVE SMOOTH",
"310 346 OFFCURVE",
"358 346 OFFCURVE",
"387 345 CURVE SMOOTH",
"390 345 OFFCURVE",
"394 353 OFFCURVE",
"392 358 CURVE SMOOTH",
"377 398 OFFCURVE",
"353 471 OFFCURVE",
"338 521 CURVE SMOOTH",
"335 528 OFFCURVE",
"332 531 OFFCURVE"
);
}
);
width = 711;
}
);
unicode = 00C3;
},
{
glyphname = AE;
lastChange = "2017-10-06 16:36:12 +0000";
layers = (
{
layerId = "92E73F40-5E0C-43C4-B728-1A2B58992D44";
paths = (
{
closed = 1;
nodes = (
"861 19 CURVE SMOOTH",
"859 -1 OFFCURVE",
"839 -4 OFFCURVE",
"827 -4 CURVE SMOOTH",
"742 -1 OFFCURVE",
"465 -4 OFFCURVE",
"316 -4 CURVE SMOOTH",
"311 -4 OFFCURVE",
"296 -3 OFFCURVE",
"296 12 CURVE SMOOTH",
"296 22 LINE SMOOTH",
"296 39 OFFCURVE",
"311 43 OFFCURVE",
"325 42 CURVE SMOOTH",
"374 41 OFFCURVE",
"426 44 OFFCURVE",
"427 103 CURVE SMOOTH",
"428 138 LINE",
"428 237 LINE SMOOTH",
"428 245 OFFCURVE",
"416 250 OFFCURVE",
"410 250 CURVE SMOOTH",
"229 250 LINE SMOOTH",
"220 250 OFFCURVE",
"218 248 OFFCURVE",
"214 241 CURVE SMOOTH",
"134 110 LINE SMOOTH",
"112 74 OFFCURVE",
"112 67 OFFCURVE",
"112 60 CURVE SMOOTH",
"112 50 OFFCURVE",
"118 38 OFFCURVE",
"170 38 CURVE SMOOTH",
"189 38 OFFCURVE",
"187 25 OFFCURVE",
"188 11 CURVE SMOOTH",
"189 -1 OFFCURVE",
"183 -6 OFFCURVE",
"171 -6 CURVE SMOOTH",
"119 -6 OFFCURVE",
"13 -2 OFFCURVE",
"-37 -6 CURVE SMOOTH",
"-53 -7 OFFCURVE",
"-54 10 OFFCURVE",
"-56 21 CURVE SMOOTH",
"-58 35 OFFCURVE",
"-49 38 OFFCURVE",
"-35 39 CURVE SMOOTH",
"6 44 OFFCURVE",
"25 59 OFFCURVE",
"67 129 CURVE SMOOTH",
"155 274 OFFCURVE",
"244 422 OFFCURVE",
"331 568 CURVE SMOOTH",
"337 577 OFFCURVE",
"344 587 OFFCURVE",
"344 598 CURVE SMOOTH",
"344 610 OFFCURVE",
"344 617 OFFCURVE",
"298 617 CURVE SMOOTH",
"285 617 OFFCURVE",
"278 620 OFFCURVE",
"279 630 CURVE SMOOTH",
"280 644 LINE SMOOTH",
"282 653 OFFCURVE",
"286 658 OFFCURVE",
"298 658 CURVE SMOOTH",
"424 654 OFFCURVE",
"716 661 OFFCURVE",
"796 658 CURVE SMOOTH",
"809 658 OFFCURVE",
"825 650 OFFCURVE",
"826 641 CURVE SMOOTH",
"828 598 OFFCURVE",
"832 553 OFFCURVE",
"835 510 CURVE SMOOTH",
"835 508 OFFCURVE",
"835 506 OFFCURVE",
"834 504 CURVE SMOOTH",
"834 498 OFFCURVE",
"830 496 OFFCURVE",
"824 496 CURVE SMOOTH",
"809 496 LINE SMOOTH",
"793 496 OFFCURVE",
"792 512 OFFCURVE",
"789 524 CURVE SMOOTH",
"775 588 OFFCURVE",
"761 599 OFFCURVE",
"738 599 CURVE SMOOTH",
"710 599 LINE",
"554 599 LINE SMOOTH",
"542 599 OFFCURVE",
"535 595 OFFCURVE",
"535 587 CURVE SMOOTH",
"535 388 LINE SMOOTH",
"535 382 OFFCURVE",
"537 368 OFFCURVE",
"551 368 CURVE SMOOTH",
"666 370 LINE SMOOTH",
"679 370 OFFCURVE",
"712 370 OFFCURVE",
"723 378 CURVE SMOOTH",
"732 384 OFFCURVE",
"737 397 OFFCURVE",
"744 429 CURVE SMOOTH",
"745 438 OFFCURVE",
"748 445 OFFCURVE",
"760 445 CURVE SMOOTH",
"765 444 OFFCURVE",
"769 445 OFFCURVE",
"774 445 CURVE SMOOTH",
"782 445 OFFCURVE",
"788 435 OFFCURVE",
"788 424 CURVE SMOOTH",
"788 379 OFFCURVE",
"787 293 OFFCURVE",
"789 248 CURVE SMOOTH",
"790 233 OFFCURVE",
"788 228 OFFCURVE",
"777 228 CURVE SMOOTH",
"770 226 OFFCURVE",
"765 226 OFFCURVE",
"758 227 CURVE SMOOTH",
"750 227 OFFCURVE",
"746 234 OFFCURVE",
"745 244 CURVE SMOOTH",
"737 306 OFFCURVE",
"729 310 OFFCURVE",
"668 309 CURVE SMOOTH",
"548 307 LINE SMOOTH",
"540 307 OFFCURVE",
"535 298 OFFCURVE",
"535 287 CURVE SMOOTH",
"535 122 LINE SMOOTH",
"535 56 OFFCURVE",
"546 55 OFFCURVE",
"603 55 CURVE SMOOTH",
"632 52 OFFCURVE",
"669 54 OFFCURVE",
"705 55 CURVE SMOOTH",
"769 57 OFFCURVE",
"779 60 OFFCURVE",
"797 83 CURVE SMOOTH",
"814 105 OFFCURVE",
"824 131 OFFCURVE",
"831 157 CURVE SMOOTH",
"833 167 OFFCURVE",
"833 171 OFFCURVE",
"846 171 CURVE SMOOTH",
"859 171 LINE SMOOTH",
"874 171 OFFCURVE",
"874 157 OFFCURVE",
"874 147 CURVE SMOOTH",
"870 64 OFFCURVE",
"864 45 OFFCURVE"
);
},
{
closed = 1;
nodes = (
"428 579 LINE SMOOTH",
"428 581 OFFCURVE",
"428 597 OFFCURVE",
"419 582 CURVE SMOOTH",
"373 513 OFFCURVE",
"311 408 OFFCURVE",
"258 315 CURVE SMOOTH",
"255 311 OFFCURVE",
"261 310 OFFCURVE",
"270 310 CURVE SMOOTH",
"407 310 LINE SMOOTH",
"417 310 OFFCURVE",
"428 323 OFFCURVE",
"428 331 CURVE SMOOTH"
);
}
);
width = 915;
}
);
unicode = 00C6;
},
{
glyphname = B;
lastChange = "2017-10-06 16:36:12 +0000";
layers = (
{
layerId = "92E73F40-5E0C-43C4-B728-1A2B58992D44";
paths = (
{
closed = 1;
nodes = (
"499 362 CURVE SMOOTH",
"569 328 OFFCURVE",
"615 272 OFFCURVE",
"615 201 CURVE SMOOTH",
"615 108 OFFCURVE",
"546 23 OFFCURVE",
"458 6 CURVE SMOOTH",
"426 0 OFFCURVE",
"408 -6 OFFCURVE",
"325 -4 CURVE SMOOTH",
"228 -2 OFFCURVE",
"119 -2 OFFCURVE",
"34 -4 CURVE SMOOTH",
"11 -2 OFFCURVE",
"23 41 OFFCURVE",
"32 44 CURVE SMOOTH",
"40 45 OFFCURVE",
"50 47 OFFCURVE",
"58 45 CURVE SMOOTH",
"133 45 OFFCURVE",
"142 57 OFFCURVE",
"142 136 CURVE SMOOTH",
"142 512 LINE SMOOTH",
"142 606 OFFCURVE",
"127 606 OFFCURVE",
"65 606 CURVE SMOOTH",
"42 606 LINE SMOOTH",
"28 606 OFFCURVE",
"31 650 OFFCURVE",
"42 651 CURVE SMOOTH",
"144 663 OFFCURVE",
"228 660 OFFCURVE",
"331 660 CURVE SMOOTH",
"418 660 OFFCURVE",
"439 653 OFFCURVE",
"486 632 CURVE SMOOTH",
"541 607 OFFCURVE",
"577 557 OFFCURVE",
"577 500 CURVE SMOOTH",
"577 449 OFFCURVE",
"544 404 OFFCURVE",
"497 379 CURVE SMOOTH",
"485 373 OFFCURVE",
"491 366 OFFCURVE"
);
},
{
closed = 1;
nodes = (
"421 590 CURVE SMOOTH",
"375 628 OFFCURVE",
"320 622 OFFCURVE",
"266 618 CURVE SMOOTH",
"259 616 OFFCURVE",
"253 610 OFFCURVE",
"253 600 CURVE SMOOTH",
"253 404 LINE SMOOTH",
"253 394 OFFCURVE",
"271 390 OFFCURVE",
"272 390 CURVE SMOOTH",
"319 390 OFFCURVE",
"369 385 OFFCURVE",
"413 404 CURVE SMOOTH",
"443 417 OFFCURVE",
"461 449 OFFCURVE",
"461 494 CURVE SMOOTH",
"461 534 OFFCURVE",
"447 568 OFFCURVE"
);
},
{
closed = 1;
nodes = (
"424 323 CURVE SMOOTH",
"374 353 OFFCURVE",
"326 344 OFFCURVE",
"270 344 CURVE SMOOTH",
"260 342 OFFCURVE",
"253 328 OFFCURVE",
"253 320 CURVE SMOOTH",
"253 178 LINE SMOOTH",
"253 144 OFFCURVE",
"255 116 OFFCURVE",
"258 101 CURVE SMOOTH",
"264 66 OFFCURVE",
"289 49 OFFCURVE",
"357 49 CURVE SMOOTH",
"440 49 OFFCURVE",
"496 113 OFFCURVE",
"496 195 CURVE SMOOTH",
"496 248 OFFCURVE",
"469 297 OFFCURVE"
);
}
);
width = 656;
}
);
unicode = 0042;
},
{
glyphname = C;
lastChange = "2017-10-06 16:36:12 +0000";
layers = (
{
layerId = "92E73F40-5E0C-43C4-B728-1A2B58992D44";
paths = (
{
closed = 1;
nodes = (
"627 6 CURVE",
"611 10 OFFCURVE",
"609 10 OFFCURVE",
"602 10 CURVE SMOOTH",
"570 10 OFFCURVE",
"557 5 OFFCURVE",
"527 -5 CURVE SMOOTH",
"490 -17 OFFCURVE",
"450 -19 OFFCURVE",
"412 -19 CURVE SMOOTH",
"201 -19 OFFCURVE",
"53 123 OFFCURVE",
"53 317 CURVE SMOOTH",
"53 522 OFFCURVE",
"205 665 OFFCURVE",
"423 665 CURVE SMOOTH",
"487 665 OFFCURVE",
"525 654 OFFCURVE",
"586 631 CURVE SMOOTH",
"599 626 OFFCURVE",
"617 618 OFFCURVE",
"629 628 CURVE SMOOTH",
"636 634 OFFCURVE",
"660 631 OFFCURVE",
"662 624 CURVE SMOOTH",
"670 586 OFFCURVE",
"672 558 OFFCURVE",
"671 534 CURVE SMOOTH",
"671 512 OFFCURVE",
"670 493 OFFCURVE",
"671 474 CURVE",
"667 457 OFFCURVE",
"639 451 OFFCURVE",
"631 464 CURVE SMOOTH",
"598 560 OFFCURVE",
"530 616 OFFCURVE",
"429 616 CURVE SMOOTH",
"273 616 OFFCURVE",
"178 509 OFFCURVE",
"178 338 CURVE SMOOTH",
"178 163 OFFCURVE",
"287 34 OFFCURVE",
"443 34 CURVE SMOOTH",
"508 34 OFFCURVE",
"553 54 OFFCURVE",
"600 96 CURVE SMOOTH",
"625 119 OFFCURVE",
"632 128 OFFCURVE",
"657 173 CURVE SMOOTH",
"663 187 OFFCURVE",
"704 187 OFFCURVE",
"699 168 CURVE SMOOTH",
"683 116 OFFCURVE",
"656 54 OFFCURVE"
);
}
);
width = 762;
}
);
unicode = 0043;
},
{
glyphname = Ccedilla;
lastChange = "2017-10-06 16:36:12 +0000";
layers = (
{
layerId = "92E73F40-5E0C-43C4-B728-1A2B58992D44";
paths = (
{
closed = 1;
nodes = (
"422 -71 CURVE SMOOTH",
"451 -83 OFFCURVE",
"471 -112 OFFCURVE",
"471 -148 CURVE SMOOTH",
"471 -201 OFFCURVE",
"429 -253 OFFCURVE",
"377 -253 CURVE SMOOTH",
"365 -253 OFFCURVE",
"352 -252 OFFCURVE",
"336 -246 CURVE SMOOTH",
"322 -240 OFFCURVE",
"323 -235 OFFCURVE",
"327 -229 CURVE SMOOTH",
"329 -226 OFFCURVE",
"332 -219 OFFCURVE",
"334 -217 CURVE SMOOTH",
"336 -212 OFFCURVE",
"343 -210 OFFCURVE",
"348 -211 CURVE SMOOTH",
"357 -213 OFFCURVE",
"363 -214 OFFCURVE",
"367 -214 CURVE SMOOTH",
"390 -214 OFFCURVE",
"409 -185 OFFCURVE",
"409 -164 CURVE SMOOTH",
"409 -145 OFFCURVE",
"398 -133 OFFCURVE",
"385 -133 CURVE SMOOTH",
"375 -133 OFFCURVE",
"368 -134 OFFCURVE",
"333 -152 CURVE SMOOTH",
"323 -156 OFFCURVE",
"316 -144 OFFCURVE",
"325 -129 CURVE SMOOTH",
"384 -31 LINE SMOOTH",
"390 -21 OFFCURVE",
"380 -18 OFFCURVE",
"374 -17 CURVE SMOOTH",
"184 -1 OFFCURVE",
"55 136 OFFCURVE",
"55 318 CURVE SMOOTH",
"55 523 OFFCURVE",
"205 665 OFFCURVE",
"423 665 CURVE SMOOTH",
"487 665 OFFCURVE",
"525 654 OFFCURVE",
"586 631 CURVE SMOOTH",
"599 626 OFFCURVE",
"617 618 OFFCURVE",
"629 628 CURVE SMOOTH",
"636 634 OFFCURVE",
"660 631 OFFCURVE",
"662 624 CURVE SMOOTH",
"670 586 OFFCURVE",
"672 558 OFFCURVE",
"671 534 CURVE SMOOTH",
"671 512 OFFCURVE",
"670 493 OFFCURVE",
"671 474 CURVE",
"667 457 OFFCURVE",
"639 451 OFFCURVE",
"631 464 CURVE SMOOTH",
"598 560 OFFCURVE",
"530 617 OFFCURVE",
"429 617 CURVE SMOOTH",
"273 617 OFFCURVE",
"178 509 OFFCURVE",
"178 338 CURVE SMOOTH",
"178 163 OFFCURVE",
"287 34 OFFCURVE",
"443 34 CURVE SMOOTH",
"508 34 OFFCURVE",
"553 54 OFFCURVE",
"600 96 CURVE SMOOTH",
"625 119 OFFCURVE",
"632 128 OFFCURVE",
"657 173 CURVE SMOOTH",
"663 187 OFFCURVE",
"704 187 OFFCURVE",
"699 168 CURVE SMOOTH",
"683 116 OFFCURVE",
"656 54 OFFCURVE",
"627 6 CURVE",
"611 10 OFFCURVE",
"609 10 OFFCURVE",
"602 10 CURVE SMOOTH",
"570 10 OFFCURVE",
"557 5 OFFCURVE",
"527 -5 CURVE SMOOTH",
"499 -14 OFFCURVE",
"469 -17 OFFCURVE",
"440 -18 CURVE SMOOTH",
"434 -19 OFFCURVE",
"428 -22 OFFCURVE",
"424 -28 CURVE SMOOTH",
"409 -57 LINE SMOOTH",
"405 -65 OFFCURVE",
"414 -68 OFFCURVE"
);
}
);
width = 762;
}
);
unicode = 00C7;
},
{
glyphname = D;
lastChange = "2017-10-06 16:36:12 +0000";
layers = (
{
layerId = "92E73F40-5E0C-43C4-B728-1A2B58992D44";
paths = (
{
closed = 1;
nodes = (
"24 649 CURVE SMOOTH",
"26 650 OFFCURVE",
"29 650 OFFCURVE",
"31 651 CURVE SMOOTH",
"130 655 OFFCURVE",
"224 659 OFFCURVE",
"322 659 CURVE SMOOTH",
"451 659 OFFCURVE",
"528 639 OFFCURVE",
"600 588 CURVE SMOOTH",
"679 531 OFFCURVE",
"722 446 OFFCURVE",
"722 346 CURVE SMOOTH",
"722 196 OFFCURVE",
"620 60 OFFCURVE",
"475 18 CURVE SMOOTH",
"404 -2 OFFCURVE",
"351 -3 OFFCURVE",
"279 -3 CURVE SMOOTH",
"43 -4 LINE SMOOTH",
"34 -4 OFFCURVE",
"20 -3 OFFCURVE",
"16 9 CURVE SMOOTH",
"13 18 OFFCURVE",
"10 40 OFFCURVE",
"28 46 CURVE SMOOTH",
"57 51 OFFCURVE",
"94 42 OFFCURVE",
"107 80 CURVE SMOOTH",
"113 98 OFFCURVE",
"111 118 OFFCURVE",
"111 137 CURVE SMOOTH",
"111 512 LINE SMOOTH",
"111 594 OFFCURVE",
"113 606 OFFCURVE",
"34 606 CURVE SMOOTH",
"25 606 LINE SMOOTH",
"8 606 OFFCURVE",
"14 646 OFFCURVE"
);
},
{
closed = 1;
nodes = (
"505 558 CURVE SMOOTH",
"462 590 OFFCURVE",
"426 604 OFFCURVE",
"349 612 CURVE SMOOTH",
"306 616 OFFCURVE",
"283 616 OFFCURVE",
"240 614 CURVE SMOOTH",
"231 613 OFFCURVE",
"221 604 OFFCURVE",
"221 594 CURVE SMOOTH",
"221 106 LINE SMOOTH",
"221 62 OFFCURVE",
"229 45 OFFCURVE",
"291 45 CURVE SMOOTH",
"474 45 OFFCURVE",
"602 124 OFFCURVE",
"602 330 CURVE SMOOTH",
"602 426 OFFCURVE",
"566 511 OFFCURVE"
);
}
);
width = 773;
}
);
unicode = 0044;
},
{
glyphname = Eth;
lastChange = "2017-10-06 16:36:12 +0000";
layers = (
{
layerId = "92E73F40-5E0C-43C4-B728-1A2B58992D44";
paths = (
{
closed = 1;
nodes = (
"494 16 CURVE SMOOTH",
"428 -3 OFFCURVE",
"417 -5 OFFCURVE",
"280 -5 CURVE SMOOTH",
"227 -5 OFFCURVE",
"102 -4 OFFCURVE",
"30 -6 CURVE SMOOTH",
"22 -7 OFFCURVE",
"12 -2 OFFCURVE",
"12 8 CURVE SMOOTH",
"12 15 OFFCURVE",
"11 27 OFFCURVE",
"14 33 CURVE SMOOTH",
"23 49 OFFCURVE",
"29 43 OFFCURVE",
"43 43 CURVE SMOOTH",
"99 43 OFFCURVE",
"112 52 OFFCURVE",
"113 102 CURVE SMOOTH",
"115 161 OFFCURVE",
"114 224 OFFCURVE",
"114 284 CURVE SMOOTH",
"114 292 OFFCURVE",
"109 299 OFFCURVE",
"99 299 CURVE SMOOTH",
"15 298 LINE SMOOTH",
"5 300 OFFCURVE",
"0 308 OFFCURVE",
"0 320 CURVE SMOOTH",
"0 355 LINE",
"0 355 OFFCURVE",
"-1 375 OFFCURVE",
"24 375 CURVE SMOOTH",
"99 375 LINE SMOOTH",
"108 375 OFFCURVE",
"114 389 OFFCURVE",
"114 398 CURVE SMOOTH",
"114 518 LINE SMOOTH",
"114 613 OFFCURVE",
"108 613 OFFCURVE",
"33 613 CURVE SMOOTH",
"18 613 OFFCURVE",
"13 624 OFFCURVE",
"13 636 CURVE SMOOTH",
"13 652 OFFCURVE",
"20 659 OFFCURVE",
"32 661 CURVE SMOOTH",
"114 664 LINE SMOOTH",
"188 667 OFFCURVE",
"263 667 OFFCURVE",
"337 667 CURVE SMOOTH",
"466 667 OFFCURVE",
"550 647 OFFCURVE",
"622 595 CURVE SMOOTH",
"701 537 OFFCURVE",
"750 450 OFFCURVE",
"750 349 CURVE SMOOTH",
"750 197 OFFCURVE",
"640 58 OFFCURVE"
);
},
{
closed = 1;
nodes = (
"525 565 CURVE SMOOTH",
"483 598 OFFCURVE",
"442 611 OFFCURVE",
"365 619 CURVE SMOOTH",
"329 622 OFFCURVE",
"307 625 OFFCURVE",
"271 625 CURVE SMOOTH",
"254 625 OFFCURVE",
"221 632 OFFCURVE",
"221 606 CURVE SMOOTH",
"221 396 LINE SMOOTH",
"221 387 OFFCURVE",
"229 375 OFFCURVE",
"236 375 CURVE SMOOTH",
"375 376 LINE SMOOTH",
"396 376 OFFCURVE",
"402 363 OFFCURVE",
"402 353 CURVE SMOOTH",
"402 316 LINE SMOOTH",
"399 302 OFFCURVE",
"393 300 OFFCURVE",
"376 300 CURVE SMOOTH",
"235 299 LINE SMOOTH",
"228 299 OFFCURVE",
"221 292 OFFCURVE",
"221 280 CURVE SMOOTH",
"221 103 LINE SMOOTH",
"221 43 OFFCURVE",
"222 37 OFFCURVE",
"296 37 CURVE SMOOTH",
"389 37 OFFCURVE",
"422 42 OFFCURVE",
"468 63 CURVE SMOOTH",
"564 107 OFFCURVE",
"625 213 OFFCURVE",
"625 332 CURVE SMOOTH",
"625 431 OFFCURVE",
"587 517 OFFCURVE"
);
}
);
width = 795;
}
);
unicode = 00D0;
},
{
glyphname = E;
lastChange = "2017-10-06 16:36:12 +0000";
layers = (
{
layerId = "92E73F40-5E0C-43C4-B728-1A2B58992D44";
paths = (
{
closed = 1;
nodes = (
"565 17 CURVE SMOOTH",
"563 -4 OFFCURVE",
"535 -2 OFFCURVE",
"521 -2 CURVE SMOOTH",
"390 -1 OFFCURVE",
"173 -1 OFFCURVE",
"42 -3 CURVE",
"37 -2 LINE SMOOTH",
"15 2 OFFCURVE",
"22 45 OFFCURVE",
"39 47 CURVE SMOOTH",
"53 49 OFFCURVE",
"66 48 OFFCURVE",
"81 48 CURVE SMOOTH",
"132 49 OFFCURVE",
"148 59 OFFCURVE",
"148 137 CURVE SMOOTH",
"148 511 LINE SMOOTH",
"148 579 OFFCURVE",
"142 604 OFFCURVE",
"77 604 CURVE SMOOTH",
"64 604 OFFCURVE",
"53 602 OFFCURVE",
"45 616 CURVE SMOOTH",
"41 624 OFFCURVE",
"45 635 OFFCURVE",
"49 642 CURVE SMOOTH",
"54 652 OFFCURVE",
"62 650 OFFCURVE",
"71 650 CURVE SMOOTH",
"201 651 OFFCURVE",
"413 652 OFFCURVE",
"508 650 CURVE SMOOTH",
"520 650 OFFCURVE",
"531 644 OFFCURVE",
"532 635 CURVE SMOOTH",
"540 563 OFFCURVE",
"539 529 OFFCURVE",
"541 500 CURVE SMOOTH",
"539 490 OFFCURVE",
"520 488 OFFCURVE",
"509 492 CURVE SMOOTH",
"499 494 OFFCURVE",
"498 502 OFFCURVE",
"498 507 CURVE SMOOTH",
"485 586 OFFCURVE",
"476 593 OFFCURVE",
"399 594 CURVE SMOOTH",
"366 595 OFFCURVE",
"316 597 OFFCURVE",
"275 595 CURVE SMOOTH",
"269 595 OFFCURVE",
"257 588 OFFCURVE",
"257 577 CURVE SMOOTH",
"257 380 LINE SMOOTH",
"257 366 OFFCURVE",
"272 365 OFFCURVE",
"275 365 CURVE SMOOTH",
"378 365 LINE SMOOTH",
"453 365 OFFCURVE",
"454 365 OFFCURVE",
"463 433 CURVE SMOOTH",
"466 442 OFFCURVE",
"498 450 OFFCURVE",
"503 423 CURVE SMOOTH",
"505 372 OFFCURVE",
"503 291 OFFCURVE",
"503 247 CURVE SMOOTH",
"502 219 OFFCURVE",
"464 226 OFFCURVE",
"462 238 CURVE SMOOTH",
"452 302 OFFCURVE",
"451 305 OFFCURVE",
"375 306 CURVE SMOOTH",
"278 306 LINE SMOOTH",
"261 306 OFFCURVE",
"257 292 OFFCURVE",
"257 286 CURVE SMOOTH",
"257 131 LINE SMOOTH",
"257 58 OFFCURVE",
"254 57 OFFCURVE",
"330 57 CURVE SMOOTH",
"401 57 LINE SMOOTH",
"475 57 OFFCURVE",
"486 61 OFFCURVE",
"501 79 CURVE SMOOTH",
"514 94 OFFCURVE",
"527 121 OFFCURVE",
"536 156 CURVE SMOOTH",
"538 166 OFFCURVE",
"544 170 OFFCURVE",
"550 171 CURVE SMOOTH",
"562 172 OFFCURVE",
"576 169 OFFCURVE",
"579 163 CURVE SMOOTH",
"585 152 OFFCURVE",
"575 101 OFFCURVE"
);
}
);
width = 619;
}
);
unicode = 0045;
},
{
glyphname = Eacute;
lastChange = "2017-10-06 16:36:12 +0000";
layers = (
{
layerId = "92E73F40-5E0C-43C4-B728-1A2B58992D44";
paths = (
{
closed = 1;
nodes = (
"425 868 CURVE",
"425 866 LINE SMOOTH",
"424 865 OFFCURVE",
"424 863 OFFCURVE",
"423 862 CURVE SMOOTH",
"283 692 LINE SMOOTH",
"274 683 OFFCURVE",
"242 684 OFFCURVE",
"249 706 CURVE SMOOTH",
"297 868 LINE SMOOTH",
"300 879 OFFCURVE",
"311 885 OFFCURVE",
"320 885 CURVE SMOOTH",
"407 886 LINE SMOOTH",
"417 886 OFFCURVE",
"427 882 OFFCURVE",
"426 869 CURVE SMOOTH",
"425 868 OFFCURVE",
"425 868 OFFCURVE"
);
},
{
closed = 1;
nodes = (
"565 17 CURVE SMOOTH",
"563 -4 OFFCURVE",
"535 -2 OFFCURVE",
"521 -2 CURVE SMOOTH",
"387 -2 OFFCURVE",
"172 -2 OFFCURVE",
"42 -3 CURVE",
"37 -2 LINE SMOOTH",
"15 2 OFFCURVE",
"22 42 OFFCURVE",
"39 44 CURVE SMOOTH",
"53 46 OFFCURVE",
"66 45 OFFCURVE",
"81 45 CURVE SMOOTH",
"141 47 OFFCURVE",
"149 54 OFFCURVE",
"149 138 CURVE SMOOTH",
"149 513 LINE SMOOTH",
"149 592 OFFCURVE",
"145 607 OFFCURVE",
"77 607 CURVE SMOOTH",
"64 607 OFFCURVE",
"53 605 OFFCURVE",
"45 619 CURVE SMOOTH",
"41 626 OFFCURVE",
"45 638 OFFCURVE",
"49 645 CURVE SMOOTH",
"54 655 OFFCURVE",
"62 653 OFFCURVE",
"71 653 CURVE SMOOTH",
"201 654 OFFCURVE",
"413 655 OFFCURVE",
"508 653 CURVE SMOOTH",
"520 653 OFFCURVE",
"531 647 OFFCURVE",
"532 638 CURVE SMOOTH",
"540 566 OFFCURVE",
"539 531 OFFCURVE",
"541 502 CURVE SMOOTH",
"539 492 OFFCURVE",
"522 490 OFFCURVE",
"511 494 CURVE SMOOTH",
"501 496 OFFCURVE",
"500 505 OFFCURVE",
"500 510 CURVE SMOOTH",
"487 588 OFFCURVE",
"476 595 OFFCURVE",
"399 597 CURVE SMOOTH",
"366 597 OFFCURVE",
"309 599 OFFCURVE",
"268 598 CURVE SMOOTH",
"263 597 OFFCURVE",
"254 586 OFFCURVE",
"254 581 CURVE SMOOTH",
"254 382 LINE SMOOTH",
"254 372 OFFCURVE",
"261 366 OFFCURVE",
"263 366 CURVE SMOOTH",
"378 366 LINE SMOOTH",
"453 366 OFFCURVE",
"454 367 OFFCURVE",
"463 435 CURVE SMOOTH",
"464 436 OFFCURVE",
"496 463 OFFCURVE",
"503 425 CURVE",
"505 374 OFFCURVE",
"503 292 OFFCURVE",
"503 248 CURVE SMOOTH",
"502 220 OFFCURVE",
"464 227 OFFCURVE",
"462 239 CURVE SMOOTH",
"452 304 OFFCURVE",
"451 307 OFFCURVE",
"376 307 CURVE SMOOTH",
"263 307 LINE SMOOTH",
"258 306 OFFCURVE",
"254 304 OFFCURVE",
"254 298 CURVE SMOOTH",
"254 132 LINE SMOOTH",
"254 58 OFFCURVE",
"254 57 OFFCURVE",
"323 57 CURVE SMOOTH",
"401 57 LINE SMOOTH",
"475 57 OFFCURVE",
"488 61 OFFCURVE",
"503 79 CURVE SMOOTH",
"516 95 OFFCURVE",
"529 122 OFFCURVE",
"538 157 CURVE SMOOTH",
"540 167 OFFCURVE",
"546 170 OFFCURVE",
"552 172 CURVE SMOOTH",
"564 173 OFFCURVE",
"576 170 OFFCURVE",
"579 164 CURVE SMOOTH",
"578 92 OFFCURVE",
"568 44 OFFCURVE"
);
}
);
width = 619;
}
);
unicode = 00C9;
},
{
glyphname = Ecircumflex;
lastChange = "2017-10-06 16:36:12 +0000";
layers = (
{
layerId = "92E73F40-5E0C-43C4-B728-1A2B58992D44";
paths = (
{
closed = 1;
nodes = (
"452 696 CURVE SMOOTH",
"444 694 OFFCURVE",
"432 694 OFFCURVE",
"427 699 CURVE SMOOTH",
"311 798 LINE",
"202 699 LINE SMOOTH",
"190 688 OFFCURVE",
"163 697 OFFCURVE",
"171 711 CURVE SMOOTH",
"257 865 LINE SMOOTH",
"261 872 OFFCURVE",
"267 876 OFFCURVE",
"273 878 CURVE SMOOTH",
"282 879 OFFCURVE",
"336 880 OFFCURVE",
"349 879 CURVE SMOOTH",
"361 878 OFFCURVE",
"364 876 OFFCURVE",
"369 866 CURVE SMOOTH",
"456 716 LINE SMOOTH",
"460 708 OFFCURVE",
"461 698 OFFCURVE"
);
},
{
closed = 1;
nodes = (
"565 17 CURVE SMOOTH",
"563 -4 OFFCURVE",
"535 -2 OFFCURVE",
"521 -2 CURVE SMOOTH",
"387 -2 OFFCURVE",
"172 -2 OFFCURVE",
"42 -3 CURVE",
"37 -2 LINE SMOOTH",
"15 2 OFFCURVE",
"22 42 OFFCURVE",
"39 44 CURVE SMOOTH",
"53 46 OFFCURVE",
"66 45 OFFCURVE",
"81 45 CURVE SMOOTH",
"141 47 OFFCURVE",
"149 54 OFFCURVE",
"149 138 CURVE SMOOTH",
"149 513 LINE SMOOTH",
"149 592 OFFCURVE",
"145 607 OFFCURVE",
"77 607 CURVE SMOOTH",
"64 607 OFFCURVE",
"53 604 OFFCURVE",
"45 619 CURVE SMOOTH",
"41 626 OFFCURVE",
"45 638 OFFCURVE",
"49 645 CURVE SMOOTH",
"54 655 OFFCURVE",
"62 653 OFFCURVE",
"71 653 CURVE SMOOTH",
"201 654 OFFCURVE",
"413 655 OFFCURVE",
"508 653 CURVE SMOOTH",
"520 653 OFFCURVE",
"531 647 OFFCURVE",
"532 638 CURVE SMOOTH",
"540 566 OFFCURVE",
"539 531 OFFCURVE",
"541 502 CURVE SMOOTH",
"539 492 OFFCURVE",
"522 490 OFFCURVE",
"511 494 CURVE SMOOTH",
"501 496 OFFCURVE",
"500 505 OFFCURVE",
"500 510 CURVE SMOOTH",
"487 588 OFFCURVE",
"476 595 OFFCURVE",
"399 596 CURVE SMOOTH",
"366 597 OFFCURVE",
"309 599 OFFCURVE",
"268 597 CURVE SMOOTH",
"263 597 OFFCURVE",
"254 586 OFFCURVE",
"254 581 CURVE SMOOTH",
"254 382 LINE SMOOTH",
"254 372 OFFCURVE",
"261 366 OFFCURVE",
"263 366 CURVE SMOOTH",
"378 366 LINE SMOOTH",
"453 366 OFFCURVE",
"454 367 OFFCURVE",
"463 435 CURVE SMOOTH",
"464 436 OFFCURVE",
"496 463 OFFCURVE",
"503 425 CURVE",
"505 374 OFFCURVE",
"503 292 OFFCURVE",
"503 248 CURVE SMOOTH",
"502 220 OFFCURVE",
"464 227 OFFCURVE",
"462 239 CURVE SMOOTH",
"452 304 OFFCURVE",
"451 307 OFFCURVE",
"376 307 CURVE SMOOTH",
"263 307 LINE SMOOTH",
"258 306 OFFCURVE",
"254 304 OFFCURVE",
"254 298 CURVE SMOOTH",
"254 132 LINE SMOOTH",
"254 58 OFFCURVE",
"254 57 OFFCURVE",
"323 57 CURVE SMOOTH",
"401 57 LINE SMOOTH",
"475 57 OFFCURVE",
"488 61 OFFCURVE",
"503 79 CURVE SMOOTH",
"516 95 OFFCURVE",
"529 122 OFFCURVE",
"538 157 CURVE SMOOTH",
"540 167 OFFCURVE",
"546 170 OFFCURVE",
"552 172 CURVE SMOOTH",
"564 173 OFFCURVE",
"576 170 OFFCURVE",
"579 164 CURVE SMOOTH",
"578 92 OFFCURVE",
"568 44 OFFCURVE"
);
}
);
width = 619;
}
);
unicode = 00CA;
},
{
glyphname = Edieresis;
lastChange = "2017-10-06 16:36:12 +0000";
layers = (
{
layerId = "92E73F40-5E0C-43C4-B728-1A2B58992D44";
paths = (
{
closed = 1;
nodes = (
"393 698 CURVE SMOOTH",
"360 698 OFFCURVE",
"332 726 OFFCURVE",
"332 759 CURVE SMOOTH",
"332 793 OFFCURVE",
"360 821 OFFCURVE",
"393 821 CURVE SMOOTH",
"429 821 OFFCURVE",
"455 793 OFFCURVE",
"455 759 CURVE SMOOTH",
"455 726 OFFCURVE",
"429 698 OFFCURVE"
);
},
{
closed = 1;
nodes = (
"228 698 CURVE SMOOTH",
"195 698 OFFCURVE",
"167 724 OFFCURVE",
"167 759 CURVE SMOOTH",
"167 793 OFFCURVE",
"194 821 OFFCURVE",
"228 821 CURVE SMOOTH",
"262 821 OFFCURVE",
"290 793 OFFCURVE",
"290 759 CURVE SMOOTH",
"290 724 OFFCURVE",
"262 698 OFFCURVE"
);
},
{
closed = 1;
nodes = (
"565 17 CURVE SMOOTH",
"563 -4 OFFCURVE",
"535 -2 OFFCURVE",
"521 -2 CURVE SMOOTH",
"387 -2 OFFCURVE",
"172 -2 OFFCURVE",
"42 -3 CURVE",
"37 -2 LINE SMOOTH",
"15 2 OFFCURVE",
"22 42 OFFCURVE",
"39 44 CURVE SMOOTH",
"53 46 OFFCURVE",
"66 45 OFFCURVE",
"81 45 CURVE SMOOTH",
"141 47 OFFCURVE",
"149 54 OFFCURVE",
"149 138 CURVE SMOOTH",
"149 513 LINE SMOOTH",
"149 592 OFFCURVE",
"145 607 OFFCURVE",
"77 607 CURVE SMOOTH",
"64 607 OFFCURVE",
"53 604 OFFCURVE",
"45 619 CURVE SMOOTH",
"41 626 OFFCURVE",
"45 637 OFFCURVE",
"49 644 CURVE SMOOTH",
"54 654 OFFCURVE",
"62 652 OFFCURVE",
"71 652 CURVE SMOOTH",
"201 653 OFFCURVE",
"413 654 OFFCURVE",
"508 652 CURVE SMOOTH",
"520 652 OFFCURVE",
"531 646 OFFCURVE",
"532 637 CURVE SMOOTH",
"540 565 OFFCURVE",
"539 531 OFFCURVE",
"541 502 CURVE SMOOTH",
"539 492 OFFCURVE",
"522 490 OFFCURVE",
"511 494 CURVE SMOOTH",
"501 495 OFFCURVE",
"500 504 OFFCURVE",
"500 509 CURVE SMOOTH",
"487 588 OFFCURVE",
"476 595 OFFCURVE",
"399 596 CURVE SMOOTH",
"366 597 OFFCURVE",
"309 599 OFFCURVE",
"268 597 CURVE SMOOTH",
"263 597 OFFCURVE",
"254 586 OFFCURVE",
"254 581 CURVE SMOOTH",
"254 381 LINE SMOOTH",
"254 372 OFFCURVE",
"261 366 OFFCURVE",
"263 366 CURVE SMOOTH",
"378 366 LINE SMOOTH",
"453 366 OFFCURVE",
"454 366 OFFCURVE",
"463 435 CURVE SMOOTH",
"464 436 OFFCURVE",
"496 462 OFFCURVE",
"503 424 CURVE",
"505 374 OFFCURVE",
"503 292 OFFCURVE",
"503 248 CURVE SMOOTH",
"502 220 OFFCURVE",
"464 227 OFFCURVE",
"462 238 CURVE SMOOTH",
"452 304 OFFCURVE",
"451 307 OFFCURVE",
"376 307 CURVE SMOOTH",
"263 307 LINE SMOOTH",
"258 306 OFFCURVE",
"254 303 OFFCURVE",
"254 297 CURVE SMOOTH",
"254 132 LINE SMOOTH",
"254 58 OFFCURVE",
"254 57 OFFCURVE",
"323 57 CURVE SMOOTH",
"401 57 LINE SMOOTH",
"475 57 OFFCURVE",
"488 61 OFFCURVE",
"503 79 CURVE SMOOTH",
"516 95 OFFCURVE",
"529 122 OFFCURVE",
"538 157 CURVE SMOOTH",
"540 167 OFFCURVE",
"546 170 OFFCURVE",
"552 172 CURVE SMOOTH",
"564 173 OFFCURVE",
"576 170 OFFCURVE",
"579 164 CURVE SMOOTH",
"578 92 OFFCURVE",
"568 44 OFFCURVE"
);
}
);
width = 619;
}
);
unicode = 00CB;
},
{
glyphname = Egrave;
lastChange = "2017-10-06 16:36:12 +0000";
layers = (
{
layerId = "92E73F40-5E0C-43C4-B728-1A2B58992D44";
paths = (
{
closed = 1;
nodes = (
"336 696 CURVE SMOOTH",
"305 738 OFFCURVE",
"247 806 OFFCURVE",
"204 852 CURVE SMOOTH",
"193 864 OFFCURVE",
"209 880 OFFCURVE",
"223 880 CURVE SMOOTH",
"298 881 LINE SMOOTH",
"306 881 OFFCURVE",
"315 881 OFFCURVE",
"322 870 CURVE SMOOTH",
"338 825 OFFCURVE",
"360 751 OFFCURVE",
"370 707 CURVE",
"370 685 OFFCURVE",
"344 688 OFFCURVE"
);
},
{
closed = 1;
nodes = (
"565 17 CURVE SMOOTH",
"563 -4 OFFCURVE",
"535 -2 OFFCURVE",
"521 -2 CURVE SMOOTH",
"387 -2 OFFCURVE",
"172 -2 OFFCURVE",
"42 -3 CURVE",
"37 -2 LINE SMOOTH",
"15 2 OFFCURVE",
"22 42 OFFCURVE",
"39 44 CURVE SMOOTH",
"53 46 OFFCURVE",
"66 45 OFFCURVE",
"81 45 CURVE SMOOTH",
"141 47 OFFCURVE",
"149 54 OFFCURVE",
"149 138 CURVE SMOOTH",
"149 513 LINE SMOOTH",
"149 592 OFFCURVE",
"145 607 OFFCURVE",
"77 607 CURVE SMOOTH",
"64 607 OFFCURVE",
"53 604 OFFCURVE",
"45 619 CURVE SMOOTH",
"41 626 OFFCURVE",
"45 638 OFFCURVE",
"49 645 CURVE SMOOTH",
"54 655 OFFCURVE",
"62 653 OFFCURVE",
"71 653 CURVE SMOOTH",
"201 654 OFFCURVE",
"413 655 OFFCURVE",
"508 653 CURVE SMOOTH",
"520 653 OFFCURVE",
"531 647 OFFCURVE",
"532 638 CURVE SMOOTH",
"540 566 OFFCURVE",
"539 531 OFFCURVE",
"541 502 CURVE SMOOTH",
"539 492 OFFCURVE",
"522 490 OFFCURVE",
"511 494 CURVE SMOOTH",
"501 496 OFFCURVE",
"500 505 OFFCURVE",
"500 510 CURVE SMOOTH",
"487 588 OFFCURVE",
"476 595 OFFCURVE",
"399 597 CURVE SMOOTH",
"366 597 OFFCURVE",
"309 599 OFFCURVE",
"268 598 CURVE SMOOTH",
"263 597 OFFCURVE",
"254 586 OFFCURVE",
"254 581 CURVE SMOOTH",
"254 382 LINE SMOOTH",
"254 372 OFFCURVE",
"261 366 OFFCURVE",
"263 366 CURVE SMOOTH",
"378 366 LINE SMOOTH",
"453 366 OFFCURVE",
"454 367 OFFCURVE",
"463 435 CURVE SMOOTH",
"464 436 OFFCURVE",
"496 463 OFFCURVE",
"503 425 CURVE",
"505 374 OFFCURVE",
"503 292 OFFCURVE",
"503 248 CURVE SMOOTH",
"502 220 OFFCURVE",
"464 227 OFFCURVE",
"462 239 CURVE SMOOTH",
"452 304 OFFCURVE",
"451 307 OFFCURVE",
"376 307 CURVE SMOOTH",
"263 307 LINE SMOOTH",
"258 306 OFFCURVE",
"254 304 OFFCURVE",
"254 298 CURVE SMOOTH",
"254 132 LINE SMOOTH",
"254 58 OFFCURVE",
"254 57 OFFCURVE",
"323 57 CURVE SMOOTH",
"401 57 LINE SMOOTH",
"475 57 OFFCURVE",
"488 61 OFFCURVE",
"503 79 CURVE SMOOTH",
"516 95 OFFCURVE",
"529 122 OFFCURVE",
"538 157 CURVE SMOOTH",
"540 167 OFFCURVE",
"546 170 OFFCURVE",
"552 172 CURVE SMOOTH",
"564 173 OFFCURVE",
"576 170 OFFCURVE",
"579 164 CURVE SMOOTH",
"578 92 OFFCURVE",
"568 44 OFFCURVE"
);
}
);
width = 619;
}
);
unicode = 00C8;
},
{
glyphname = F;
lastChange = "2017-10-06 16:36:12 +0000";
layers = (
{
layerId = "92E73F40-5E0C-43C4-B728-1A2B58992D44";
paths = (
{
closed = 1;
nodes = (
"496 517 LINE",
"485 510 OFFCURVE",
"473 511 OFFCURVE",
"464 513 CURVE SMOOTH",
"456 516 OFFCURVE",
"456 522 OFFCURVE",
"456 527 CURVE SMOOTH",
"452 582 OFFCURVE",
"439 592 OFFCURVE",
"354 592 CURVE SMOOTH",
"241 592 LINE SMOOTH",
"233 592 OFFCURVE",
"229 587 OFFCURVE",
"226 576 CURVE SMOOTH",
"225 389 LINE SMOOTH",
"225 384 OFFCURVE",
"237 377 OFFCURVE",
"240 377 CURVE SMOOTH",
"280 374 OFFCURVE",
"316 376 OFFCURVE",
"357 377 CURVE SMOOTH",
"427 377 OFFCURVE",
"435 380 OFFCURVE",
"439 424 CURVE SMOOTH",
"441 442 OFFCURVE",
"476 443 OFFCURVE",
"478 428 CURVE SMOOTH",
"478 418 OFFCURVE",
"480 302 OFFCURVE",
"478 250 CURVE SMOOTH",
"476 239 OFFCURVE",
"442 234 OFFCURVE",
"440 251 CURVE SMOOTH",
"435 311 OFFCURVE",
"427 320 OFFCURVE",
"353 318 CURVE SMOOTH",
"325 317 OFFCURVE",
"273 317 OFFCURVE",
"245 318 CURVE SMOOTH",
"234 317 OFFCURVE",
"226 306 OFFCURVE",
"226 298 CURVE SMOOTH",
"226 103 LINE SMOOTH",
"226 53 OFFCURVE",
"239 43 OFFCURVE",
"293 43 CURVE SMOOTH",
"304 43 LINE SMOOTH",
"313 41 OFFCURVE",
"315 33 OFFCURVE",
"315 18 CURVE SMOOTH",
"315 6 OFFCURVE",
"309 -4 OFFCURVE",
"302 -3 CURVE SMOOTH",
"229 -2 OFFCURVE",
"131 -1 OFFCURVE",
"56 -3 CURVE SMOOTH",
"34 -3 OFFCURVE",
"39 39 OFFCURVE",
"52 41 CURVE SMOOTH",
"106 44 OFFCURVE",
"118 54 OFFCURVE",
"118 103 CURVE SMOOTH",
"118 545 LINE SMOOTH",
"118 595 OFFCURVE",
"103 604 OFFCURVE",
"52 606 CURVE SMOOTH",
"38 609 OFFCURVE",
"37 652 OFFCURVE",
"57 650 CURVE SMOOTH",
"171 651 OFFCURVE",
"365 651 OFFCURVE",
"478 650 CURVE SMOOTH",
"489 650 OFFCURVE",
"500 637 OFFCURVE",
"499 627 CURVE SMOOTH"
);
}
);
width = 543;
}
);
unicode = 0046;
},
{
glyphname = G;
lastChange = "2017-10-06 16:36:12 +0000";
layers = (
{
layerId = "92E73F40-5E0C-43C4-B728-1A2B58992D44";
paths = (
{
closed = 1;
nodes = (
"715 250 CURVE SMOOTH",
"671 248 OFFCURVE",
"659 235 OFFCURVE",
"658 187 CURVE SMOOTH",
"657 160 OFFCURVE",
"657 105 OFFCURVE",
"658 75 CURVE SMOOTH",
"658 64 OFFCURVE",
"657 49 OFFCURVE",
"646 44 CURVE SMOOTH",
"579 9 OFFCURVE",
"471 -19 OFFCURVE",
"386 -19 CURVE SMOOTH",
"191 -19 OFFCURVE",
"55 123 OFFCURVE",
"55 314 CURVE SMOOTH",
"55 414 OFFCURVE",
"100 508 OFFCURVE",
"171 574 CURVE SMOOTH",
"239 638 OFFCURVE",
"308 667 OFFCURVE",
"414 667 CURVE SMOOTH",
"468 667 OFFCURVE",
"505 659 OFFCURVE",
"578 637 CURVE SMOOTH",
"595 632 OFFCURVE",
"600 632 OFFCURVE",
"607 632 CURVE SMOOTH",
"615 632 OFFCURVE",
"617 633 OFFCURVE",
"623 639 CURVE SMOOTH",
"627 645 OFFCURVE",
"647 645 OFFCURVE",
"650 639 CURVE SMOOTH",
"655 630 OFFCURVE",
"657 515 OFFCURVE",
"654 464 CURVE SMOOTH",
"653 444 OFFCURVE",
"615 445 OFFCURVE",
"612 461 CURVE SMOOTH",
"591 567 OFFCURVE",
"533 621 OFFCURVE",
"429 621 CURVE SMOOTH",
"269 621 OFFCURVE",
"175 506 OFFCURVE",
"175 319 CURVE SMOOTH",
"175 147 OFFCURVE",
"271 29 OFFCURVE",
"418 29 CURVE SMOOTH",
"460 29 OFFCURVE",
"502 41 OFFCURVE",
"543 59 CURVE SMOOTH",
"552 63 OFFCURVE",
"552 78 OFFCURVE",
"552 87 CURVE SMOOTH",
"552 113 OFFCURVE",
"552 154 OFFCURVE",
"552 187 CURVE SMOOTH",
"552 235 OFFCURVE",
"538 245 OFFCURVE",
"481 247 CURVE SMOOTH",
"443 248 LINE SMOOTH",
"428 248 OFFCURVE",
"419 290 OFFCURVE",
"443 293 CURVE SMOOTH",
"517 291 OFFCURVE",
"649 292 OFFCURVE",
"715 293 CURVE SMOOTH",
"730 293 OFFCURVE",
"732 278 OFFCURVE",
"730 270 CURVE SMOOTH",
"728 260 OFFCURVE",
"720 250 OFFCURVE"
);
}
);
width = 763;
}
);
unicode = 0047;
},
{
glyphname = H;
lastChange = "2017-10-06 16:36:12 +0000";
layers = (
{
layerId = "92E73F40-5E0C-43C4-B728-1A2B58992D44";
paths = (
{
closed = 1;
nodes = (
"751 -3 CURVE SMOOTH",
"682 -1 OFFCURVE",
"604 -3 OFFCURVE",
"471 -3 CURVE SMOOTH",
"461 -3 OFFCURVE",
"455 1 OFFCURVE",
"453 10 CURVE SMOOTH",
"449 22 OFFCURVE",
"453 46 OFFCURVE",
"470 46 CURVE SMOOTH",
"494 46 LINE SMOOTH",
"544 46 OFFCURVE",
"564 56 OFFCURVE",
"564 103 CURVE SMOOTH",
"564 286 LINE SMOOTH",
"563 294 OFFCURVE",
"548 299 OFFCURVE",
"541 299 CURVE SMOOTH",
"444 298 OFFCURVE",
"341 299 OFFCURVE",
"238 299 CURVE SMOOTH",
"237 299 OFFCURVE",
"223 293 OFFCURVE",
"223 280 CURVE SMOOTH",
"223 103 LINE SMOOTH",
"223 54 OFFCURVE",
"236 45 OFFCURVE",
"288 45 CURVE SMOOTH",
"297 45 LINE SMOOTH",
"318 48 OFFCURVE",
"325 1 OFFCURVE",
"298 -3 CURVE",
"234 -1 OFFCURVE",
"109 -3 OFFCURVE",
"47 -3 CURVE SMOOTH",
"39 -3 OFFCURVE",
"30 -2 OFFCURVE",
"26 7 CURVE SMOOTH",
"24 14 OFFCURVE",
"22 28 OFFCURVE",
"27 37 CURVE SMOOTH",
"34 50 OFFCURVE",
"48 46 OFFCURVE",
"61 46 CURVE SMOOTH",
"103 49 OFFCURVE",
"116 57 OFFCURVE",
"116 103 CURVE SMOOTH",
"116 545 LINE SMOOTH",
"116 592 OFFCURVE",
"103 604 OFFCURVE",
"61 607 CURVE SMOOTH",
"52 608 OFFCURVE",
"50 607 OFFCURVE",
"47 615 CURVE SMOOTH",
"43 628 OFFCURVE",
"46 651 OFFCURVE",
"56 650 CURVE SMOOTH",
"120 647 OFFCURVE",
"237 647 OFFCURVE",
"293 650 CURVE SMOOTH",
"301 650 OFFCURVE",
"299 650 OFFCURVE",
"307 645 CURVE SMOOTH",
"314 637 OFFCURVE",
"312 627 OFFCURVE",
"310 618 CURVE SMOOTH",
"308 609 OFFCURVE",
"301 609 OFFCURVE",
"293 608 CURVE SMOOTH",
"237 608 OFFCURVE",
"223 589 OFFCURVE",
"223 545 CURVE SMOOTH",
"223 375 LINE SMOOTH",
"223 363 OFFCURVE",
"230 356 OFFCURVE",
"240 356 CURVE SMOOTH",
"340 356 OFFCURVE",
"431 354 OFFCURVE",
"540 356 CURVE SMOOTH",
"545 356 OFFCURVE",
"564 363 OFFCURVE",
"564 377 CURVE SMOOTH",
"565 437 OFFCURVE",
"564 486 OFFCURVE",
"564 545 CURVE SMOOTH",
"564 593 OFFCURVE",
"537 605 OFFCURVE",
"494 607 CURVE SMOOTH",
"473 608 LINE SMOOTH",
"460 610 OFFCURVE",
"458 629 OFFCURVE",
"462 641 CURVE SMOOTH",
"467 651 OFFCURVE",
"474 653 OFFCURVE",
"485 653 CURVE SMOOTH",
"556 655 OFFCURVE",
"673 648 OFFCURVE",
"732 650 CURVE SMOOTH",
"755 651 OFFCURVE",
"761 610 OFFCURVE",
"740 606 CURVE SMOOTH",
"737 605 OFFCURVE",
"734 605 OFFCURVE",
"731 605 CURVE SMOOTH",
"699 602 OFFCURVE",
"673 594 OFFCURVE",
"671 545 CURVE SMOOTH",
"668 396 OFFCURVE",
"671 198 OFFCURVE",
"671 103 CURVE SMOOTH",
"671 61 OFFCURVE",
"689 47 OFFCURVE",
"741 47 CURVE SMOOTH",
"750 47 OFFCURVE",
"763 46 OFFCURVE",
"768 36 CURVE SMOOTH",
"772 25 OFFCURVE",
"769 -3 OFFCURVE"
);
}
);
width = 788;
}
);
unicode = 0048;
},
{
glyphname = I;
lastChange = "2017-10-06 16:36:12 +0000";
layers = (
{
layerId = "92E73F40-5E0C-43C4-B728-1A2B58992D44";
paths = (
{
closed = 1;
nodes = (
"294 607 CURVE SMOOTH",
"240 606 OFFCURVE",
"233 600 OFFCURVE",
"233 511 CURVE SMOOTH",
"233 103 LINE SMOOTH",
"233 45 OFFCURVE",
"253 47 OFFCURVE",
"302 45 CURVE SMOOTH",
"310 45 OFFCURVE",
"313 43 OFFCURVE",
"317 35 CURVE SMOOTH",
"323 21 OFFCURVE",
"320 -4 OFFCURVE",
"306 -4 CURVE SMOOTH",
"245 -2 OFFCURVE",
"129 -2 OFFCURVE",
"69 -4 CURVE SMOOTH",
"60 -4 OFFCURVE",
"52 5 OFFCURVE",
"52 17 CURVE SMOOTH",
"52 23 OFFCURVE",
"51 32 OFFCURVE",
"54 37 CURVE SMOOTH",
"60 45 OFFCURVE",
"66 43 OFFCURVE",
"76 44 CURVE SMOOTH",
"120 49 OFFCURVE",
"127 60 OFFCURVE",
"128 103 CURVE SMOOTH",
"129 137 LINE",
"129 511 LINE",
"128 545 LINE SMOOTH",
"127 594 OFFCURVE",
"122 601 OFFCURVE",
"74 607 CURVE SMOOTH",
"70 607 OFFCURVE",
"64 608 OFFCURVE",
"62 609 CURVE SMOOTH",
"52 616 OFFCURVE",
"53 634 OFFCURVE",
"58 643 CURVE SMOOTH",
"63 651 OFFCURVE",
"67 651 OFFCURVE",
"76 651 CURVE SMOOTH",
"154 650 OFFCURVE",
"179 646 OFFCURVE",
"296 651 CURVE SMOOTH",
"306 651 OFFCURVE",
"316 650 OFFCURVE",
"317 635 CURVE SMOOTH",
"318 629 OFFCURVE",
"317 620 OFFCURVE",
"314 615 CURVE SMOOTH",
"311 608 OFFCURVE",
"301 607 OFFCURVE"
);
}
);
width = 363;
}
);
unicode = 0049;
},
{
glyphname = Iacute;
lastChange = "2017-10-06 16:36:12 +0000";
layers = (
{
layerId = "92E73F40-5E0C-43C4-B728-1A2B58992D44";
paths = (
{
closed = 1;
nodes = (
"280 863 CURVE SMOOTH",
"251 826 OFFCURVE",
"150 700 OFFCURVE",
"150 700 CURVE SMOOTH",
"142 691 OFFCURVE",
"109 692 OFFCURVE",
"116 714 CURVE SMOOTH",
"163 877 LINE SMOOTH",
"168 887 OFFCURVE",
"177 893 OFFCURVE",
"186 893 CURVE SMOOTH",
"224 893 OFFCURVE",
"252 896 OFFCURVE",
"269 894 CURVE SMOOTH",
"296 892 OFFCURVE",
"293 879 OFFCURVE"
);
},
{
closed = 1;
nodes = (
"307 610 CURVE SMOOTH",
"303 610 OFFCURVE",
"298 609 OFFCURVE",
"294 609 CURVE SMOOTH",
"240 609 OFFCURVE",
"233 603 OFFCURVE",
"233 513 CURVE SMOOTH",
"233 103 LINE SMOOTH",
"233 45 OFFCURVE",
"253 46 OFFCURVE",
"302 43 CURVE SMOOTH",
"304 43 OFFCURVE",
"307 43 OFFCURVE",
"310 42 CURVE SMOOTH",
"324 33 OFFCURVE",
"325 -4 OFFCURVE",
"307 -3 CURVE SMOOTH",
"246 -1 OFFCURVE",
"129 -1 OFFCURVE",
"69 -3 CURVE SMOOTH",
"60 -3 OFFCURVE",
"52 5 OFFCURVE",
"52 17 CURVE SMOOTH",
"52 28 OFFCURVE",
"59 41 OFFCURVE",
"65 41 CURVE SMOOTH",
"124 47 OFFCURVE",
"126 53 OFFCURVE",
"128 103 CURVE SMOOTH",
"129 138 LINE",
"129 513 LINE",
"128 548 LINE SMOOTH",
"127 596 OFFCURVE",
"121 606 OFFCURVE",
"72 611 CURVE SMOOTH",
"46 614 OFFCURVE",
"53 649 OFFCURVE",
"66 653 CURVE SMOOTH",
"67 654 OFFCURVE",
"69 654 OFFCURVE",
"71 654 CURVE SMOOTH",
"76 654 LINE SMOOTH",
"155 653 OFFCURVE",
"179 648 OFFCURVE",
"296 654 CURVE SMOOTH",
"306 654 OFFCURVE",
"316 653 OFFCURVE",
"317 638 CURVE SMOOTH",
"318 628 OFFCURVE",
"315 612 OFFCURVE"
);
}
);
width = 363;
}
);
unicode = 00CD;
},
{
glyphname = Icircumflex;
lastChange = "2017-10-06 16:36:12 +0000";
layers = (
{
layerId = "92E73F40-5E0C-43C4-B728-1A2B58992D44";
paths = (
{
closed = 1;
nodes = (
"318 688 CURVE SMOOTH",
"311 686 OFFCURVE",
"299 686 OFFCURVE",
"294 691 CURVE SMOOTH",
"180 790 LINE",
"73 691 LINE SMOOTH",
"61 680 OFFCURVE",
"35 689 OFFCURVE",
"43 703 CURVE SMOOTH",
"127 857 LINE SMOOTH",
"131 864 OFFCURVE",
"137 868 OFFCURVE",
"143 870 CURVE SMOOTH",
"152 871 OFFCURVE",
"205 872 OFFCURVE",
"217 871 CURVE SMOOTH",
"228 870 OFFCURVE",
"232 868 OFFCURVE",
"238 858 CURVE SMOOTH",
"323 708 LINE SMOOTH",
"327 700 OFFCURVE",
"327 690 OFFCURVE"
);
},
{
closed = 1;
nodes = (
"309 610 CURVE SMOOTH",
"303 610 OFFCURVE",
"298 609 OFFCURVE",
"295 609 CURVE SMOOTH",
"240 608 OFFCURVE",
"232 603 OFFCURVE",
"232 513 CURVE SMOOTH",
"232 103 LINE SMOOTH",
"232 45 OFFCURVE",
"253 45 OFFCURVE",
"302 43 CURVE SMOOTH",
"304 43 OFFCURVE",
"307 43 OFFCURVE",
"310 42 CURVE SMOOTH",
"330 30 OFFCURVE",
"319 -3 OFFCURVE",
"308 -3 CURVE SMOOTH",
"247 -1 OFFCURVE",
"129 -1 OFFCURVE",
"69 -3 CURVE SMOOTH",
"59 -3 OFFCURVE",
"51 5 OFFCURVE",
"51 17 CURVE SMOOTH",
"51 28 OFFCURVE",
"60 41 OFFCURVE",
"65 41 CURVE SMOOTH",
"123 47 OFFCURVE",
"127 53 OFFCURVE",
"128 103 CURVE SMOOTH",
"129 138 LINE",
"129 513 LINE",
"128 547 LINE SMOOTH",
"127 596 OFFCURVE",
"122 606 OFFCURVE",
"71 611 CURVE SMOOTH",
"46 614 OFFCURVE",
"53 649 OFFCURVE",
"65 653 CURVE SMOOTH",
"67 654 OFFCURVE",
"69 654 OFFCURVE",
"70 654 CURVE SMOOTH",
"75 654 LINE SMOOTH",
"155 653 OFFCURVE",
"179 648 OFFCURVE",
"297 654 CURVE SMOOTH",
"305 654 OFFCURVE",
"317 653 OFFCURVE",
"318 638 CURVE SMOOTH",
"319 628 OFFCURVE",
"315 612 OFFCURVE"
);
}
);
width = 362;
}
);
unicode = 00CE;
},
{
glyphname = Idieresis;
lastChange = "2017-10-06 16:36:12 +0000";
layers = (
{
layerId = "92E73F40-5E0C-43C4-B728-1A2B58992D44";
paths = (
{
closed = 1;
nodes = (
"262 695 CURVE SMOOTH",
"227 695 OFFCURVE",
"199 724 OFFCURVE",
"199 759 CURVE SMOOTH",
"199 795 OFFCURVE",
"227 824 OFFCURVE",
"262 824 CURVE SMOOTH",
"299 824 OFFCURVE",
"326 795 OFFCURVE",
"326 759 CURVE SMOOTH",
"326 724 OFFCURVE",
"299 695 OFFCURVE"
);
},
{
closed = 1;
nodes = (
"91 695 CURVE SMOOTH",
"56 695 OFFCURVE",
"28 723 OFFCURVE",
"28 759 CURVE SMOOTH",
"28 795 OFFCURVE",
"56 824 OFFCURVE",
"91 824 CURVE SMOOTH",
"126 824 OFFCURVE",
"154 795 OFFCURVE",
"154 759 CURVE SMOOTH",
"154 723 OFFCURVE",
"126 695 OFFCURVE"
);
},
{
closed = 1;
nodes = (
"309 610 CURVE SMOOTH",
"304 610 OFFCURVE",
"300 609 OFFCURVE",
"295 609 CURVE SMOOTH",
"240 608 OFFCURVE",
"233 602 OFFCURVE",
"233 513 CURVE SMOOTH",
"233 103 LINE SMOOTH",
"233 45 OFFCURVE",
"254 45 OFFCURVE",
"303 43 CURVE SMOOTH",
"305 43 OFFCURVE",
"308 43 OFFCURVE",
"311 42 CURVE SMOOTH",
"325 33 OFFCURVE",
"326 -4 OFFCURVE",
"308 -3 CURVE SMOOTH",
"247 -1 OFFCURVE",
"130 -1 OFFCURVE",
"69 -3 CURVE SMOOTH",
"60 -3 OFFCURVE",
"52 5 OFFCURVE",
"52 17 CURVE SMOOTH",
"52 28 OFFCURVE",
"59 41 OFFCURVE",
"66 41 CURVE SMOOTH",
"124 47 OFFCURVE",
"127 53 OFFCURVE",
"128 103 CURVE SMOOTH",
"129 138 LINE",
"129 513 LINE",
"128 547 LINE SMOOTH",
"127 596 OFFCURVE",
"121 605 OFFCURVE",
"72 611 CURVE SMOOTH",
"47 614 OFFCURVE",
"53 648 OFFCURVE",
"66 653 CURVE SMOOTH",
"68 653 OFFCURVE",
"70 653 OFFCURVE",
"71 653 CURVE SMOOTH",
"76 653 LINE SMOOTH",
"155 653 OFFCURVE",
"180 648 OFFCURVE",
"297 653 CURVE SMOOTH",
"307 654 OFFCURVE",
"317 652 OFFCURVE",
"318 638 CURVE SMOOTH",
"319 627 OFFCURVE",
"317 611 OFFCURVE"
);
}
);
width = 363;
}
);
unicode = 00CF;
},
{
glyphname = Igrave;
lastChange = "2017-10-06 16:36:12 +0000";
layers = (
{
layerId = "92E73F40-5E0C-43C4-B728-1A2B58992D44";
paths = (
{
closed = 1;
nodes = (
"199 696 CURVE SMOOTH",
"168 738 OFFCURVE",
"112 806 OFFCURVE",
"71 852 CURVE SMOOTH",
"60 864 OFFCURVE",
"75 880 OFFCURVE",
"88 880 CURVE SMOOTH",
"162 881 LINE SMOOTH",
"171 881 OFFCURVE",
"178 881 OFFCURVE",
"185 870 CURVE SMOOTH",
"202 825 OFFCURVE",
"223 751 OFFCURVE",
"233 708 CURVE SMOOTH",
"234 689 OFFCURVE",
"210 686 OFFCURVE"
);
},
{
closed = 1;
nodes = (
"307 610 CURVE SMOOTH",
"303 610 OFFCURVE",
"298 609 OFFCURVE",
"294 609 CURVE SMOOTH",
"240 609 OFFCURVE",
"233 603 OFFCURVE",
"233 513 CURVE SMOOTH",
"233 103 LINE SMOOTH",
"233 45 OFFCURVE",
"253 46 OFFCURVE",
"302 43 CURVE SMOOTH",
"304 43 OFFCURVE",
"307 43 OFFCURVE",
"310 42 CURVE SMOOTH",
"324 33 OFFCURVE",
"325 -4 OFFCURVE",
"307 -3 CURVE SMOOTH",
"246 -1 OFFCURVE",
"129 -1 OFFCURVE",
"69 -3 CURVE SMOOTH",
"60 -3 OFFCURVE",
"52 5 OFFCURVE",
"52 17 CURVE SMOOTH",
"52 28 OFFCURVE",
"59 41 OFFCURVE",
"65 41 CURVE SMOOTH",
"124 47 OFFCURVE",
"126 53 OFFCURVE",
"128 103 CURVE SMOOTH",
"129 138 LINE",
"129 513 LINE",
"128 547 LINE SMOOTH",
"127 596 OFFCURVE",
"121 606 OFFCURVE",
"72 611 CURVE SMOOTH",
"46 614 OFFCURVE",
"53 649 OFFCURVE",
"66 653 CURVE SMOOTH",
"67 654 OFFCURVE",
"69 654 OFFCURVE",
"71 654 CURVE SMOOTH",
"76 654 LINE SMOOTH",
"154 653 OFFCURVE",
"179 648 OFFCURVE",
"296 654 CURVE SMOOTH",
"306 654 OFFCURVE",
"316 653 OFFCURVE",
"317 638 CURVE SMOOTH",
"318 628 OFFCURVE",
"315 612 OFFCURVE"
);
}
);
width = 363;
}
);
unicode = 00CC;
},
{
glyphname = J;
lastChange = "2017-10-06 16:36:12 +0000";
layers = (
{
layerId = "92E73F40-5E0C-43C4-B728-1A2B58992D44";
paths = (
{
closed = 1;
nodes = (
"291 609 CURVE SMOOTH",
"285 606 OFFCURVE",
"268 606 OFFCURVE",
"260 605 CURVE SMOOTH",
"230 603 OFFCURVE",
"216 580 OFFCURVE",
"216 545 CURVE SMOOTH",
"216 74 LINE SMOOTH",
"216 -9 OFFCURVE",
"196 -129 OFFCURVE",
"151 -199 CURVE SMOOTH",
"116 -253 OFFCURVE",
"70 -289 OFFCURVE",
"10 -289 CURVE SMOOTH",
"-46 -289 OFFCURVE",
"-90 -263 OFFCURVE",
"-90 -222 CURVE SMOOTH",
"-90 -195 OFFCURVE",
"-69 -170 OFFCURVE",
"-42 -170 CURVE SMOOTH",
"-24 -170 OFFCURVE",
"-10 -187 OFFCURVE",
"3 -197 CURVE SMOOTH",
"11 -203 OFFCURVE",
"18 -210 OFFCURVE",
"27 -215 CURVE SMOOTH",
"46 -225 OFFCURVE",
"74 -213 OFFCURVE",
"87 -194 CURVE SMOOTH",
"107 -165 OFFCURVE",
"111 -129 OFFCURVE",
"111 9 CURVE SMOOTH",
"111 307 OFFCURVE",
"111 430 OFFCURVE",
"111 484 CURVE SMOOTH",
"111 505 OFFCURVE",
"111 524 OFFCURVE",
"110 545 CURVE SMOOTH",
"109 595 OFFCURVE",
"95 605 OFFCURVE",
"41 605 CURVE SMOOTH",
"37 605 OFFCURVE",
"32 608 OFFCURVE",
"29 608 CURVE SMOOTH",
"11 609 OFFCURVE",
"7 653 OFFCURVE",
"33 650 CURVE SMOOTH",
"40 650 OFFCURVE",
"46 650 OFFCURVE",
"55 649 CURVE SMOOTH",
"114 649 OFFCURVE",
"178 651 OFFCURVE",
"283 650 CURVE SMOOTH",
"306 650 OFFCURVE",
"301 612 OFFCURVE"
);
}
);
width = 324;
}
);
unicode = 004A;
},
{
glyphname = K;
lastChange = "2017-10-06 16:36:12 +0000";
layers = (
{
layerId = "92E73F40-5E0C-43C4-B728-1A2B58992D44";
paths = (
{
closed = 1;
nodes = (
"698 -3 CURVE",
"618 2 OFFCURVE",
"482 -3 OFFCURVE",
"415 -4 CURVE SMOOTH",
"408 -3 OFFCURVE",
"402 -2 OFFCURVE",
"398 5 CURVE SMOOTH",
"395 12 OFFCURVE",
"394 23 OFFCURVE",
"397 32 CURVE SMOOTH",
"401 43 OFFCURVE",
"408 41 OFFCURVE",
"417 41 CURVE SMOOTH",
"474 43 OFFCURVE",
"464 71 OFFCURVE",
"455 82 CURVE SMOOTH",
"400 151 OFFCURVE",
"348 226 OFFCURVE",
"275 278 CURVE SMOOTH",
"264 287 OFFCURVE",
"254 290 OFFCURVE",
"244 292 CURVE SMOOTH",
"235 293 OFFCURVE",
"234 276 OFFCURVE",
"234 266 CURVE SMOOTH",
"234 103 LINE SMOOTH",
"234 60 OFFCURVE",
"248 44 OFFCURVE",
"304 44 CURVE SMOOTH",
"312 44 OFFCURVE",
"323 43 OFFCURVE",
"328 34 CURVE SMOOTH",
"331 27 OFFCURVE",
"331 10 OFFCURVE",
"328 3 CURVE SMOOTH",
"325 -3 OFFCURVE",
"317 -4 OFFCURVE",
"309 -4 CURVE SMOOTH",
"235 -1 OFFCURVE",
"104 -2 OFFCURVE",
"48 -4 CURVE SMOOTH",
"41 -4 OFFCURVE",
"30 -5 OFFCURVE",
"25 2 CURVE SMOOTH",
"18 12 OFFCURVE",
"16 37 OFFCURVE",
"36 45 CURVE SMOOTH",
"43 47 OFFCURVE",
"51 46 OFFCURVE",
"57 45 CURVE SMOOTH",
"98 45 OFFCURVE",
"127 57 OFFCURVE",
"127 103 CURVE SMOOTH",
"127 545 LINE SMOOTH",
"127 595 OFFCURVE",
"113 607 OFFCURVE",
"57 607 CURVE SMOOTH",
"37 607 LINE SMOOTH",
"22 608 OFFCURVE",
"19 632 OFFCURVE",
"24 642 CURVE SMOOTH",
"27 651 OFFCURVE",
"35 652 OFFCURVE",
"43 652 CURVE SMOOTH",
"163 649 OFFCURVE",
"255 649 OFFCURVE",
"308 651 CURVE SMOOTH",
"315 651 OFFCURVE",
"327 648 OFFCURVE",
"327 630 CURVE SMOOTH",
"327 614 OFFCURVE",
"317 607 OFFCURVE",
"304 607 CURVE SMOOTH",
"247 607 OFFCURVE",
"234 595 OFFCURVE",
"234 545 CURVE SMOOTH",
"234 345 LINE SMOOTH",
"234 339 OFFCURVE",
"240 336 OFFCURVE",
"243 337 CURVE SMOOTH",
"255 341 OFFCURVE",
"265 348 OFFCURVE",
"277 359 CURVE SMOOTH",
"326 402 OFFCURVE",
"436 535 OFFCURVE",
"436 589 CURVE SMOOTH",
"436 599 OFFCURVE",
"435 603 OFFCURVE",
"390 607 CURVE SMOOTH",
"381 608 OFFCURVE",
"387 608 OFFCURVE",
"374 609 CURVE",
"362 618 OFFCURVE",
"365 635 OFFCURVE",
"368 642 CURVE SMOOTH",
"370 649 OFFCURVE",
"380 651 OFFCURVE",
"385 650 CURVE SMOOTH",
"482 647 OFFCURVE",
"584 648 OFFCURVE",
"632 650 CURVE SMOOTH",
"650 651 OFFCURVE",
"654 628 OFFCURVE",
"647 616 CURVE SMOOTH",
"644 611 OFFCURVE",
"638 609 OFFCURVE",
"631 610 CURVE SMOOTH",
"567 609 OFFCURVE",
"532 595 OFFCURVE",
"501 552 CURVE SMOOTH",
"490 537 OFFCURVE",
"481 521 OFFCURVE",
"472 508 CURVE SMOOTH",
"438 456 OFFCURVE",
"400 406 OFFCURVE",
"361 357 CURVE SMOOTH",
"358 353 OFFCURVE",
"354 348 OFFCURVE",
"350 344 CURVE",
"363 337 OFFCURVE",
"377 325 OFFCURVE",
"400 302 CURVE SMOOTH",
"464 242 OFFCURVE",
"514 170 OFFCURVE",
"570 102 CURVE SMOOTH",
"612 51 OFFCURVE",
"633 45 OFFCURVE",
"693 45 CURVE SMOOTH",
"702 45 OFFCURVE",
"707 45 OFFCURVE",
"711 36 CURVE SMOOTH",
"717 24 OFFCURVE",
"718 1 OFFCURVE"
);
}
);
width = 740;
}
);
unicode = 004B;
},
{
glyphname = L;
lastChange = "2017-10-06 16:36:12 +0000";
layers = (
{
layerId = "92E73F40-5E0C-43C4-B728-1A2B58992D44";
paths = (
{
closed = 1;
nodes = (
"510 17 CURVE SMOOTH",
"504 6 OFFCURVE",
"494 -4 OFFCURVE",
"475 -4 CURVE SMOOTH",
"298 -1 OFFCURVE",
"73 -2 OFFCURVE",
"43 -3 CURVE SMOOTH",
"33 -4 OFFCURVE",
"25 2 OFFCURVE",
"23 10 CURVE SMOOTH",
"20 18 OFFCURVE",
"20 40 OFFCURVE",
"32 45 CURVE SMOOTH",
"35 46 OFFCURVE",
"43 46 OFFCURVE",
"47 47 CURVE SMOOTH",
"71 47 OFFCURVE",
"114 52 OFFCURVE",
"120 82 CURVE SMOOTH",
"121 93 OFFCURVE",
"122 101 OFFCURVE",
"122 141 CURVE SMOOTH",
"122 545 LINE SMOOTH",
"122 595 OFFCURVE",
"107 606 OFFCURVE",
"52 606 CURVE SMOOTH",
"40 606 LINE SMOOTH",
"27 607 OFFCURVE",
"24 634 OFFCURVE",
"31 643 CURVE SMOOTH",
"35 652 OFFCURVE",
"46 652 OFFCURVE",
"51 651 CURVE SMOOTH",
"148 649 OFFCURVE",
"217 650 OFFCURVE",
"330 652 CURVE SMOOTH",
"337 652 OFFCURVE",
"346 651 OFFCURVE",
"349 639 CURVE SMOOTH",
"353 624 OFFCURVE",
"351 605 OFFCURVE",
"332 604 CURVE SMOOTH",
"322 603 OFFCURVE",
"311 602 OFFCURVE",
"300 602 CURVE SMOOTH",
"240 600 OFFCURVE",
"228 595 OFFCURVE",
"228 555 CURVE SMOOTH",
"228 105 LINE SMOOTH",
"228 67 OFFCURVE",
"251 57 OFFCURVE",
"288 57 CURVE SMOOTH",
"371 57 LINE SMOOTH",
"443 57 OFFCURVE",
"456 59 OFFCURVE",
"503 121 CURVE SMOOTH",
"539 167 LINE",
"548 171 OFFCURVE",
"558 173 OFFCURVE",
"566 167 CURVE SMOOTH",
"575 162 OFFCURVE",
"573 151 OFFCURVE",
"572 149 CURVE SMOOTH",
"548 93 OFFCURVE",
"524 38 OFFCURVE"
);
}
);
width = 595;
}
);
unicode = 004C;
},
{
glyphname = Lslash;
lastChange = "2017-10-06 16:36:12 +0000";
layers = (
{
layerId = "92E73F40-5E0C-43C4-B728-1A2B58992D44";
paths = (
{
closed = 1;
nodes = (
"503 11 CURVE SMOOTH",
"498 1 OFFCURVE",
"486 -5 OFFCURVE",
"465 -5 CURVE SMOOTH",
"361 -5 OFFCURVE",
"100 -3 OFFCURVE",
"49 -7 CURVE SMOOTH",
"37 -10 OFFCURVE",
"24 -4 OFFCURVE",
"19 11 CURVE SMOOTH",
"19 19 OFFCURVE",
"17 25 OFFCURVE",
"19 30 CURVE SMOOTH",
"24 43 OFFCURVE",
"34 46 OFFCURVE",
"49 46 CURVE SMOOTH",
"92 46 OFFCURVE",
"117 47 OFFCURVE",
"119 93 CURVE SMOOTH",
"120 137 OFFCURVE",
"119 166 OFFCURVE",
"119 210 CURVE SMOOTH",
"119 221 OFFCURVE",
"120 246 OFFCURVE",
"110 237 CURVE SMOOTH",
"27 169 LINE SMOOTH",
"16 160 OFFCURVE",
"-3 155 OFFCURVE",
"-3 179 CURVE SMOOTH",
"-3 226 LINE SMOOTH",
"-3 237 OFFCURVE",
"0 243 OFFCURVE",
"7 248 CURVE SMOOTH",
"106 332 LINE SMOOTH",
"117 341 OFFCURVE",
"119 351 OFFCURVE",
"119 357 CURVE SMOOTH",
"119 551 LINE SMOOTH",
"119 602 OFFCURVE",
"104 613 OFFCURVE",
"49 613 CURVE SMOOTH",
"40 613 OFFCURVE",
"25 615 OFFCURVE",
"24 631 CURVE SMOOTH",
"24 634 OFFCURVE",
"23 637 OFFCURVE",
"23 640 CURVE SMOOTH",
"23 654 OFFCURVE",
"35 659 OFFCURVE",
"47 661 CURVE SMOOTH",
"93 663 OFFCURVE",
"291 659 OFFCURVE",
"332 659 CURVE SMOOTH",
"351 659 OFFCURVE",
"370 615 OFFCURVE",
"324 612 CURVE SMOOTH",
"318 611 OFFCURVE",
"309 611 OFFCURVE",
"298 611 CURVE SMOOTH",
"225 609 OFFCURVE",
"226 608 OFFCURVE",
"226 560 CURVE SMOOTH",
"226 453 LINE SMOOTH",
"226 438 OFFCURVE",
"236 439 OFFCURVE",
"243 444 CURVE SMOOTH",
"325 514 LINE SMOOTH",
"340 527 OFFCURVE",
"348 513 OFFCURVE",
"348 496 CURVE SMOOTH",
"348 449 LINE SMOOTH",
"348 438 OFFCURVE",
"342 432 OFFCURVE",
"335 426 CURVE SMOOTH",
"240 346 LINE SMOOTH",
"235 341 OFFCURVE",
"226 327 OFFCURVE",
"226 314 CURVE SMOOTH",
"226 103 LINE SMOOTH",
"226 55 OFFCURVE",
"241 54 OFFCURVE",
"286 54 CURVE SMOOTH",
"380 54 LINE SMOOTH",
"451 54 OFFCURVE",
"458 55 OFFCURVE",
"505 120 CURVE SMOOTH",
"540 167 LINE",
"561 167 LINE SMOOTH",
"581 167 OFFCURVE",
"582 158 OFFCURVE",
"571 138 CURVE SMOOTH",
"561 118 OFFCURVE",
"538 80 OFFCURVE"
);
}
);
width = 578;
}
);
unicode = 0141;
},
{
glyphname = M;
lastChange = "2017-10-06 16:36:12 +0000";
layers = (
{
layerId = "92E73F40-5E0C-43C4-B728-1A2B58992D44";
paths = (
{
closed = 1;
nodes = (
"204 484 CURVE SMOOTH",
"183 142 LINE SMOOTH",
"182 122 OFFCURVE",
"181 104 OFFCURVE",
"181 93 CURVE SMOOTH",
"181 59 OFFCURVE",
"192 46 OFFCURVE",
"245 42 CURVE SMOOTH",
"253 42 OFFCURVE",
"262 40 OFFCURVE",
"265 29 CURVE SMOOTH",
"267 22 OFFCURVE",
"267 10 OFFCURVE",
"263 4 CURVE SMOOTH",
"259 -1 OFFCURVE",
"252 -1 OFFCURVE",
"245 -3 CURVE SMOOTH",
"194 -1 OFFCURVE",
"115 0 OFFCURVE",
"48 -2 CURVE SMOOTH",
"38 0 OFFCURVE",
"31 -2 OFFCURVE",
"27 9 CURVE SMOOTH",
"24 16 OFFCURVE",
"24 25 OFFCURVE",
"27 32 CURVE SMOOTH",
"31 41 OFFCURVE",
"35 43 OFFCURVE",
"45 42 CURVE SMOOTH",
"92 39 OFFCURVE",
"109 50 OFFCURVE",
"115 92 CURVE SMOOTH",
"116 105 OFFCURVE",
"117 120 OFFCURVE",
"118 137 CURVE SMOOTH",
"127 281 OFFCURVE",
"144 424 OFFCURVE",
"144 568 CURVE SMOOTH",
"144 595 OFFCURVE",
"136 600 OFFCURVE",
"94 604 CURVE SMOOTH",
"84 605 OFFCURVE",
"79 608 OFFCURVE",
"76 613 CURVE SMOOTH",
"74 619 OFFCURVE",
"73 628 OFFCURVE",
"75 636 CURVE SMOOTH",
"77 648 OFFCURVE",
"84 652 OFFCURVE",
"93 651 CURVE SMOOTH",
"128 649 OFFCURVE",
"198 649 OFFCURVE",
"230 650 CURVE SMOOTH",
"242 650 OFFCURVE",
"253 650 OFFCURVE",
"259 637 CURVE SMOOTH",
"464 171 LINE SMOOTH",
"466 167 OFFCURVE",
"474 158 OFFCURVE",
"479 170 CURVE SMOOTH",
"681 635 LINE SMOOTH",
"688 647 OFFCURVE",
"705 650 OFFCURVE",
"711 650 CURVE SMOOTH",
"756 649 OFFCURVE",
"801 649 OFFCURVE",
"846 650 CURVE SMOOTH",
"863 651 OFFCURVE",
"867 626 OFFCURVE",
"862 614 CURVE SMOOTH",
"860 608 OFFCURVE",
"854 606 OFFCURVE",
"851 606 CURVE SMOOTH",
"820 603 OFFCURVE",
"791 608 OFFCURVE",
"791 570 CURVE SMOOTH",
"791 554 OFFCURVE",
"792 544 OFFCURVE",
"793 529 CURVE SMOOTH",
"820 139 LINE SMOOTH",
"826 49 OFFCURVE",
"838 43 OFFCURVE",
"890 43 CURVE SMOOTH",
"902 43 OFFCURVE",
"910 43 OFFCURVE",
"913 28 CURVE SMOOTH",
"914 22 OFFCURVE",
"913 16 OFFCURVE",
"913 10 CURVE SMOOTH",
"911 1 OFFCURVE",
"905 -3 OFFCURVE",
"893 -3 CURVE SMOOTH",
"844 0 OFFCURVE",
"710 -1 OFFCURVE",
"645 -2 CURVE SMOOTH",
"630 -2 OFFCURVE",
"625 1 OFFCURVE",
"623 9 CURVE SMOOTH",
"621 15 OFFCURVE",
"622 23 OFFCURVE",
"623 30 CURVE SMOOTH",
"624 35 OFFCURVE",
"634 43 OFFCURVE",
"645 43 CURVE SMOOTH",
"716 43 OFFCURVE",
"720 67 OFFCURVE",
"714 134 CURVE SMOOTH",
"713 150 OFFCURVE",
"716 134 OFFCURVE",
"693 480 CURVE SMOOTH",
"693 488 OFFCURVE",
"686 499 OFFCURVE",
"683 490 CURVE SMOOTH",
"472 2 LINE SMOOTH",
"468 -8 OFFCURVE",
"435 -8 OFFCURVE",
"430 2 CURVE SMOOTH",
"215 487 LINE SMOOTH",
"210 498 OFFCURVE",
"205 499 OFFCURVE"
);
}
);
width = 942;
}
);
unicode = 004D;
},
{
glyphname = N;
lastChange = "2017-10-06 16:36:12 +0000";
layers = (
{
layerId = "92E73F40-5E0C-43C4-B728-1A2B58992D44";
paths = (
{
closed = 1;
nodes = (
"786 607 CURVE SMOOTH",
"713 605 OFFCURVE",
"710 602 OFFCURVE",
"710 529 CURVE SMOOTH",
"710 9 LINE SMOOTH",
"710 -18 OFFCURVE",
"663 -13 OFFCURVE",
"655 -4 CURVE SMOOTH",
"490 184 OFFCURVE",
"364 330 OFFCURVE",
"216 498 CURVE SMOOTH",
"211 503 OFFCURVE",
"198 515 OFFCURVE",
"198 505 CURVE SMOOTH",
"198 142 LINE SMOOTH",
"198 122 OFFCURVE",
"197 96 OFFCURVE",
"203 77 CURVE SMOOTH",
"209 60 OFFCURVE",
"220 50 OFFCURVE",
"245 48 CURVE SMOOTH",
"257 47 OFFCURVE",
"294 52 OFFCURVE",
"300 38 CURVE SMOOTH",
"306 23 OFFCURVE",
"304 -3 OFFCURVE",
"283 -3 CURVE SMOOTH",
"222 -2 OFFCURVE",
"112 -1 OFFCURVE",
"52 -4 CURVE SMOOTH",
"47 -4 OFFCURVE",
"40 1 OFFCURVE",
"37 8 CURVE SMOOTH",
"31 22 OFFCURVE",
"34 44 OFFCURVE",
"57 44 CURVE SMOOTH",
"118 44 OFFCURVE",
"126 74 OFFCURVE",
"126 96 CURVE SMOOTH",
"126 590 LINE",
"109 601 OFFCURVE",
"84 606 OFFCURVE",
"49 607 CURVE SMOOTH",
"42 607 OFFCURVE",
"40 619 OFFCURVE",
"40 630 CURVE SMOOTH",
"40 646 OFFCURVE",
"49 650 OFFCURVE",
"61 651 CURVE SMOOTH",
"116 654 OFFCURVE",
"168 650 OFFCURVE",
"202 651 CURVE SMOOTH",
"209 651 OFFCURVE",
"223 645 OFFCURVE",
"230 637 CURVE SMOOTH",
"630 181 LINE SMOOTH",
"633 176 OFFCURVE",
"640 189 OFFCURVE",
"640 197 CURVE SMOOTH",
"640 512 LINE SMOOTH",
"640 562 OFFCURVE",
"640 581 OFFCURVE",
"629 590 CURVE SMOOTH",
"624 595 OFFCURVE",
"617 599 OFFCURVE",
"605 601 CURVE SMOOTH",
"591 603 OFFCURVE",
"573 603 OFFCURVE",
"551 605 CURVE SMOOTH",
"533 606 OFFCURVE",
"529 652 OFFCURVE",
"551 651 CURVE SMOOTH",
"628 648 OFFCURVE",
"704 650 OFFCURVE",
"794 652 CURVE SMOOTH",
"804 652 OFFCURVE",
"805 634 OFFCURVE",
"805 627 CURVE SMOOTH",
"806 611 OFFCURVE",
"800 607 OFFCURVE"
);
}
);
width = 834;
}
);
unicode = 004E;
},
{
glyphname = Ntilde;
lastChange = "2017-10-06 16:36:12 +0000";
layers = (
{
layerId = "92E73F40-5E0C-43C4-B728-1A2B58992D44";
paths = (
{
closed = 1;
nodes = (
"568 839 CURVE SMOOTH",
"568 767 OFFCURVE",
"526 711 OFFCURVE",
"465 711 CURVE SMOOTH",
"437 711 OFFCURVE",
"405 725 OFFCURVE",
"368 751 CURVE SMOOTH",
"331 776 OFFCURVE",
"324 778 OFFCURVE",
"313 778 CURVE SMOOTH",
"299 778 OFFCURVE",
"290 771 OFFCURVE",
"282 737 CURVE SMOOTH",
"282 731 OFFCURVE",
"280 724 OFFCURVE",
"279 718 CURVE SMOOTH",
"273 707 OFFCURVE",
"245 701 OFFCURVE",
"242 720 CURVE SMOOTH",
"246 805 OFFCURVE",
"279 858 OFFCURVE",
"343 858 CURVE SMOOTH",
"374 858 OFFCURVE",
"398 848 OFFCURVE",
"442 818 CURVE SMOOTH",
"472 797 OFFCURVE",
"487 792 OFFCURVE",
"497 792 CURVE SMOOTH",
"512 792 OFFCURVE",
"523 799 OFFCURVE",
"531 852 CURVE SMOOTH",
"531 858 OFFCURVE",
"540 863 OFFCURVE",
"548 863 CURVE SMOOTH",
"554 864 OFFCURVE",
"565 861 OFFCURVE",
"566 852 CURVE SMOOTH",
"568 846 OFFCURVE",
"568 842 OFFCURVE"
);
},
{
closed = 1;
nodes = (
"786 607 CURVE SMOOTH",
"713 605 OFFCURVE",
"710 602 OFFCURVE",
"710 529 CURVE SMOOTH",
"710 9 LINE SMOOTH",
"710 -18 OFFCURVE",
"663 -13 OFFCURVE",
"655 -4 CURVE SMOOTH",
"490 184 OFFCURVE",
"364 330 OFFCURVE",
"216 498 CURVE SMOOTH",
"211 503 OFFCURVE",
"198 515 OFFCURVE",
"198 505 CURVE SMOOTH",
"198 142 LINE SMOOTH",
"198 122 OFFCURVE",
"197 96 OFFCURVE",
"203 77 CURVE SMOOTH",
"209 60 OFFCURVE",
"220 50 OFFCURVE",
"245 48 CURVE SMOOTH",
"257 47 OFFCURVE",
"294 52 OFFCURVE",
"300 38 CURVE SMOOTH",
"306 23 OFFCURVE",
"304 -3 OFFCURVE",
"283 -3 CURVE SMOOTH",
"222 -2 OFFCURVE",
"112 -1 OFFCURVE",
"52 -4 CURVE SMOOTH",
"47 -4 OFFCURVE",
"40 1 OFFCURVE",
"37 8 CURVE SMOOTH",
"31 22 OFFCURVE",
"34 44 OFFCURVE",
"57 44 CURVE SMOOTH",
"118 44 OFFCURVE",
"126 74 OFFCURVE",
"126 96 CURVE SMOOTH",
"126 590 LINE",
"109 601 OFFCURVE",
"84 606 OFFCURVE",
"49 607 CURVE SMOOTH",
"42 607 OFFCURVE",
"40 619 OFFCURVE",
"40 630 CURVE SMOOTH",
"40 646 OFFCURVE",
"49 650 OFFCURVE",
"61 651 CURVE SMOOTH",
"116 654 OFFCURVE",
"168 650 OFFCURVE",
"202 651 CURVE SMOOTH",
"209 651 OFFCURVE",
"223 645 OFFCURVE",
"230 637 CURVE SMOOTH",
"630 181 LINE SMOOTH",
"633 176 OFFCURVE",
"640 189 OFFCURVE",
"640 197 CURVE SMOOTH",
"640 512 LINE SMOOTH",
"640 562 OFFCURVE",
"640 581 OFFCURVE",
"629 590 CURVE SMOOTH",
"624 595 OFFCURVE",
"617 599 OFFCURVE",
"605 601 CURVE SMOOTH",
"591 603 OFFCURVE",
"573 603 OFFCURVE",
"551 605 CURVE SMOOTH",
"533 606 OFFCURVE",
"529 652 OFFCURVE",
"551 651 CURVE SMOOTH",
"628 648 OFFCURVE",
"704 650 OFFCURVE",
"794 652 CURVE SMOOTH",
"804 652 OFFCURVE",
"805 634 OFFCURVE",
"805 627 CURVE SMOOTH",
"806 611 OFFCURVE",
"800 607 OFFCURVE"
);
}
);
width = 834;
}
);
unicode = 00D1;
},
{
glyphname = O;
lastChange = "2017-10-06 16:36:12 +0000";
layers = (
{
layerId = "92E73F40-5E0C-43C4-B728-1A2B58992D44";
paths = (
{
closed = 1;
nodes = (
"413 -19 CURVE SMOOTH",
"205 -19 OFFCURVE",
"50 125 OFFCURVE",
"50 312 CURVE SMOOTH",
"50 515 OFFCURVE",
"202 667 OFFCURVE",
"415 667 CURVE SMOOTH",
"623 667 OFFCURVE",
"772 527 OFFCURVE",
"772 339 CURVE SMOOTH",
"772 138 OFFCURVE",
"619 -19 OFFCURVE"
);
},
{
closed = 1;
nodes = (
"387 619 CURVE SMOOTH",
"256 619 OFFCURVE",
"171 506 OFFCURVE",
"171 338 CURVE SMOOTH",
"171 162 OFFCURVE",
"278 30 OFFCURVE",
"430 30 CURVE SMOOTH",
"598 30 OFFCURVE",
"651 160 OFFCURVE",
"651 309 CURVE SMOOTH",
"651 491 OFFCURVE",
"546 619 OFFCURVE"
);
}
);
width = 827;
}
);
unicode = 004F;
},
{
glyphname = Oacute;
lastChange = "2017-10-06 16:36:12 +0000";
layers = (
{
layerId = "92E73F40-5E0C-43C4-B728-1A2B58992D44";
paths = (
{
closed = 1;
nodes = (
"544 861 CURVE SMOOTH",
"403 691 LINE SMOOTH",
"395 682 OFFCURVE",
"363 683 OFFCURVE",
"369 705 CURVE SMOOTH",
"418 867 LINE SMOOTH",
"421 878 OFFCURVE",
"432 884 OFFCURVE",
"440 884 CURVE SMOOTH",
"512 885 OFFCURVE",
"551 892 OFFCURVE",
"546 869 CURVE SMOOTH",
"546 866 OFFCURVE",
"546 863 OFFCURVE"
);
},
{
closed = 1;
nodes = (
"413 -19 CURVE SMOOTH",
"205 -19 OFFCURVE",
"50 125 OFFCURVE",
"50 312 CURVE SMOOTH",
"50 515 OFFCURVE",
"202 667 OFFCURVE",
"415 667 CURVE SMOOTH",
"623 667 OFFCURVE",
"772 527 OFFCURVE",
"772 339 CURVE SMOOTH",
"772 138 OFFCURVE",
"619 -19 OFFCURVE"
);
},
{
closed = 1;
nodes = (
"387 619 CURVE SMOOTH",
"256 619 OFFCURVE",
"171 506 OFFCURVE",
"171 338 CURVE SMOOTH",
"171 162 OFFCURVE",
"278 30 OFFCURVE",
"430 30 CURVE SMOOTH",
"598 30 OFFCURVE",
"651 160 OFFCURVE",
"651 309 CURVE SMOOTH",
"651 491 OFFCURVE",
"546 619 OFFCURVE"
);
}
);
width = 827;
}
);
unicode = 00D3;
},
{
glyphname = Ocircumflex;
lastChange = "2017-10-06 16:36:12 +0000";
layers = (
{
layerId = "92E73F40-5E0C-43C4-B728-1A2B58992D44";
paths = (
{
closed = 1;
nodes = (
"543 691 CURVE SMOOTH",
"427 790 LINE",
"317 691 LINE SMOOTH",
"305 680 OFFCURVE",
"277 689 OFFCURVE",
"285 703 CURVE SMOOTH",
"373 857 LINE SMOOTH",
"377 864 OFFCURVE",
"383 868 OFFCURVE",
"389 870 CURVE SMOOTH",
"397 871 OFFCURVE",
"452 872 OFFCURVE",
"465 871 CURVE SMOOTH",
"476 870 OFFCURVE",
"480 868 OFFCURVE",
"486 858 CURVE SMOOTH",
"571 708 LINE SMOOTH",
"576 700 OFFCURVE",
"577 690 OFFCURVE",
"568 687 CURVE SMOOTH",
"562 686 OFFCURVE",
"548 685 OFFCURVE"
);
},
{
closed = 1;
nodes = (
"413 -19 CURVE SMOOTH",
"205 -19 OFFCURVE",
"50 125 OFFCURVE",
"50 312 CURVE SMOOTH",
"50 515 OFFCURVE",
"202 667 OFFCURVE",
"415 667 CURVE SMOOTH",
"623 667 OFFCURVE",
"772 527 OFFCURVE",
"772 339 CURVE SMOOTH",
"772 138 OFFCURVE",
"619 -19 OFFCURVE"
);
},
{
closed = 1;
nodes = (
"387 619 CURVE SMOOTH",
"256 619 OFFCURVE",
"171 506 OFFCURVE",
"171 338 CURVE SMOOTH",
"171 162 OFFCURVE",
"278 30 OFFCURVE",
"430 30 CURVE SMOOTH",
"598 30 OFFCURVE",
"651 160 OFFCURVE",
"651 309 CURVE SMOOTH",
"651 491 OFFCURVE",
"546 619 OFFCURVE"
);
}
);
width = 827;
}
);
unicode = 00D4;
},
{
glyphname = Odieresis;
lastChange = "2017-10-06 16:36:12 +0000";
layers = (
{
layerId = "92E73F40-5E0C-43C4-B728-1A2B58992D44";
paths = (
{
closed = 1;
nodes = (
"502 695 CURVE SMOOTH",
"466 695 OFFCURVE",
"437 724 OFFCURVE",
"437 759 CURVE SMOOTH",
"437 795 OFFCURVE",
"466 824 OFFCURVE",
"502 824 CURVE SMOOTH",
"538 824 OFFCURVE",
"567 795 OFFCURVE",
"567 759 CURVE SMOOTH",
"567 724 OFFCURVE",
"538 695 OFFCURVE"
);
},
{
closed = 1;
nodes = (
"327 695 CURVE SMOOTH",
"292 695 OFFCURVE",
"262 723 OFFCURVE",
"262 759 CURVE SMOOTH",
"262 795 OFFCURVE",
"292 824 OFFCURVE",
"327 824 CURVE SMOOTH",
"363 824 OFFCURVE",
"392 795 OFFCURVE",
"392 759 CURVE SMOOTH",
"392 723 OFFCURVE",
"363 695 OFFCURVE"
);
},
{
closed = 1;
nodes = (
"413 -19 CURVE SMOOTH",
"205 -19 OFFCURVE",
"50 125 OFFCURVE",
"50 312 CURVE SMOOTH",
"50 515 OFFCURVE",
"202 667 OFFCURVE",
"415 667 CURVE SMOOTH",
"623 667 OFFCURVE",
"772 527 OFFCURVE",
"772 339 CURVE SMOOTH",
"772 138 OFFCURVE",
"619 -19 OFFCURVE"
);
},
{
closed = 1;
nodes = (
"387 619 CURVE SMOOTH",
"256 619 OFFCURVE",
"171 506 OFFCURVE",
"171 338 CURVE SMOOTH",
"171 162 OFFCURVE",
"278 30 OFFCURVE",
"430 30 CURVE SMOOTH",
"598 30 OFFCURVE",
"651 160 OFFCURVE",
"651 309 CURVE SMOOTH",
"651 491 OFFCURVE",
"546 619 OFFCURVE"
);
}
);
width = 827;
}
);
unicode = 00D6;
},
{
glyphname = Ograve;
lastChange = "2017-10-06 16:36:12 +0000";
layers = (
{
layerId = "92E73F40-5E0C-43C4-B728-1A2B58992D44";
paths = (
{
closed = 1;
nodes = (
"454 696 CURVE SMOOTH",
"423 738 OFFCURVE",
"365 806 OFFCURVE",
"322 852 CURVE SMOOTH",
"311 864 OFFCURVE",
"328 880 OFFCURVE",
"341 880 CURVE SMOOTH",
"416 881 LINE SMOOTH",
"427 881 OFFCURVE",
"435 880 OFFCURVE",
"440 870 CURVE SMOOTH",
"456 825 OFFCURVE",
"478 751 OFFCURVE",
"489 707 CURVE",
"489 685 OFFCURVE",
"463 689 OFFCURVE"
);
},
{
closed = 1;
nodes = (
"413 -19 CURVE SMOOTH",
"205 -19 OFFCURVE",
"50 125 OFFCURVE",
"50 312 CURVE SMOOTH",
"50 515 OFFCURVE",
"202 667 OFFCURVE",
"415 667 CURVE SMOOTH",
"623 667 OFFCURVE",
"772 527 OFFCURVE",
"772 339 CURVE SMOOTH",
"772 138 OFFCURVE",
"619 -19 OFFCURVE"
);
},
{
closed = 1;
nodes = (
"387 619 CURVE SMOOTH",
"256 619 OFFCURVE",
"171 506 OFFCURVE",
"171 338 CURVE SMOOTH",
"171 162 OFFCURVE",
"278 30 OFFCURVE",
"430 30 CURVE SMOOTH",
"598 30 OFFCURVE",
"651 160 OFFCURVE",
"651 309 CURVE SMOOTH",
"651 491 OFFCURVE",
"546 619 OFFCURVE"
);
}
);
width = 827;
}
);
unicode = 00D2;
},
{
glyphname = Oslash;
lastChange = "2017-10-06 16:36:12 +0000";
layers = (
{
layerId = "92E73F40-5E0C-43C4-B728-1A2B58992D44";
paths = (
{
closed = 1;
nodes = (
"429 -22 CURVE SMOOTH",
"356 -22 OFFCURVE",
"283 -3 OFFCURVE",
"221 31 CURVE SMOOTH",
"214 35 OFFCURVE",
"203 31 OFFCURVE",
"196 22 CURVE SMOOTH",
"126 -60 LINE SMOOTH",
"112 -76 OFFCURVE",
"106 -73 OFFCURVE",
"93 -62 CURVE SMOOTH",
"83 -54 OFFCURVE",
"79 -45 OFFCURVE",
"89 -34 CURVE SMOOTH",
"159 45 LINE SMOOTH",
"166 52 OFFCURVE",
"172 63 OFFCURVE",
"164 70 CURVE SMOOTH",
"91 132 OFFCURVE",
"48 219 OFFCURVE",
"48 317 CURVE SMOOTH",
"48 520 OFFCURVE",
"216 675 OFFCURVE",
"432 675 CURVE SMOOTH",
"509 675 OFFCURVE",
"580 658 OFFCURVE",
"646 618 CURVE SMOOTH",
"650 615 OFFCURVE",
"658 620 OFFCURVE",
"664 628 CURVE SMOOTH",
"720 696 LINE SMOOTH",
"724 700 OFFCURVE",
"734 706 OFFCURVE",
"745 698 CURVE SMOOTH",
"753 692 LINE SMOOTH",
"764 683 OFFCURVE",
"759 672 OFFCURVE",
"749 661 CURVE SMOOTH",
"700 605 LINE SMOOTH",
"696 600 OFFCURVE",
"688 589 OFFCURVE",
"695 583 CURVE SMOOTH",
"770 518 OFFCURVE",
"807 441 OFFCURVE",
"807 342 CURVE SMOOTH",
"807 136 OFFCURVE",
"641 -22 OFFCURVE"
);
},
{
closed = 1;
nodes = (
"403 627 CURVE SMOOTH",
"268 627 OFFCURVE",
"170 513 OFFCURVE",
"170 344 CURVE SMOOTH",
"170 268 OFFCURVE",
"189 199 OFFCURVE",
"226 145 CURVE SMOOTH",
"234 134 OFFCURVE",
"239 136 OFFCURVE",
"252 152 CURVE SMOOTH",
"338 256 OFFCURVE",
"491 437 OFFCURVE",
"578 532 CURVE SMOOTH",
"584 538 OFFCURVE",
"595 552 OFFCURVE",
"588 558 CURVE SMOOTH",
"539 604 OFFCURVE",
"475 627 OFFCURVE"
);
},
{
closed = 1;
nodes = (
"610 500 CURVE SMOOTH",
"523 400 OFFCURVE",
"364 215 OFFCURVE",
"279 115 CURVE SMOOTH",
"272 107 OFFCURVE",
"272 93 OFFCURVE",
"276 89 CURVE SMOOTH",
"327 46 OFFCURVE",
"383 27 OFFCURVE",
"447 27 CURVE SMOOTH",
"528 27 OFFCURVE",
"583 54 OFFCURVE",
"629 119 CURVE SMOOTH",
"703 226 OFFCURVE",
"705 394 OFFCURVE",
"634 505 CURVE SMOOTH",
"628 515 OFFCURVE",
"618 510 OFFCURVE"
);
}
);
width = 851;
}
);
unicode = 00D8;
},
{
glyphname = Otilde;
lastChange = "2017-10-06 16:36:12 +0000";
layers = (
{
layerId = "92E73F40-5E0C-43C4-B728-1A2B58992D44";
paths = (
{
closed = 1;
nodes = (
"473 701 CURVE SMOOTH",
"446 701 OFFCURVE",
"413 714 OFFCURVE",
"377 738 CURVE SMOOTH",
"340 762 OFFCURVE",
"333 766 OFFCURVE",
"323 766 CURVE SMOOTH",
"308 766 OFFCURVE",
"300 760 OFFCURVE",
"292 727 CURVE SMOOTH",
"292 721 OFFCURVE",
"290 715 OFFCURVE",
"289 710 CURVE SMOOTH",
"283 698 OFFCURVE",
"255 693 OFFCURVE",
"252 711 CURVE SMOOTH",
"256 792 OFFCURVE",
"289 842 OFFCURVE",
"352 842 CURVE SMOOTH",
"383 842 OFFCURVE",
"406 833 OFFCURVE",
"450 804 CURVE SMOOTH",
"480 784 OFFCURVE",
"494 779 OFFCURVE",
"504 779 CURVE SMOOTH",
"520 779 OFFCURVE",
"530 786 OFFCURVE",
"538 836 CURVE SMOOTH",
"539 842 OFFCURVE",
"547 846 OFFCURVE",
"555 846 CURVE SMOOTH",
"561 847 OFFCURVE",
"572 845 OFFCURVE",
"572 837 CURVE SMOOTH",
"574 831 OFFCURVE",
"574 826 OFFCURVE",
"574 824 CURVE SMOOTH",
"574 756 OFFCURVE",
"533 701 OFFCURVE"
);
},
{
closed = 1;
nodes = (
"413 -19 CURVE SMOOTH",
"205 -19 OFFCURVE",
"50 125 OFFCURVE",
"50 312 CURVE SMOOTH",
"50 515 OFFCURVE",
"202 667 OFFCURVE",
"415 667 CURVE SMOOTH",
"623 667 OFFCURVE",
"772 527 OFFCURVE",
"772 339 CURVE SMOOTH",
"772 138 OFFCURVE",
"619 -19 OFFCURVE"
);
},
{
closed = 1;
nodes = (
"387 619 CURVE SMOOTH",
"256 619 OFFCURVE",
"171 506 OFFCURVE",
"171 338 CURVE SMOOTH",
"171 162 OFFCURVE",
"278 30 OFFCURVE",
"430 30 CURVE SMOOTH",
"598 30 OFFCURVE",
"651 160 OFFCURVE",
"651 309 CURVE SMOOTH",
"651 491 OFFCURVE",
"546 619 OFFCURVE"
);
}
);
width = 827;
}
);
unicode = 00D5;
},
{
glyphname = OE;
lastChange = "2017-10-06 16:36:12 +0000";
layers = (
{
layerId = "92E73F40-5E0C-43C4-B728-1A2B58992D44";
paths = (
{
closed = 1;
nodes = (
"979 19 CURVE SMOOTH",
"976 -4 OFFCURVE",
"960 -4 OFFCURVE",
"942 -4 CURVE SMOOTH",
"823 -4 OFFCURVE",
"713 -3 OFFCURVE",
"593 -3 CURVE SMOOTH",
"526 -3 OFFCURVE",
"460 -12 OFFCURVE",
"394 -12 CURVE SMOOTH",
"208 -12 OFFCURVE",
"54 135 OFFCURVE",
"54 321 CURVE SMOOTH",
"54 454 OFFCURVE",
"133 574 OFFCURVE",
"248 630 CURVE SMOOTH",
"297 654 OFFCURVE",
"346 664 OFFCURVE",
"418 664 CURVE SMOOTH",
"456 664 OFFCURVE",
"492 662 OFFCURVE",
"528 660 CURVE SMOOTH",
"562 658 OFFCURVE",
"574 657 OFFCURVE",
"584 657 CURVE SMOOTH",
"595 657 OFFCURVE",
"606 658 OFFCURVE",
"638 658 CURVE SMOOTH",
"922 658 LINE SMOOTH",
"940 658 OFFCURVE",
"945 654 OFFCURVE",
"947 636 CURVE SMOOTH",
"949 624 OFFCURVE",
"959 516 OFFCURVE",
"953 503 CURVE SMOOTH",
"950 498 OFFCURVE",
"946 497 OFFCURVE",
"940 497 CURVE SMOOTH",
"926 497 OFFCURVE",
"918 490 OFFCURVE",
"913 511 CURVE SMOOTH",
"908 530 LINE SMOOTH",
"892 594 OFFCURVE",
"885 599 OFFCURVE",
"835 599 CURVE SMOOTH",
"677 599 LINE SMOOTH",
"676 599 OFFCURVE",
"651 594 OFFCURVE",
"651 583 CURVE SMOOTH",
"651 384 LINE SMOOTH",
"651 372 OFFCURVE",
"668 368 OFFCURVE",
"674 368 CURVE SMOOTH",
"789 368 LINE SMOOTH",
"827 368 OFFCURVE",
"840 371 OFFCURVE",
"848 378 CURVE SMOOTH",
"858 389 OFFCURVE",
"862 418 OFFCURVE",
"864 432 CURVE SMOOTH",
"864 437 OFFCURVE",
"867 448 OFFCURVE",
"879 448 CURVE SMOOTH",
"893 448 LINE SMOOTH",
"905 448 OFFCURVE",
"905 440 OFFCURVE",
"906 432 CURVE SMOOTH",
"908 379 OFFCURVE",
"907 301 OFFCURVE",
"906 249 CURVE SMOOTH",
"906 241 OFFCURVE",
"904 228 OFFCURVE",
"893 228 CURVE SMOOTH",
"879 228 LINE SMOOTH",
"868 228 OFFCURVE",
"864 238 OFFCURVE",
"864 248 CURVE SMOOTH",
"859 302 OFFCURVE",
"848 309 OFFCURVE",
"798 309 CURVE SMOOTH",
"665 309 LINE SMOOTH",
"657 309 OFFCURVE",
"651 284 OFFCURVE",
"651 279 CURVE SMOOTH",
"651 76 LINE SMOOTH",
"651 68 OFFCURVE",
"661 55 OFFCURVE",
"673 55 CURVE SMOOTH",
"814 55 LINE SMOOTH",
"891 55 OFFCURVE",
"902 59 OFFCURVE",
"920 81 CURVE SMOOTH",
"935 100 OFFCURVE",
"949 133 OFFCURVE",
"953 156 CURVE SMOOTH",
"954 167 OFFCURVE",
"958 169 OFFCURVE",
"969 169 CURVE SMOOTH",
"980 169 LINE SMOOTH",
"991 169 OFFCURVE",
"994 163 OFFCURVE",
"993 148 CURVE SMOOTH",
"993 108 OFFCURVE",
"984 55 OFFCURVE"
);
},
{
closed = 1;
nodes = (
"539 507 LINE SMOOTH",
"539 581 OFFCURVE",
"500 618 OFFCURVE",
"405 618 CURVE SMOOTH",
"260 618 OFFCURVE",
"174 517 OFFCURVE",
"174 341 CURVE SMOOTH",
"174 166 OFFCURVE",
"279 37 OFFCURVE",
"413 37 CURVE SMOOTH",
"449 37 OFFCURVE",
"477 47 OFFCURVE",
"501 65 CURVE SMOOTH",
"533 89 OFFCURVE",
"539 107 OFFCURVE",
"539 228 CURVE SMOOTH"
);
}
);
width = 1036;
}
);
unicode = 0152;
},
{
glyphname = P;
lastChange = "2017-10-06 16:36:12 +0000";
layers = (
{
layerId = "92E73F40-5E0C-43C4-B728-1A2B58992D44";
paths = (
{
closed = 1;
nodes = (
"38 609 LINE SMOOTH",
"33 609 OFFCURVE",
"26 618 OFFCURVE",
"25 628 CURVE SMOOTH",
"25 639 OFFCURVE",
"30 649 OFFCURVE",
"38 650 CURVE SMOOTH",
"116 659 OFFCURVE",
"187 659 OFFCURVE",
"263 659 CURVE SMOOTH",
"332 659 OFFCURVE",
"356 656 OFFCURVE",
"395 646 CURVE SMOOTH",
"482 623 OFFCURVE",
"539 554 OFFCURVE",
"539 470 CURVE SMOOTH",
"539 343 OFFCURVE",
"444 265 OFFCURVE",
"288 265 CURVE SMOOTH",
"267 265 OFFCURVE",
"260 266 OFFCURVE",
"246 268 CURVE SMOOTH",
"240 269 OFFCURVE",
"237 268 OFFCURVE",
"236 253 CURVE SMOOTH",
"236 103 LINE SMOOTH",
"236 37 OFFCURVE",
"272 45 OFFCURVE",
"321 48 CURVE SMOOTH",
"342 50 OFFCURVE",
"357 43 OFFCURVE",
"355 18 CURVE SMOOTH",
"354 4 OFFCURVE",
"346 -6 OFFCURVE",
"337 -5 CURVE SMOOTH",
"261 -2 OFFCURVE",
"135 -2 OFFCURVE",
"66 -4 CURVE SMOOTH",
"58 -4 OFFCURVE",
"49 -4 OFFCURVE",
"44 3 CURVE SMOOTH",
"43 5 LINE SMOOTH",
"41 9 OFFCURVE",
"39 14 OFFCURVE",
"40 20 CURVE SMOOTH",
"41 44 OFFCURVE",
"60 47 OFFCURVE",
"74 47 CURVE SMOOTH",
"120 47 OFFCURVE",
"127 50 OFFCURVE",
"127 82 CURVE SMOOTH",
"127 536 LINE SMOOTH",
"127 599 OFFCURVE",
"121 610 OFFCURVE",
"87 610 CURVE SMOOTH"
);
},
{
closed = 1;
nodes = (
"359 600 CURVE SMOOTH",
"327 618 OFFCURVE",
"287 620 OFFCURVE",
"252 616 CURVE SMOOTH",
"237 614 OFFCURVE",
"236 602 OFFCURVE",
"236 596 CURVE SMOOTH",
"236 332 LINE SMOOTH",
"236 325 OFFCURVE",
"240 313 OFFCURVE",
"251 310 CURVE SMOOTH",
"266 307 OFFCURVE",
"266 307 OFFCURVE",
"282 307 CURVE SMOOTH",
"379 307 OFFCURVE",
"423 372 OFFCURVE",
"423 472 CURVE SMOOTH",
"423 534 OFFCURVE",
"398 580 OFFCURVE"
);
}
);
width = 577;
}
);
unicode = 0050;
},
{
glyphname = Thorn;
lastChange = "2017-10-06 16:36:12 +0000";
layers = (
{
layerId = "92E73F40-5E0C-43C4-B728-1A2B58992D44";
paths = (
{
closed = 1;
nodes = (
"299 137 CURVE SMOOTH",
"274 137 OFFCURVE",
"254 137 OFFCURVE",
"229 142 CURVE SMOOTH",
"225 142 OFFCURVE",
"226 129 OFFCURVE",
"226 127 CURVE SMOOTH",
"225 109 OFFCURVE",
"226 110 OFFCURVE",
"226 102 CURVE SMOOTH",
"226 51 OFFCURVE",
"239 39 OFFCURVE",
"296 39 CURVE SMOOTH",
"297 39 OFFCURVE",
"307 40 OFFCURVE",
"317 39 CURVE SMOOTH",
"329 38 OFFCURVE",
"342 33 OFFCURVE",
"342 24 CURVE SMOOTH",
"343 12 OFFCURVE",
"344 -5 OFFCURVE",
"321 -4 CURVE SMOOTH",
"254 -2 OFFCURVE",
"123 -2 OFFCURVE",
"55 -5 CURVE SMOOTH",
"44 -5 OFFCURVE",
"32 -4 OFFCURVE",
"34 13 CURVE SMOOTH",
"37 30 OFFCURVE",
"40 37 OFFCURVE",
"61 37 CURVE SMOOTH",
"102 37 OFFCURVE",
"106 43 OFFCURVE",
"110 50 CURVE SMOOTH",
"114 57 OFFCURVE",
"116 62 OFFCURVE",
"116 81 CURVE SMOOTH",
"116 129 LINE",
"116 541 LINE SMOOTH",
"116 581 OFFCURVE",
"115 597 OFFCURVE",
"110 606 CURVE SMOOTH",
"106 612 OFFCURVE",
"101 613 OFFCURVE",
"92 614 CURVE SMOOTH",
"76 619 OFFCURVE",
"41 614 OFFCURVE",
"31 618 CURVE SMOOTH",
"23 620 OFFCURVE",
"19 625 OFFCURVE",
"19 635 CURVE SMOOTH",
"19 644 LINE SMOOTH",
"19 658 OFFCURVE",
"29 659 OFFCURVE",
"38 659 CURVE SMOOTH",
"92 658 OFFCURVE",
"221 656 OFFCURVE",
"286 658 CURVE SMOOTH",
"300 659 OFFCURVE",
"306 655 OFFCURVE",
"306 644 CURVE SMOOTH",
"306 633 LINE SMOOTH",
"306 622 OFFCURVE",
"302 618 OFFCURVE",
"298 617 CURVE SMOOTH",
"297 616 OFFCURVE",
"294 616 OFFCURVE",
"291 616 CURVE SMOOTH",
"275 616 OFFCURVE",
"240 617 OFFCURVE",
"232 604 CURVE SMOOTH",
"223 589 OFFCURVE",
"226 566 OFFCURVE",
"226 550 CURVE SMOOTH",
"226 545 OFFCURVE",
"233 536 OFFCURVE",
"240 537 CURVE SMOOTH",
"297 537 OFFCURVE",
"354 536 OFFCURVE",
"410 522 CURVE SMOOTH",
"495 501 OFFCURVE",
"554 435 OFFCURVE",
"554 345 CURVE SMOOTH",
"554 216 OFFCURVE",
"454 137 OFFCURVE"
);
},
{
closed = 1;
nodes = (
"374 478 CURVE SMOOTH",
"336 498 OFFCURVE",
"285 501 OFFCURVE",
"243 496 CURVE SMOOTH",
"237 494 OFFCURVE",
"226 492 OFFCURVE",
"226 483 CURVE SMOOTH",
"226 201 LINE SMOOTH",
"226 189 OFFCURVE",
"230 184 OFFCURVE",
"234 183 CURVE SMOOTH",
"246 181 OFFCURVE",
"256 180 OFFCURVE",
"271 180 CURVE SMOOTH",
"370 180 OFFCURVE",
"436 247 OFFCURVE",
"436 348 CURVE SMOOTH",
"436 409 OFFCURVE",
"413 457 OFFCURVE"
);
}
);
width = 589;
}
);
unicode = 00DE;
},
{
glyphname = Q;
lastChange = "2017-10-06 16:36:12 +0000";
layers = (
{
layerId = "92E73F40-5E0C-43C4-B728-1A2B58992D44";
paths = (
{
closed = 1;
nodes = (
"528 -8 CURVE SMOOTH",
"572 -29 OFFCURVE",
"611 -61 OFFCURVE",
"647 -92 CURVE SMOOTH",
"707 -143 OFFCURVE",
"739 -158 OFFCURVE",
"801 -161 CURVE",
"820 -166 OFFCURVE",
"796 -203 OFFCURVE",
"780 -207 CURVE SMOOTH",
"761 -211 OFFCURVE",
"748 -213 OFFCURVE",
"729 -213 CURVE SMOOTH",
"636 -213 OFFCURVE",
"558 -159 OFFCURVE",
"492 -103 CURVE SMOOTH",
"455 -72 OFFCURVE",
"438 -55 OFFCURVE",
"423 -44 CURVE SMOOTH",
"409 -34 OFFCURVE",
"398 -29 OFFCURVE",
"375 -20 CURVE",
"175 -2 OFFCURVE",
"43 133 OFFCURVE",
"43 313 CURVE SMOOTH",
"43 514 OFFCURVE",
"198 667 OFFCURVE",
"412 667 CURVE SMOOTH",
"622 667 OFFCURVE",
"763 526 OFFCURVE",
"763 338 CURVE SMOOTH",
"763 186 OFFCURVE",
"668 57 OFFCURVE",
"528 4 CURVE SMOOTH",
"522 1 OFFCURVE",
"520 -5 OFFCURVE"
);
},
{
closed = 1;
nodes = (
"385 619 CURVE SMOOTH",
"251 619 OFFCURVE",
"164 505 OFFCURVE",
"164 337 CURVE SMOOTH",
"164 159 OFFCURVE",
"273 25 OFFCURVE",
"426 25 CURVE SMOOTH",
"570 25 OFFCURVE",
"640 177 OFFCURVE",
"640 308 CURVE SMOOTH",
"640 492 OFFCURVE",
"543 619 OFFCURVE"
);
}
);
width = 822;
}
);
unicode = 0051;
},
{
glyphname = R;
lastChange = "2017-10-06 16:36:12 +0000";
layers = (
{
layerId = "92E73F40-5E0C-43C4-B728-1A2B58992D44";
paths = (
{
closed = 1;
nodes = (
"638 -15 CURVE SMOOTH",
"550 -15 OFFCURVE",
"513 16 OFFCURVE",
"487 47 CURVE SMOOTH",
"455 84 OFFCURVE",
"428 125 OFFCURVE",
"402 166 CURVE SMOOTH",
"386 191 OFFCURVE",
"374 218 OFFCURVE",
"360 244 CURVE SMOOTH",
"357 250 OFFCURVE",
"348 265 OFFCURVE",
"341 264 CURVE SMOOTH",
"308 261 OFFCURVE",
"280 260 OFFCURVE",
"246 261 CURVE SMOOTH",
"238 262 OFFCURVE",
"232 246 OFFCURVE",
"232 244 CURVE SMOOTH",
"232 193 OFFCURVE",
"232 154 OFFCURVE",
"233 103 CURVE SMOOTH",
"235 57 OFFCURVE",
"248 46 OFFCURVE",
"301 46 CURVE SMOOTH",
"314 47 OFFCURVE",
"333 51 OFFCURVE",
"339 33 CURVE SMOOTH",
"341 28 OFFCURVE",
"342 16 OFFCURVE",
"341 9 CURVE SMOOTH",
"339 0 OFFCURVE",
"331 -3 OFFCURVE",
"321 -3 CURVE SMOOTH",
"250 -3 OFFCURVE",
"119 2 OFFCURVE",
"47 -4 CURVE",
"31 -3 LINE SMOOTH",
"17 -2 OFFCURVE",
"16 21 OFFCURVE",
"20 33 CURVE SMOOTH",
"25 46 OFFCURVE",
"44 44 OFFCURVE",
"55 44 CURVE SMOOTH",
"111 44 OFFCURVE",
"122 59 OFFCURVE",
"122 103 CURVE SMOOTH",
"122 137 LINE",
"122 512 LINE SMOOTH",
"122 605 OFFCURVE",
"124 607 OFFCURVE",
"35 608 CURVE SMOOTH",
"16 608 OFFCURVE",
"18 643 OFFCURVE",
"34 651 CURVE",
"114 659 OFFCURVE",
"199 659 OFFCURVE",
"279 659 CURVE SMOOTH",
"402 659 OFFCURVE",
"547 618 OFFCURVE",
"547 469 CURVE SMOOTH",
"547 397 OFFCURVE",
"508 332 OFFCURVE",
"450 299 CURVE SMOOTH",
"445 296 OFFCURVE",
"444 289 OFFCURVE",
"451 279 CURVE SMOOTH",
"474 243 OFFCURVE",
"485 226 OFFCURVE",
"504 197 CURVE SMOOTH",
"559 114 LINE SMOOTH",
"581 82 OFFCURVE",
"588 74 OFFCURVE",
"620 50 CURVE SMOOTH",
"633 40 OFFCURVE",
"647 32 OFFCURVE",
"672 27 CURVE",
"682 19 OFFCURVE",
"686 5 OFFCURVE",
"677 -8 CURVE",
"666 -15 OFFCURVE",
"652 -15 OFFCURVE"
);
},
{
closed = 1;
nodes = (
"269 618 CURVE SMOOTH",
"256 618 OFFCURVE",
"232 616 OFFCURVE",
"232 600 CURVE SMOOTH",
"232 322 LINE SMOOTH",
"232 312 OFFCURVE",
"242 306 OFFCURVE",
"244 306 CURVE SMOOTH",
"275 304 OFFCURVE",
"308 302 OFFCURVE",
"331 309 CURVE SMOOTH",
"395 331 OFFCURVE",
"428 394 OFFCURVE",
"428 462 CURVE SMOOTH",
"428 554 OFFCURVE",
"396 618 OFFCURVE"
);
}
);
width = 696;
}
);
unicode = 0052;
},
{
glyphname = S;
lastChange = "2017-10-06 16:36:12 +0000";
layers = (
{
layerId = "92E73F40-5E0C-43C4-B728-1A2B58992D44";
paths = (
{
closed = 1;
nodes = (
"253 -19 CURVE SMOOTH",
"218 -19 OFFCURVE",
"184 -8 OFFCURVE",
"150 2 CURVE SMOOTH",
"130 8 OFFCURVE",
"127 9 OFFCURVE",
"123 9 CURVE SMOOTH",
"120 9 OFFCURVE",
"118 9 OFFCURVE",
"112 -1 CURVE",
"103 -5 OFFCURVE",
"93 -5 OFFCURVE",
"86 -3 CURVE SMOOTH",
"80 -2 OFFCURVE",
"78 4 OFFCURVE",
"77 8 CURVE SMOOTH",
"70 49 OFFCURVE",
"63 100 OFFCURVE",
"56 162 CURVE SMOOTH",
"54 175 OFFCURVE",
"87 179 OFFCURVE",
"94 170 CURVE SMOOTH",
"114 110 OFFCURVE",
"131 83 OFFCURVE",
"166 59 CURVE SMOOTH",
"194 39 OFFCURVE",
"211 32 OFFCURVE",
"244 32 CURVE SMOOTH",
"317 32 OFFCURVE",
"359 77 OFFCURVE",
"359 137 CURVE SMOOTH",
"359 217 OFFCURVE",
"272 264 OFFCURVE",
"214 303 CURVE SMOOTH",
"140 352 OFFCURVE",
"59 412 OFFCURVE",
"59 508 CURVE SMOOTH",
"59 601 OFFCURVE",
"133 667 OFFCURVE",
"239 667 CURVE SMOOTH",
"274 667 OFFCURVE",
"290 661 OFFCURVE",
"322 650 CURVE SMOOTH",
"343 643 OFFCURVE",
"351 641 OFFCURVE",
"356 641 CURVE SMOOTH",
"360 641 OFFCURVE",
"361 643 OFFCURVE",
"369 650 CURVE SMOOTH",
"376 652 OFFCURVE",
"385 652 OFFCURVE",
"392 651 CURVE SMOOTH",
"399 652 OFFCURVE",
"401 645 OFFCURVE",
"402 639 CURVE SMOOTH",
"413 554 OFFCURVE",
"417 525 OFFCURVE",
"418 511 CURVE SMOOTH",
"416 487 OFFCURVE",
"384 497 OFFCURVE",
"382 504 CURVE SMOOTH",
"352 578 OFFCURVE",
"311 620 OFFCURVE",
"248 620 CURVE SMOOTH",
"189 620 OFFCURVE",
"159 586 OFFCURVE",
"159 537 CURVE SMOOTH",
"159 472 OFFCURVE",
"240 422 OFFCURVE",
"287 390 CURVE SMOOTH",
"363 338 OFFCURVE",
"461 274 OFFCURVE",
"461 167 CURVE SMOOTH",
"461 60 OFFCURVE",
"376 -19 OFFCURVE"
);
}
);
width = 513;
}
);
unicode = 0053;
},
{
glyphname = Scaron;
lastChange = "2017-10-06 16:36:12 +0000";
layers = (
{
layerId = "92E73F40-5E0C-43C4-B728-1A2B58992D44";
paths = (
{
closed = 1;
nodes = (
"314 702 LINE SMOOTH",
"308 697 OFFCURVE",
"305 695 OFFCURVE",
"296 695 CURVE SMOOTH",
"222 695 LINE SMOOTH",
"211 695 OFFCURVE",
"203 699 OFFCURVE",
"200 706 CURVE SMOOTH",
"106 871 LINE SMOOTH",
"102 878 OFFCURVE",
"107 883 OFFCURVE",
"111 884 CURVE SMOOTH",
"113 886 OFFCURVE",
"117 886 OFFCURVE",
"121 886 CURVE SMOOTH",
"128 886 OFFCURVE",
"137 884 OFFCURVE",
"141 880 CURVE SMOOTH",
"267 779 LINE",
"374 880 LINE SMOOTH",
"379 883 OFFCURVE",
"387 885 OFFCURVE",
"392 885 CURVE SMOOTH",
"403 885 OFFCURVE",
"411 878 OFFCURVE",
"409 872 CURVE SMOOTH"
);
},
{
closed = 1;
nodes = (
"253 -19 CURVE SMOOTH",
"218 -19 OFFCURVE",
"184 -8 OFFCURVE",
"150 2 CURVE SMOOTH",
"130 8 OFFCURVE",
"127 9 OFFCURVE",
"123 9 CURVE SMOOTH",
"120 9 OFFCURVE",
"118 9 OFFCURVE",
"112 -1 CURVE",
"100 -7 OFFCURVE",
"87 -4 OFFCURVE",
"78 -1 CURVE",
"76 9 OFFCURVE",
"62 93 OFFCURVE",
"56 163 CURVE SMOOTH",
"55 176 OFFCURVE",
"87 180 OFFCURVE",
"94 171 CURVE SMOOTH",
"114 110 OFFCURVE",
"131 83 OFFCURVE",
"166 59 CURVE SMOOTH",
"194 39 OFFCURVE",
"211 31 OFFCURVE",
"244 31 CURVE SMOOTH",
"317 31 OFFCURVE",
"362 78 OFFCURVE",
"362 138 CURVE SMOOTH",
"362 218 OFFCURVE",
"272 269 OFFCURVE",
"214 308 CURVE SMOOTH",
"140 358 OFFCURVE",
"61 414 OFFCURVE",
"61 510 CURVE SMOOTH",
"61 604 OFFCURVE",
"133 670 OFFCURVE",
"239 670 CURVE SMOOTH",
"274 670 OFFCURVE",
"290 663 OFFCURVE",
"322 653 CURVE SMOOTH",
"343 645 OFFCURVE",
"350 644 OFFCURVE",
"356 644 CURVE SMOOTH",
"360 644 OFFCURVE",
"361 645 OFFCURVE",
"369 652 CURVE SMOOTH",
"378 655 OFFCURVE",
"390 655 OFFCURVE",
"398 652 CURVE",
"402 641 OFFCURVE",
"406 613 OFFCURVE",
"410 585 CURVE SMOOTH",
"413 557 OFFCURVE",
"417 527 OFFCURVE",
"418 513 CURVE SMOOTH",
"416 489 OFFCURVE",
"384 499 OFFCURVE",
"382 506 CURVE SMOOTH",
"352 580 OFFCURVE",
"311 623 OFFCURVE",
"248 623 CURVE SMOOTH",
"189 623 OFFCURVE",
"157 588 OFFCURVE",
"157 539 CURVE SMOOTH",
"157 474 OFFCURVE",
"239 421 OFFCURVE",
"286 389 CURVE SMOOTH",
"362 336 OFFCURVE",
"459 275 OFFCURVE",
"459 167 CURVE SMOOTH",
"459 60 OFFCURVE",
"376 -19 OFFCURVE"
);
}
);
width = 513;
}
);
unicode = 0160;
},
{
glyphname = T;
lastChange = "2017-10-06 16:36:12 +0000";
layers = (
{
layerId = "92E73F40-5E0C-43C4-B728-1A2B58992D44";
paths = (
{
closed = 1;
nodes = (
"634 476 CURVE SMOOTH",
"617 476 OFFCURVE",
"613 481 OFFCURVE",
"610 495 CURVE SMOOTH",
"593 579 OFFCURVE",
"578 590 OFFCURVE",
"548 590 CURVE SMOOTH",
"416 590 LINE SMOOTH",
"407 590 OFFCURVE",
"398 582 OFFCURVE",
"398 560 CURVE SMOOTH",
"398 495 OFFCURVE",
"398 247 OFFCURVE",
"398 137 CURVE SMOOTH",
"398 103 LINE SMOOTH",
"398 68 OFFCURVE",
"405 48 OFFCURVE",
"466 48 CURVE SMOOTH",
"494 48 LINE SMOOTH",
"513 48 OFFCURVE",
"518 22 OFFCURVE",
"513 8 CURVE SMOOTH",
"509 -3 OFFCURVE",
"500 -3 OFFCURVE",
"492 -3 CURVE SMOOTH",
"414 0 OFFCURVE",
"265 -2 OFFCURVE",
"192 -4 CURVE SMOOTH",
"180 -4 OFFCURVE",
"176 2 OFFCURVE",
"175 7 CURVE SMOOTH",
"172 14 OFFCURVE",
"172 27 OFFCURVE",
"175 34 CURVE SMOOTH",
"179 41 OFFCURVE",
"185 44 OFFCURVE",
"191 45 CURVE SMOOTH",
"204 45 OFFCURVE",
"214 46 OFFCURVE",
"229 45 CURVE SMOOTH",
"256 45 OFFCURVE",
"287 47 OFFCURVE",
"287 103 CURVE SMOOTH",
"287 137 LINE SMOOTH",
"287 259 OFFCURVE",
"287 550 OFFCURVE",
"287 563 CURVE SMOOTH",
"287 570 OFFCURVE",
"284 590 OFFCURVE",
"265 590 CURVE SMOOTH",
"159 590 LINE",
"139 590 LINE SMOOTH",
"107 590 OFFCURVE",
"92 578 OFFCURVE",
"74 483 CURVE",
"60 474 OFFCURVE",
"33 478 OFFCURVE",
"34 493 CURVE SMOOTH",
"36 533 OFFCURVE",
"44 618 OFFCURVE",
"50 664 CURVE",
"63 679 OFFCURVE",
"86 673 OFFCURVE",
"90 664 CURVE SMOOTH",
"96 649 OFFCURVE",
"126 650 OFFCURVE",
"140 650 CURVE SMOOTH",
"245 652 OFFCURVE",
"447 652 OFFCURVE",
"544 650 CURVE SMOOTH",
"589 650 OFFCURVE",
"590 650 OFFCURVE",
"596 664 CURVE SMOOTH",
"599 670 OFFCURVE",
"616 673 OFFCURVE",
"627 670 CURVE SMOOTH",
"634 668 OFFCURVE",
"636 665 OFFCURVE",
"637 656 CURVE SMOOTH",
"652 492 LINE SMOOTH",
"653 480 OFFCURVE",
"643 476 OFFCURVE"
);
}
);
width = 681;
}
);
unicode = 0054;
},
{
glyphname = U;
lastChange = "2017-10-06 16:36:12 +0000";
layers = (
{
layerId = "92E73F40-5E0C-43C4-B728-1A2B58992D44";
paths = (
{
closed = 1;
nodes = (
"779 609 CURVE SMOOTH",
"707 606 OFFCURVE",
"693 591 OFFCURVE",
"693 486 CURVE SMOOTH",
"693 305 LINE SMOOTH",
"693 203 OFFCURVE",
"692 129 OFFCURVE",
"609 55 CURVE SMOOTH",
"551 4 OFFCURVE",
"500 -19 OFFCURVE",
"402 -19 CURVE SMOOTH",
"266 -19 OFFCURVE",
"182 35 OFFCURVE",
"138 132 CURVE SMOOTH",
"117 177 OFFCURVE",
"115 200 OFFCURVE",
"115 295 CURVE SMOOTH",
"115 552 LINE SMOOTH",
"115 598 OFFCURVE",
"111 605 OFFCURVE",
"48 607 CURVE SMOOTH",
"37 607 OFFCURVE",
"33 606 OFFCURVE",
"27 615 CURVE SMOOTH",
"22 623 OFFCURVE",
"22 635 OFFCURVE",
"28 643 CURVE SMOOTH",
"33 649 OFFCURVE",
"36 650 OFFCURVE",
"46 650 CURVE SMOOTH",
"111 650 OFFCURVE",
"231 650 OFFCURVE",
"297 650 CURVE SMOOTH",
"304 650 OFFCURVE",
"312 648 OFFCURVE",
"315 642 CURVE SMOOTH",
"322 629 OFFCURVE",
"317 606 OFFCURVE",
"306 607 CURVE SMOOTH",
"297 607 LINE SMOOTH",
"241 607 OFFCURVE",
"229 596 OFFCURVE",
"227 545 CURVE SMOOTH",
"227 530 OFFCURVE",
"226 517 OFFCURVE",
"226 502 CURVE SMOOTH",
"226 310 LINE SMOOTH",
"226 167 OFFCURVE",
"266 57 OFFCURVE",
"425 57 CURVE SMOOTH",
"528 57 OFFCURVE",
"582 99 OFFCURVE",
"609 170 CURVE SMOOTH",
"625 214 OFFCURVE",
"624 259 OFFCURVE",
"624 304 CURVE SMOOTH",
"624 482 LINE SMOOTH",
"624 590 OFFCURVE",
"613 605 OFFCURVE",
"540 607 CURVE SMOOTH",
"533 609 OFFCURVE",
"529 609 OFFCURVE",
"526 616 CURVE SMOOTH",
"522 624 OFFCURVE",
"522 635 OFFCURVE",
"526 642 CURVE SMOOTH",
"528 646 OFFCURVE",
"534 650 OFFCURVE",
"539 650 CURVE SMOOTH",
"589 651 OFFCURVE",
"718 651 OFFCURVE",
"779 650 CURVE SMOOTH",
"787 650 OFFCURVE",
"793 640 OFFCURVE",
"793 630 CURVE SMOOTH",
"793 623 OFFCURVE",
"790 610 OFFCURVE"
);
}
);
width = 815;
}
);
unicode = 0055;
},
{
glyphname = Uacute;
lastChange = "2017-10-06 16:36:12 +0000";
layers = (
{
layerId = "92E73F40-5E0C-43C4-B728-1A2B58992D44";
paths = (
{
closed = 1;
nodes = (
"532 865 CURVE SMOOTH",
"532 864 LINE SMOOTH",
"530 861 OFFCURVE",
"389 691 OFFCURVE",
"389 691 CURVE SMOOTH",
"380 681 OFFCURVE",
"348 683 OFFCURVE",
"355 705 CURVE SMOOTH",
"403 867 LINE SMOOTH",
"406 878 OFFCURVE",
"417 884 OFFCURVE",
"426 884 CURVE SMOOTH",
"513 885 LINE SMOOTH",
"524 885 OFFCURVE",
"534 881 OFFCURVE",
"533 869 CURVE SMOOTH",
"533 868 OFFCURVE",
"532 866 OFFCURVE"
);
},
{
closed = 1;
nodes = (
"780 611 CURVE SMOOTH",
"708 609 OFFCURVE",
"694 594 OFFCURVE",
"694 488 CURVE SMOOTH",
"694 307 LINE SMOOTH",
"694 204 OFFCURVE",
"693 130 OFFCURVE",
"610 55 CURVE SMOOTH",
"552 4 OFFCURVE",
"501 -19 OFFCURVE",
"403 -19 CURVE SMOOTH",
"267 -19 OFFCURVE",
"185 35 OFFCURVE",
"141 132 CURVE SMOOTH",
"120 178 OFFCURVE",
"118 201 OFFCURVE",
"118 297 CURVE SMOOTH",
"118 554 LINE SMOOTH",
"118 603 OFFCURVE",
"111 609 OFFCURVE",
"38 610 CURVE SMOOTH",
"27 610 OFFCURVE",
"11 651 OFFCURVE",
"38 653 CURVE SMOOTH",
"66 655 OFFCURVE",
"223 655 OFFCURVE",
"305 653 CURVE SMOOTH",
"326 652 OFFCURVE",
"321 609 OFFCURVE",
"304 610 CURVE SMOOTH",
"295 610 LINE SMOOTH",
"239 610 OFFCURVE",
"227 598 OFFCURVE",
"225 547 CURVE SMOOTH",
"225 533 OFFCURVE",
"224 519 OFFCURVE",
"224 504 CURVE SMOOTH",
"224 311 LINE SMOOTH",
"224 168 OFFCURVE",
"267 57 OFFCURVE",
"426 57 CURVE SMOOTH",
"529 57 OFFCURVE",
"584 99 OFFCURVE",
"611 171 CURVE SMOOTH",
"627 215 OFFCURVE",
"626 260 OFFCURVE",
"626 306 CURVE SMOOTH",
"626 484 LINE SMOOTH",
"626 593 OFFCURVE",
"615 607 OFFCURVE",
"542 609 CURVE",
"535 611 LINE SMOOTH",
"522 614 OFFCURVE",
"517 653 OFFCURVE",
"536 653 CURVE SMOOTH",
"586 654 OFFCURVE",
"719 654 OFFCURVE",
"780 653 CURVE SMOOTH",
"788 653 OFFCURVE",
"794 642 OFFCURVE",
"794 633 CURVE SMOOTH",
"794 626 OFFCURVE",
"791 613 OFFCURVE"
);
}
);
width = 815;
}
);
unicode = 00DA;
},
{
glyphname = Ucircumflex;
lastChange = "2017-10-06 16:36:12 +0000";
layers = (
{
layerId = "92E73F40-5E0C-43C4-B728-1A2B58992D44";
paths = (
{
closed = 1;
nodes = (
"553 687 CURVE SMOOTH",
"546 686 OFFCURVE",
"534 686 OFFCURVE",
"529 691 CURVE SMOOTH",
"412 790 LINE",
"302 691 LINE SMOOTH",
"291 680 OFFCURVE",
"263 689 OFFCURVE",
"271 703 CURVE SMOOTH",
"358 857 LINE SMOOTH",
"362 864 OFFCURVE",
"368 868 OFFCURVE",
"374 870 CURVE SMOOTH",
"383 871 OFFCURVE",
"437 872 OFFCURVE",
"451 871 CURVE SMOOTH",
"463 870 OFFCURVE",
"466 867 OFFCURVE",
"471 858 CURVE SMOOTH",
"558 708 LINE SMOOTH",
"562 700 OFFCURVE",
"563 690 OFFCURVE"
);
},
{
closed = 1;
nodes = (
"780 611 CURVE SMOOTH",
"708 608 OFFCURVE",
"694 594 OFFCURVE",
"694 488 CURVE SMOOTH",
"694 306 LINE SMOOTH",
"694 204 OFFCURVE",
"693 130 OFFCURVE",
"610 55 CURVE SMOOTH",
"552 4 OFFCURVE",
"501 -19 OFFCURVE",
"403 -19 CURVE SMOOTH",
"267 -19 OFFCURVE",
"185 35 OFFCURVE",
"141 132 CURVE SMOOTH",
"120 178 OFFCURVE",
"118 201 OFFCURVE",
"118 297 CURVE SMOOTH",
"118 553 LINE SMOOTH",
"118 603 OFFCURVE",
"111 609 OFFCURVE",
"38 610 CURVE SMOOTH",
"27 610 OFFCURVE",
"11 651 OFFCURVE",
"38 653 CURVE SMOOTH",
"66 655 OFFCURVE",
"223 654 OFFCURVE",
"305 653 CURVE SMOOTH",
"326 652 OFFCURVE",
"321 609 OFFCURVE",
"304 610 CURVE SMOOTH",
"295 610 LINE SMOOTH",
"239 610 OFFCURVE",
"227 597 OFFCURVE",
"225 547 CURVE SMOOTH",
"225 533 OFFCURVE",
"224 519 OFFCURVE",
"224 504 CURVE SMOOTH",
"224 311 LINE SMOOTH",
"224 168 OFFCURVE",
"267 57 OFFCURVE",
"426 57 CURVE SMOOTH",
"529 57 OFFCURVE",
"584 99 OFFCURVE",
"611 171 CURVE SMOOTH",
"627 215 OFFCURVE",
"626 260 OFFCURVE",
"626 305 CURVE SMOOTH",
"626 484 LINE SMOOTH",
"626 593 OFFCURVE",
"615 607 OFFCURVE",
"542 609 CURVE",
"535 611 LINE SMOOTH",
"522 613 OFFCURVE",
"517 652 OFFCURVE",
"536 653 CURVE SMOOTH",
"586 653 OFFCURVE",
"719 654 OFFCURVE",
"780 653 CURVE SMOOTH",
"788 653 OFFCURVE",
"794 642 OFFCURVE",
"794 632 CURVE SMOOTH",
"794 625 OFFCURVE",
"791 613 OFFCURVE"
);
}
);
width = 815;
}
);
unicode = 00DB;
},
{
glyphname = Udieresis;
lastChange = "2017-10-06 16:36:12 +0000";
layers = (
{
layerId = "92E73F40-5E0C-43C4-B728-1A2B58992D44";
paths = (
{
closed = 1;
nodes = (
"533 695 CURVE SMOOTH",
"497 695 OFFCURVE",
"467 724 OFFCURVE",
"467 759 CURVE SMOOTH",
"467 795 OFFCURVE",
"497 824 OFFCURVE",
"533 824 CURVE SMOOTH",
"569 824 OFFCURVE",
"597 795 OFFCURVE",
"597 759 CURVE SMOOTH",
"597 724 OFFCURVE",
"569 695 OFFCURVE"
);
},
{
closed = 1;
nodes = (
"308 695 CURVE SMOOTH",
"273 695 OFFCURVE",
"243 723 OFFCURVE",
"243 759 CURVE SMOOTH",
"243 795 OFFCURVE",
"272 824 OFFCURVE",
"308 824 CURVE SMOOTH",
"344 824 OFFCURVE",
"373 795 OFFCURVE",
"373 759 CURVE SMOOTH",
"373 723 OFFCURVE",
"344 695 OFFCURVE"
);
},
{
closed = 1;
nodes = (
"780 611 CURVE SMOOTH",
"708 608 OFFCURVE",
"694 593 OFFCURVE",
"694 488 CURVE SMOOTH",
"694 306 LINE SMOOTH",
"694 204 OFFCURVE",
"693 129 OFFCURVE",
"610 55 CURVE SMOOTH",
"552 4 OFFCURVE",
"501 -19 OFFCURVE",
"403 -19 CURVE SMOOTH",
"267 -19 OFFCURVE",
"183 35 OFFCURVE",
"139 132 CURVE SMOOTH",
"118 178 OFFCURVE",
"116 201 OFFCURVE",
"116 296 CURVE SMOOTH",
"116 553 LINE SMOOTH",
"116 603 OFFCURVE",
"111 609 OFFCURVE",
"38 610 CURVE SMOOTH",
"27 610 OFFCURVE",
"11 650 OFFCURVE",
"38 652 CURVE SMOOTH",
"66 654 OFFCURVE",
"223 654 OFFCURVE",
"305 652 CURVE SMOOTH",
"326 652 OFFCURVE",
"321 608 OFFCURVE",
"304 610 CURVE SMOOTH",
"295 610 LINE SMOOTH",
"239 610 OFFCURVE",
"230 597 OFFCURVE",
"228 547 CURVE SMOOTH",
"228 532 OFFCURVE",
"227 518 OFFCURVE",
"227 504 CURVE SMOOTH",
"227 311 LINE SMOOTH",
"227 168 OFFCURVE",
"267 57 OFFCURVE",
"426 57 CURVE SMOOTH",
"529 57 OFFCURVE",
"584 99 OFFCURVE",
"611 171 CURVE SMOOTH",
"627 215 OFFCURVE",
"626 259 OFFCURVE",
"626 305 CURVE SMOOTH",
"626 484 LINE SMOOTH",
"626 593 OFFCURVE",
"615 607 OFFCURVE",
"542 609 CURVE",
"535 611 LINE SMOOTH",
"522 613 OFFCURVE",
"517 652 OFFCURVE",
"536 652 CURVE SMOOTH",
"586 653 OFFCURVE",
"719 653 OFFCURVE",
"780 652 CURVE SMOOTH",
"788 652 OFFCURVE",
"794 642 OFFCURVE",
"794 632 CURVE SMOOTH",
"794 625 OFFCURVE",
"791 613 OFFCURVE"
);
}
);
width = 815;
}
);
unicode = 00DC;
},
{
glyphname = Ugrave;
lastChange = "2017-10-06 16:36:12 +0000";
layers = (
{
layerId = "92E73F40-5E0C-43C4-B728-1A2B58992D44";
paths = (
{
closed = 1;
nodes = (
"440 696 CURVE SMOOTH",
"409 738 OFFCURVE",
"350 806 OFFCURVE",
"307 852 CURVE SMOOTH",
"297 864 OFFCURVE",
"312 880 OFFCURVE",
"326 880 CURVE SMOOTH",
"402 881 LINE SMOOTH",
"410 881 OFFCURVE",
"419 881 OFFCURVE",
"426 870 CURVE SMOOTH",
"443 825 OFFCURVE",
"465 751 OFFCURVE",
"475 707 CURVE",
"475 685 OFFCURVE",
"448 688 OFFCURVE"
);
},
{
closed = 1;
nodes = (
"780 611 CURVE SMOOTH",
"708 609 OFFCURVE",
"694 594 OFFCURVE",
"694 488 CURVE SMOOTH",
"694 307 LINE SMOOTH",
"694 204 OFFCURVE",
"693 130 OFFCURVE",
"610 55 CURVE SMOOTH",
"552 4 OFFCURVE",
"501 -19 OFFCURVE",
"403 -19 CURVE SMOOTH",
"267 -19 OFFCURVE",
"185 35 OFFCURVE",
"141 132 CURVE SMOOTH",
"120 178 OFFCURVE",
"118 201 OFFCURVE",
"118 297 CURVE SMOOTH",
"118 554 LINE SMOOTH",
"118 603 OFFCURVE",
"111 609 OFFCURVE",
"38 610 CURVE SMOOTH",
"27 610 OFFCURVE",
"11 651 OFFCURVE",
"38 653 CURVE SMOOTH",
"66 655 OFFCURVE",
"223 654 OFFCURVE",
"305 653 CURVE SMOOTH",
"326 652 OFFCURVE",
"321 609 OFFCURVE",
"304 610 CURVE SMOOTH",
"295 610 LINE SMOOTH",
"239 610 OFFCURVE",
"227 598 OFFCURVE",
"225 547 CURVE SMOOTH",
"225 533 OFFCURVE",
"224 519 OFFCURVE",
"224 504 CURVE SMOOTH",
"224 311 LINE SMOOTH",
"224 168 OFFCURVE",
"267 57 OFFCURVE",
"426 57 CURVE SMOOTH",
"529 57 OFFCURVE",
"584 99 OFFCURVE",
"611 171 CURVE SMOOTH",
"627 215 OFFCURVE",
"626 260 OFFCURVE",
"626 306 CURVE SMOOTH",
"626 484 LINE SMOOTH",
"626 593 OFFCURVE",
"615 607 OFFCURVE",
"542 609 CURVE",
"535 611 LINE SMOOTH",
"522 613 OFFCURVE",
"517 652 OFFCURVE",
"536 653 CURVE SMOOTH",
"586 654 OFFCURVE",
"719 654 OFFCURVE",
"780 653 CURVE SMOOTH",
"788 653 OFFCURVE",
"794 642 OFFCURVE",
"794 633 CURVE SMOOTH",
"794 626 OFFCURVE",
"791 613 OFFCURVE"
);
}
);
width = 815;
}
);
unicode = 00D9;
},
{
glyphname = V;
lastChange = "2017-10-06 16:36:12 +0000";
layers = (
{
layerId = "92E73F40-5E0C-43C4-B728-1A2B58992D44";
paths = (
{
closed = 1;
nodes = (
"727 610 CURVE SMOOTH",
"674 609 OFFCURVE",
"657 594 OFFCURVE",
"624 510 CURVE SMOOTH",
"426 -2 LINE SMOOTH",
"423 -9 OFFCURVE",
"412 -23 OFFCURVE",
"403 -24 CURVE SMOOTH",
"397 -25 OFFCURVE",
"379 -26 OFFCURVE",
"364 -23 CURVE SMOOTH",
"357 -22 OFFCURVE",
"348 -11 OFFCURVE",
"345 -4 CURVE SMOOTH",
"134 525 LINE SMOOTH",
"103 600 OFFCURVE",
"82 603 OFFCURVE",
"41 604 CURVE SMOOTH",
"32 606 OFFCURVE",
"28 607 OFFCURVE",
"24 615 CURVE SMOOTH",
"22 623 OFFCURVE",
"23 633 OFFCURVE",
"25 638 CURVE SMOOTH",
"28 649 OFFCURVE",
"39 650 OFFCURVE",
"47 650 CURVE SMOOTH",
"114 648 OFFCURVE",
"244 648 OFFCURVE",
"307 650 CURVE SMOOTH",
"315 650 OFFCURVE",
"328 652 OFFCURVE",
"333 645 CURVE SMOOTH",
"338 638 OFFCURVE",
"339 625 OFFCURVE",
"336 617 CURVE SMOOTH",
"333 608 OFFCURVE",
"327 607 OFFCURVE",
"320 604 CURVE SMOOTH",
"292 603 OFFCURVE",
"271 601 OFFCURVE",
"258 598 CURVE SMOOTH",
"223 590 OFFCURVE",
"237 558 OFFCURVE",
"249 528 CURVE SMOOTH",
"396 162 LINE SMOOTH",
"399 156 OFFCURVE",
"413 146 OFFCURVE",
"417 157 CURVE SMOOTH",
"554 519 LINE SMOOTH",
"565 548 OFFCURVE",
"585 595 OFFCURVE",
"541 605 CURVE SMOOTH",
"530 607 OFFCURVE",
"516 608 OFFCURVE",
"495 608 CURVE SMOOTH",
"485 608 OFFCURVE",
"482 608 OFFCURVE",
"477 617 CURVE SMOOTH",
"473 625 OFFCURVE",
"473 637 OFFCURVE",
"478 644 CURVE SMOOTH",
"481 648 OFFCURVE",
"491 651 OFFCURVE",
"498 650 CURVE SMOOTH",
"536 647 OFFCURVE",
"685 649 OFFCURVE",
"724 650 CURVE SMOOTH",
"750 651 OFFCURVE",
"743 611 OFFCURVE"
);
}
);
width = 761;
}
);
unicode = 0056;
},
{
glyphname = W;
lastChange = "2017-10-06 16:36:12 +0000";
layers = (
{
layerId = "92E73F40-5E0C-43C4-B728-1A2B58992D44";
paths = (
{
closed = 1;
nodes = (
"1050 610 CURVE SMOOTH",
"995 610 OFFCURVE",
"981 601 OFFCURVE",
"952 525 CURVE SMOOTH",
"752 3 LINE SMOOTH",
"750 -3 OFFCURVE",
"744 -14 OFFCURVE",
"735 -16 CURVE SMOOTH",
"721 -18 OFFCURVE",
"697 -18 OFFCURVE",
"685 -15 CURVE SMOOTH",
"673 -12 OFFCURVE",
"674 -10 OFFCURVE",
"669 2 CURVE SMOOTH",
"561 259 LINE SMOOTH",
"557 268 OFFCURVE",
"545 257 OFFCURVE",
"542 248 CURVE SMOOTH",
"442 3 LINE SMOOTH",
"436 -10 OFFCURVE",
"431 -16 OFFCURVE",
"420 -18 CURVE SMOOTH",
"405 -21 OFFCURVE",
"384 -20 OFFCURVE",
"370 -16 CURVE SMOOTH",
"362 -13 OFFCURVE",
"356 -5 OFFCURVE",
"352 6 CURVE SMOOTH",
"154 510 LINE SMOOTH",
"118 602 OFFCURVE",
"117 601 OFFCURVE",
"43 603 CURVE SMOOTH",
"37 603 OFFCURVE",
"31 603 OFFCURVE",
"26 606 CURVE SMOOTH",
"16 612 OFFCURVE",
"16 631 OFFCURVE",
"19 640 CURVE SMOOTH",
"22 646 OFFCURVE",
"28 650 OFFCURVE",
"37 650 CURVE SMOOTH",
"91 650 OFFCURVE",
"191 650 OFFCURVE",
"282 651 CURVE SMOOTH",
"290 651 OFFCURVE",
"298 648 OFFCURVE",
"300 642 CURVE SMOOTH",
"302 634 OFFCURVE",
"301 622 OFFCURVE",
"298 615 CURVE SMOOTH",
"296 609 OFFCURVE",
"290 608 OFFCURVE",
"283 608 CURVE SMOOTH",
"241 608 OFFCURVE",
"240 598 OFFCURVE",
"240 586 CURVE SMOOTH",
"240 577 OFFCURVE",
"242 565 OFFCURVE",
"258 526 CURVE SMOOTH",
"413 138 LINE SMOOTH",
"415 134 OFFCURVE",
"425 137 OFFCURVE",
"431 152 CURVE SMOOTH",
"510 346 LINE SMOOTH",
"513 353 OFFCURVE",
"514 371 OFFCURVE",
"512 378 CURVE SMOOTH",
"442 542 LINE SMOOTH",
"417 602 OFFCURVE",
"412 606 OFFCURVE",
"340 609 CURVE SMOOTH",
"329 612 OFFCURVE",
"323 651 OFFCURVE",
"342 651 CURVE SMOOTH",
"449 654 OFFCURVE",
"598 653 OFFCURVE",
"748 651 CURVE SMOOTH",
"757 651 OFFCURVE",
"760 651 OFFCURVE",
"767 647 CURVE SMOOTH",
"774 642 OFFCURVE",
"775 628 OFFCURVE",
"772 619 CURVE SMOOTH",
"768 607 OFFCURVE",
"766 608 OFFCURVE",
"755 608 CURVE SMOOTH",
"693 606 OFFCURVE",
"683 598 OFFCURVE",
"660 541 CURVE SMOOTH",
"610 421 LINE SMOOTH",
"608 416 OFFCURVE",
"607 407 OFFCURVE",
"610 398 CURVE SMOOTH",
"653 295 OFFCURVE",
"721 135 OFFCURVE",
"721 135 CURVE SMOOTH",
"723 130 OFFCURVE",
"733 132 OFFCURVE",
"736 142 CURVE SMOOTH",
"886 534 LINE SMOOTH",
"913 604 OFFCURVE",
"908 608 OFFCURVE",
"845 611 CURVE SMOOTH",
"824 614 OFFCURVE",
"833 653 OFFCURVE",
"850 651 CURVE SMOOTH",
"898 649 OFFCURVE",
"986 650 OFFCURVE",
"1051 652 CURVE SMOOTH",
"1059 652 OFFCURVE",
"1066 642 OFFCURVE",
"1067 631 CURVE SMOOTH",
"1067 623 OFFCURVE",
"1064 610 OFFCURVE"
);
},
{
closed = 1;
nodes = (
"566 505 CURVE SMOOTH",
"570 498 OFFCURVE",
"576 506 OFFCURVE",
"576 506 CURVE",
"587 532 OFFCURVE",
"599 560 OFFCURVE",
"609 587 CURVE SMOOTH",
"613 600 OFFCURVE",
"608 608 OFFCURVE",
"591 608 CURVE SMOOTH",
"581 607 OFFCURVE",
"564 608 OFFCURVE",
"550 608 CURVE SMOOTH",
"535 608 OFFCURVE",
"525 606 OFFCURVE",
"531 587 CURVE SMOOTH",
"535 577 OFFCURVE",
"540 565 OFFCURVE",
"544 557 CURVE SMOOTH",
"549 546 OFFCURVE",
"552 537 OFFCURVE"
);
}
);
width = 1086;
}
);
unicode = 0057;
},
{
glyphname = X;
lastChange = "2017-10-06 16:36:12 +0000";
layers = (
{
layerId = "92E73F40-5E0C-43C4-B728-1A2B58992D44";
paths = (
{
closed = 1;
nodes = (
"753 -2 CURVE SMOOTH",
"700 0 OFFCURVE",
"528 -1 OFFCURVE",
"485 -3 CURVE SMOOTH",
"478 -4 OFFCURVE",
"472 -2 OFFCURVE",
"468 5 CURVE SMOOTH",
"463 17 OFFCURVE",
"467 40 OFFCURVE",
"479 40 CURVE SMOOTH",
"489 40 LINE SMOOTH",
"530 40 OFFCURVE",
"528 50 OFFCURVE",
"527 56 CURVE SMOOTH",
"527 70 OFFCURVE",
"508 94 OFFCURVE",
"500 105 CURVE SMOOTH",
"379 270 LINE SMOOTH",
"374 271 OFFCURVE",
"369 270 OFFCURVE",
"358 256 CURVE SMOOTH",
"337 229 OFFCURVE",
"231 96 OFFCURVE",
"231 96 CURVE SMOOTH",
"215 76 OFFCURVE",
"210 64 OFFCURVE",
"210 59 CURVE SMOOTH",
"210 53 OFFCURVE",
"210 39 OFFCURVE",
"263 39 CURVE SMOOTH",
"272 39 LINE SMOOTH",
"294 39 OFFCURVE",
"295 -3 OFFCURVE",
"274 -3 CURVE SMOOTH",
"222 -2 OFFCURVE",
"111 1 OFFCURVE",
"41 -2 CURVE SMOOTH",
"33 -2 OFFCURVE",
"27 10 OFFCURVE",
"27 20 CURVE SMOOTH",
"27 30 OFFCURVE",
"32 42 OFFCURVE",
"42 42 CURVE SMOOTH",
"92 46 OFFCURVE",
"120 54 OFFCURVE",
"149 92 CURVE SMOOTH",
"209 171 OFFCURVE",
"264 239 OFFCURVE",
"325 317 CURVE SMOOTH",
"334 325 OFFCURVE",
"325 336 OFFCURVE",
"325 341 CURVE SMOOTH",
"187 517 LINE SMOOTH",
"126 595 OFFCURVE",
"124 599 OFFCURVE",
"47 601 CURVE SMOOTH",
"43 601 OFFCURVE",
"29 607 OFFCURVE",
"27 616 CURVE SMOOTH",
"24 626 OFFCURVE",
"26 652 OFFCURVE",
"49 651 CURVE SMOOTH",
"117 648 OFFCURVE",
"251 648 OFFCURVE",
"326 652 CURVE SMOOTH",
"333 652 OFFCURVE",
"343 652 OFFCURVE",
"348 641 CURVE SMOOTH",
"350 636 OFFCURVE",
"350 617 OFFCURVE",
"344 612 CURVE SMOOTH",
"339 610 OFFCURVE",
"334 608 OFFCURVE",
"327 608 CURVE SMOOTH",
"306 607 OFFCURVE",
"293 607 OFFCURVE",
"284 606 CURVE SMOOTH",
"258 603 OFFCURVE",
"282 568 OFFCURVE",
"298 548 CURVE SMOOTH",
"394 420 LINE SMOOTH",
"397 415 OFFCURVE",
"403 414 OFFCURVE",
"406 418 CURVE SMOOTH",
"443 466 OFFCURVE",
"486 520 OFFCURVE",
"521 571 CURVE SMOOTH",
"537 595 OFFCURVE",
"528 606 OFFCURVE",
"502 606 CURVE SMOOTH",
"493 606 OFFCURVE",
"472 605 OFFCURVE",
"466 610 CURVE SMOOTH",
"457 619 OFFCURVE",
"458 639 OFFCURVE",
"465 645 CURVE SMOOTH",
"468 648 OFFCURVE",
"475 650 OFFCURVE",
"480 650 CURVE SMOOTH",
"561 650 OFFCURVE",
"630 647 OFFCURVE",
"711 651 CURVE",
"735 648 OFFCURVE",
"732 607 OFFCURVE",
"711 608 CURVE SMOOTH",
"628 603 OFFCURVE",
"587 554 OFFCURVE",
"537 488 CURVE SMOOTH",
"447 369 LINE SMOOTH",
"438 356 OFFCURVE",
"445 355 OFFCURVE",
"453 343 CURVE SMOOTH",
"618 128 LINE SMOOTH",
"665 67 OFFCURVE",
"668 49 OFFCURVE",
"754 39 CURVE SMOOTH",
"763 38 OFFCURVE",
"768 28 OFFCURVE",
"768 17 CURVE SMOOTH",
"768 10 OFFCURVE",
"764 -2 OFFCURVE"
);
}
);
width = 785;
}
);
unicode = 0058;
},
{
glyphname = Y;
lastChange = "2017-10-06 16:36:12 +0000";
layers = (
{
layerId = "92E73F40-5E0C-43C4-B728-1A2B58992D44";
paths = (
{
closed = 1;
nodes = (
"716 608 CURVE SMOOTH",
"642 604 OFFCURVE",
"619 552 OFFCURVE",
"587 498 CURVE SMOOTH",
"442 253 LINE",
"443 204 OFFCURVE",
"442 131 OFFCURVE",
"442 103 CURVE SMOOTH",
"442 57 OFFCURVE",
"470 49 OFFCURVE",
"505 47 CURVE SMOOTH",
"515 47 OFFCURVE",
"526 50 OFFCURVE",
"535 45 CURVE SMOOTH",
"544 40 OFFCURVE",
"542 30 OFFCURVE",
"542 18 CURVE SMOOTH",
"542 9 OFFCURVE",
"538 -4 OFFCURVE",
"525 -4 CURVE SMOOTH",
"405 -2 OFFCURVE",
"362 0 OFFCURVE",
"255 -3 CURVE SMOOTH",
"247 -3 OFFCURVE",
"237 1 OFFCURVE",
"234 8 CURVE SMOOTH",
"230 16 OFFCURVE",
"231 27 OFFCURVE",
"233 33 CURVE SMOOTH",
"235 38 OFFCURVE",
"238 44 OFFCURVE",
"243 46 CURVE SMOOTH",
"255 52 OFFCURVE",
"272 48 OFFCURVE",
"285 48 CURVE SMOOTH",
"319 50 OFFCURVE",
"330 68 OFFCURVE",
"332 103 CURVE SMOOTH",
"334 135 OFFCURVE",
"335 203 OFFCURVE",
"333 241 CURVE",
"154 521 LINE SMOOTH",
"107 594 OFFCURVE",
"92 606 OFFCURVE",
"35 607 CURVE SMOOTH",
"26 607 OFFCURVE",
"19 607 OFFCURVE",
"16 618 CURVE SMOOTH",
"15 621 OFFCURVE",
"15 630 OFFCURVE",
"16 634 CURVE SMOOTH",
"17 642 OFFCURVE",
"23 651 OFFCURVE",
"33 650 CURVE SMOOTH",
"101 649 OFFCURVE",
"244 648 OFFCURVE",
"297 650 CURVE SMOOTH",
"312 650 OFFCURVE",
"326 607 OFFCURVE",
"294 607 CURVE SMOOTH",
"243 607 OFFCURVE",
"242 597 OFFCURVE",
"242 593 CURVE SMOOTH",
"242 584 OFFCURVE",
"239 581 OFFCURVE",
"268 536 CURVE SMOOTH",
"396 340 LINE SMOOTH",
"400 334 OFFCURVE",
"413 339 OFFCURVE",
"418 346 CURVE SMOOTH",
"523 524 LINE SMOOTH",
"541 555 OFFCURVE",
"551 578 OFFCURVE",
"551 587 CURVE SMOOTH",
"551 599 OFFCURVE",
"549 608 OFFCURVE",
"503 608 CURVE SMOOTH",
"492 608 LINE",
"480 613 OFFCURVE",
"475 651 OFFCURVE",
"501 650 CURVE SMOOTH",
"551 648 OFFCURVE",
"638 648 OFFCURVE",
"716 650 CURVE SMOOTH",
"726 650 OFFCURVE",
"730 640 OFFCURVE",
"730 630 CURVE SMOOTH",
"730 622 OFFCURVE",
"726 608 OFFCURVE"
);
}
);
width = 728;
}
);
unicode = 0059;
},
{
glyphname = Yacute;
lastChange = "2017-10-06 16:36:12 +0000";
layers = (
{
layerId = "92E73F40-5E0C-43C4-B728-1A2B58992D44";
paths = (
{
closed = 1;
nodes = (
"487 865 CURVE",
"487 864 LINE SMOOTH",
"485 861 OFFCURVE",
"344 691 OFFCURVE",
"344 691 CURVE SMOOTH",
"336 682 OFFCURVE",
"303 683 OFFCURVE",
"310 705 CURVE SMOOTH",
"358 868 LINE SMOOTH",
"363 877 OFFCURVE",
"371 884 OFFCURVE",
"381 884 CURVE SMOOTH",
"468 885 LINE SMOOTH",
"481 885 OFFCURVE",
"491 879 OFFCURVE"
);
},
{
closed = 1;
nodes = (
"716 608 CURVE SMOOTH",
"642 604 OFFCURVE",
"619 552 OFFCURVE",
"587 498 CURVE SMOOTH",
"442 253 LINE",
"443 204 OFFCURVE",
"442 131 OFFCURVE",
"442 103 CURVE SMOOTH",
"442 57 OFFCURVE",
"470 49 OFFCURVE",
"505 47 CURVE SMOOTH",
"515 47 OFFCURVE",
"526 50 OFFCURVE",
"535 45 CURVE SMOOTH",
"544 40 OFFCURVE",
"542 30 OFFCURVE",
"542 18 CURVE SMOOTH",
"542 9 OFFCURVE",
"538 -4 OFFCURVE",
"525 -4 CURVE SMOOTH",
"405 -2 OFFCURVE",
"362 0 OFFCURVE",
"255 -3 CURVE SMOOTH",
"247 -3 OFFCURVE",
"237 1 OFFCURVE",
"234 8 CURVE SMOOTH",
"230 16 OFFCURVE",
"231 27 OFFCURVE",
"233 33 CURVE SMOOTH",
"235 38 OFFCURVE",
"238 44 OFFCURVE",
"243 46 CURVE SMOOTH",
"255 52 OFFCURVE",
"272 48 OFFCURVE",
"285 48 CURVE SMOOTH",
"319 50 OFFCURVE",
"330 68 OFFCURVE",
"332 103 CURVE SMOOTH",
"334 135 OFFCURVE",
"335 203 OFFCURVE",
"333 241 CURVE",
"154 521 LINE SMOOTH",
"107 594 OFFCURVE",
"92 606 OFFCURVE",
"35 607 CURVE SMOOTH",
"26 607 OFFCURVE",
"19 607 OFFCURVE",
"16 618 CURVE SMOOTH",
"15 621 OFFCURVE",
"15 630 OFFCURVE",
"16 634 CURVE SMOOTH",
"17 642 OFFCURVE",
"23 651 OFFCURVE",
"33 650 CURVE SMOOTH",
"101 649 OFFCURVE",
"244 648 OFFCURVE",
"297 650 CURVE SMOOTH",
"312 650 OFFCURVE",
"326 607 OFFCURVE",
"294 607 CURVE SMOOTH",
"243 607 OFFCURVE",
"242 597 OFFCURVE",
"242 593 CURVE SMOOTH",
"242 584 OFFCURVE",
"239 581 OFFCURVE",
"268 536 CURVE SMOOTH",
"396 340 LINE SMOOTH",
"400 334 OFFCURVE",
"413 339 OFFCURVE",
"418 346 CURVE SMOOTH",
"523 524 LINE SMOOTH",
"541 555 OFFCURVE",
"551 578 OFFCURVE",
"551 587 CURVE SMOOTH",
"551 599 OFFCURVE",
"549 608 OFFCURVE",
"503 608 CURVE SMOOTH",
"492 608 LINE",
"480 613 OFFCURVE",
"475 651 OFFCURVE",
"501 650 CURVE SMOOTH",
"551 648 OFFCURVE",
"638 648 OFFCURVE",
"716 650 CURVE SMOOTH",
"726 650 OFFCURVE",
"730 640 OFFCURVE",
"730 630 CURVE SMOOTH",
"730 622 OFFCURVE",
"726 608 OFFCURVE"
);
}
);
width = 728;
}
);
unicode = 00DD;
},
{
glyphname = Ydieresis;
lastChange = "2017-10-06 16:36:12 +0000";
layers = (
{
layerId = "92E73F40-5E0C-43C4-B728-1A2B58992D44";
paths = (
{
closed = 1;
nodes = (
"459 695 CURVE SMOOTH",
"423 695 OFFCURVE",
"394 724 OFFCURVE",
"394 759 CURVE SMOOTH",
"394 795 OFFCURVE",
"423 824 OFFCURVE",
"459 824 CURVE SMOOTH",
"495 824 OFFCURVE",
"523 795 OFFCURVE",
"523 759 CURVE SMOOTH",
"523 724 OFFCURVE",
"495 695 OFFCURVE"
);
},
{
closed = 1;
nodes = (
"284 695 CURVE SMOOTH",
"249 695 OFFCURVE",
"219 723 OFFCURVE",
"219 759 CURVE SMOOTH",
"219 795 OFFCURVE",
"249 824 OFFCURVE",
"284 824 CURVE SMOOTH",
"320 824 OFFCURVE",
"349 795 OFFCURVE",
"349 759 CURVE SMOOTH",
"349 723 OFFCURVE",
"320 695 OFFCURVE"
);
},
{
closed = 1;
nodes = (
"717 610 CURVE SMOOTH",
"643 607 OFFCURVE",
"620 554 OFFCURVE",
"588 500 CURVE SMOOTH",
"443 254 LINE",
"444 205 OFFCURVE",
"443 131 OFFCURVE",
"443 103 CURVE SMOOTH",
"443 57 OFFCURVE",
"468 42 OFFCURVE",
"508 44 CURVE SMOOTH",
"527 46 OFFCURVE",
"543 41 OFFCURVE",
"543 18 CURVE SMOOTH",
"543 9 OFFCURVE",
"539 -4 OFFCURVE",
"526 -4 CURVE SMOOTH",
"406 -2 OFFCURVE",
"357 0 OFFCURVE",
"250 -3 CURVE SMOOTH",
"232 -3 OFFCURVE",
"230 23 OFFCURVE",
"234 33 CURVE SMOOTH",
"238 44 OFFCURVE",
"250 46 OFFCURVE",
"259 46 CURVE SMOOTH",
"268 47 OFFCURVE",
"277 45 OFFCURVE",
"286 45 CURVE SMOOTH",
"320 47 OFFCURVE",
"334 69 OFFCURVE",
"336 103 CURVE SMOOTH",
"338 135 OFFCURVE",
"339 204 OFFCURVE",
"337 242 CURVE",
"158 523 LINE SMOOTH",
"111 596 OFFCURVE",
"93 608 OFFCURVE",
"36 609 CURVE SMOOTH",
"32 609 LINE SMOOTH",
"17 609 OFFCURVE",
"14 624 OFFCURVE",
"17 636 CURVE SMOOTH",
"18 646 OFFCURVE",
"25 652 OFFCURVE",
"33 652 CURVE SMOOTH",
"101 651 OFFCURVE",
"245 651 OFFCURVE",
"298 652 CURVE SMOOTH",
"313 653 OFFCURVE",
"327 611 OFFCURVE",
"295 611 CURVE SMOOTH",
"244 611 OFFCURVE",
"239 601 OFFCURVE",
"239 597 CURVE SMOOTH",
"239 588 OFFCURVE",
"240 583 OFFCURVE",
"269 538 CURVE SMOOTH",
"401 335 LINE SMOOTH",
"405 329 OFFCURVE",
"414 340 OFFCURVE",
"419 348 CURVE SMOOTH",
"524 526 LINE SMOOTH",
"551 572 OFFCURVE",
"555 581 OFFCURVE",
"555 590 CURVE SMOOTH",
"555 603 OFFCURVE",
"550 610 OFFCURVE",
"504 610 CURVE SMOOTH",
"493 610 LINE",
"480 615 OFFCURVE",
"472 653 OFFCURVE",
"497 652 CURVE SMOOTH",
"547 651 OFFCURVE",
"639 650 OFFCURVE",
"717 652 CURVE SMOOTH",
"727 653 OFFCURVE",
"731 642 OFFCURVE",
"731 632 CURVE SMOOTH",
"731 624 OFFCURVE",
"726 610 OFFCURVE"
);
}
);
width = 729;
}
);
unicode = 0178;
},
{
glyphname = Z;
lastChange = "2017-10-06 16:36:12 +0000";
layers = (
{
layerId = "92E73F40-5E0C-43C4-B728-1A2B58992D44";
paths = (
{
closed = 1;
nodes = (
"128 492 LINE",
"127 482 OFFCURVE",
"94 477 OFFCURVE",
"86 496 CURVE",
"86 533 OFFCURVE",
"87 602 OFFCURVE",
"91 636 CURVE SMOOTH",
"94 645 OFFCURVE",
"109 649 OFFCURVE",
"118 650 CURVE SMOOTH",
"585 650 LINE SMOOTH",
"606 650 OFFCURVE",
"627 638 OFFCURVE",
"610 611 CURVE SMOOTH",
"198 72 LINE SMOOTH",
"184 58 OFFCURVE",
"221 58 OFFCURVE",
"227 58 CURVE SMOOTH",
"457 58 LINE SMOOTH",
"565 58 OFFCURVE",
"581 98 OFFCURVE",
"591 196 CURVE",
"600 208 OFFCURVE",
"637 209 OFFCURVE",
"637 196 CURVE SMOOTH",
"635 147 OFFCURVE",
"628 60 OFFCURVE",
"623 14 CURVE SMOOTH",
"621 2 OFFCURVE",
"595 -2 OFFCURVE",
"588 -2 CURVE SMOOTH",
"518 -2 OFFCURVE",
"388 -3 OFFCURVE",
"276 -3 CURVE SMOOTH",
"167 -3 OFFCURVE",
"73 -2 OFFCURVE",
"61 -2 CURVE SMOOTH",
"50 -2 OFFCURVE",
"34 3 OFFCURVE",
"36 21 CURVE SMOOTH",
"36 26 OFFCURVE",
"39 34 OFFCURVE",
"42 38 CURVE SMOOTH",
"449 575 LINE SMOOTH",
"454 581 OFFCURVE",
"451 592 OFFCURVE",
"448 592 CURVE SMOOTH",
"246 592 LINE SMOOTH",
"151 592 OFFCURVE",
"140 587 OFFCURVE",
"128 492 CURVE"
);
}
);
width = 705;
}
);
unicode = 005A;
},
{
glyphname = Zcaron;
lastChange = "2017-10-06 16:36:12 +0000";
layers = (
{
layerId = "92E73F40-5E0C-43C4-B728-1A2B58992D44";
paths = (
{
closed = 1;
nodes = (
"411 702 LINE SMOOTH",
"405 697 OFFCURVE",
"402 695 OFFCURVE",
"393 695 CURVE SMOOTH",
"318 695 LINE SMOOTH",
"309 695 OFFCURVE",
"298 699 OFFCURVE",
"296 707 CURVE SMOOTH",
"202 871 LINE SMOOTH",
"198 878 OFFCURVE",
"203 883 OFFCURVE",
"206 884 CURVE SMOOTH",
"208 886 OFFCURVE",
"212 886 OFFCURVE",
"216 886 CURVE SMOOTH",
"223 886 OFFCURVE",
"232 884 OFFCURVE",
"236 880 CURVE SMOOTH",
"364 779 LINE",
"472 880 LINE SMOOTH",
"476 883 OFFCURVE",
"483 885 OFFCURVE",
"490 885 CURVE SMOOTH",
"501 885 OFFCURVE",
"509 878 OFFCURVE",
"507 872 CURVE SMOOTH"
);
},
{
closed = 1;
nodes = (
"128 492 LINE",
"127 482 OFFCURVE",
"94 477 OFFCURVE",
"86 496 CURVE",
"86 533 OFFCURVE",
"87 602 OFFCURVE",
"91 636 CURVE SMOOTH",
"94 645 OFFCURVE",
"109 649 OFFCURVE",
"118 650 CURVE SMOOTH",
"585 650 LINE SMOOTH",
"606 650 OFFCURVE",
"627 638 OFFCURVE",
"610 611 CURVE SMOOTH",
"198 72 LINE SMOOTH",
"184 58 OFFCURVE",
"221 58 OFFCURVE",
"227 58 CURVE SMOOTH",
"457 58 LINE SMOOTH",
"565 58 OFFCURVE",
"581 98 OFFCURVE",
"591 196 CURVE",
"600 208 OFFCURVE",
"637 209 OFFCURVE",
"637 196 CURVE SMOOTH",
"635 147 OFFCURVE",
"628 60 OFFCURVE",
"623 14 CURVE SMOOTH",
"621 2 OFFCURVE",
"595 -2 OFFCURVE",
"588 -2 CURVE SMOOTH",
"518 -2 OFFCURVE",
"388 -3 OFFCURVE",
"276 -3 CURVE SMOOTH",
"167 -3 OFFCURVE",
"73 -2 OFFCURVE",
"61 -2 CURVE SMOOTH",
"50 -2 OFFCURVE",
"34 3 OFFCURVE",
"36 21 CURVE SMOOTH",
"36 26 OFFCURVE",
"39 34 OFFCURVE",
"42 38 CURVE SMOOTH",
"449 575 LINE SMOOTH",
"454 581 OFFCURVE",
"451 592 OFFCURVE",
"448 592 CURVE SMOOTH",
"246 592 LINE SMOOTH",
"151 592 OFFCURVE",
"140 587 OFFCURVE",
"128 492 CURVE"
);
}
);
width = 705;
}
);
unicode = 017D;
},
{
glyphname = a;
lastChange = "2017-10-06 16:36:12 +0000";
layers = (
{
layerId = "92E73F40-5E0C-43C4-B728-1A2B58992D44";
paths = (
{
closed = 1;
nodes = (
"227 35 CURVE SMOOTH",
"184 0 OFFCURVE",
"163 -12 OFFCURVE",
"125 -12 CURVE SMOOTH",
"67 -12 OFFCURVE",
"25 26 OFFCURVE",
"25 81 CURVE SMOOTH",
"25 135 OFFCURVE",
"64 168 OFFCURVE",
"132 186 CURVE SMOOTH",
"167 195 OFFCURVE",
"189 206 OFFCURVE",
"222 221 CURVE SMOOTH",
"225 224 OFFCURVE",
"230 228 OFFCURVE",
"230 234 CURVE SMOOTH",
"229 297 LINE SMOOTH",
"228 352 OFFCURVE",
"206 379 OFFCURVE",
"169 379 CURVE SMOOTH",
"150 379 OFFCURVE",
"119 359 OFFCURVE",
"119 341 CURVE SMOOTH",
"119 329 OFFCURVE",
"118 327 OFFCURVE",
"123 316 CURVE",
"114 306 OFFCURVE",
"67 285 OFFCURVE",
"60 283 CURVE SMOOTH",
"41 277 OFFCURVE",
"31 279 OFFCURVE",
"31 303 CURVE SMOOTH",
"31 330 OFFCURVE",
"57 360 OFFCURVE",
"94 390 CURVE SMOOTH",
"131 419 OFFCURVE",
"156 431 OFFCURVE",
"189 431 CURVE SMOOTH",
"232 431 OFFCURVE",
"278 407 OFFCURVE",
"302 373 CURVE SMOOTH",
"318 350 OFFCURVE",
"319 341 OFFCURVE",
"319 279 CURVE SMOOTH",
"319 102 LINE SMOOTH",
"319 60 OFFCURVE",
"327 59 OFFCURVE",
"335 59 CURVE SMOOTH",
"351 59 OFFCURVE",
"361 65 OFFCURVE",
"373 76 CURVE SMOOTH",
"378 79 OFFCURVE",
"379 80 OFFCURVE",
"385 80 CURVE SMOOTH",
"400 77 OFFCURVE",
"401 58 OFFCURVE",
"396 47 CURVE",
"355 11 OFFCURVE",
"315 -12 OFFCURVE",
"289 -12 CURVE SMOOTH",
"260 -12 OFFCURVE",
"243 4 OFFCURVE",
"235 34 CURVE SMOOTH",
"234 38 OFFCURVE",
"231 38 OFFCURVE"
);
},
{
closed = 1;
nodes = (
"221 176 CURVE SMOOTH",
"201 166 OFFCURVE",
"181 157 OFFCURVE",
"160 148 CURVE SMOOTH",
"122 133 OFFCURVE",
"110 117 OFFCURVE",
"110 94 CURVE SMOOTH",
"110 67 OFFCURVE",
"131 46 OFFCURVE",
"159 46 CURVE SMOOTH",
"176 46 OFFCURVE",
"221 73 OFFCURVE",
"229 93 CURVE",
"229 160 LINE SMOOTH",
"229 168 OFFCURVE",
"226 178 OFFCURVE"
);
}
);
width = 414;
}
);
unicode = 0061;
},
{
glyphname = aacute;
lastChange = "2017-10-06 16:36:12 +0000";
layers = (
{
layerId = "92E73F40-5E0C-43C4-B728-1A2B58992D44";
paths = (
{
closed = 1;
nodes = (
"323 644 CURVE",
"323 642 LINE SMOOTH",
"323 641 OFFCURVE",
"322 639 OFFCURVE",
"321 638 CURVE SMOOTH",
"182 469 LINE SMOOTH",
"174 459 OFFCURVE",
"142 461 OFFCURVE",
"149 483 CURVE SMOOTH",
"196 644 LINE SMOOTH",
"199 655 OFFCURVE",
"210 661 OFFCURVE",
"219 661 CURVE SMOOTH",
"305 661 LINE SMOOTH",
"315 661 OFFCURVE",
"326 658 OFFCURVE",
"324 645 CURVE SMOOTH",
"323 644 OFFCURVE",
"323 644 OFFCURVE"
);
},
{
closed = 1;
nodes = (
"227 35 CURVE SMOOTH",
"184 0 OFFCURVE",
"163 -12 OFFCURVE",
"125 -12 CURVE SMOOTH",
"67 -12 OFFCURVE",
"25 26 OFFCURVE",
"25 81 CURVE SMOOTH",
"25 135 OFFCURVE",
"64 168 OFFCURVE",
"132 186 CURVE SMOOTH",
"167 195 OFFCURVE",
"189 206 OFFCURVE",
"222 221 CURVE SMOOTH",
"225 224 OFFCURVE",
"230 228 OFFCURVE",
"230 234 CURVE SMOOTH",
"229 297 LINE SMOOTH",
"228 352 OFFCURVE",
"206 379 OFFCURVE",
"169 379 CURVE SMOOTH",
"150 379 OFFCURVE",
"119 359 OFFCURVE",
"119 341 CURVE SMOOTH",
"119 329 OFFCURVE",
"118 327 OFFCURVE",
"123 316 CURVE",
"114 306 OFFCURVE",
"67 285 OFFCURVE",
"60 283 CURVE SMOOTH",
"41 277 OFFCURVE",
"31 279 OFFCURVE",
"31 303 CURVE SMOOTH",
"31 330 OFFCURVE",
"57 360 OFFCURVE",
"94 390 CURVE SMOOTH",
"131 419 OFFCURVE",
"156 431 OFFCURVE",
"189 431 CURVE SMOOTH",
"232 431 OFFCURVE",
"278 407 OFFCURVE",
"302 373 CURVE SMOOTH",
"318 350 OFFCURVE",
"319 341 OFFCURVE",
"319 279 CURVE SMOOTH",
"319 102 LINE SMOOTH",
"319 60 OFFCURVE",
"327 59 OFFCURVE",
"335 59 CURVE SMOOTH",
"351 59 OFFCURVE",
"361 65 OFFCURVE",
"373 76 CURVE SMOOTH",
"378 79 OFFCURVE",
"379 80 OFFCURVE",
"385 80 CURVE SMOOTH",
"400 77 OFFCURVE",
"401 58 OFFCURVE",
"396 47 CURVE",
"355 11 OFFCURVE",
"315 -12 OFFCURVE",
"289 -12 CURVE SMOOTH",
"260 -12 OFFCURVE",
"243 4 OFFCURVE",
"235 34 CURVE SMOOTH",
"234 38 OFFCURVE",
"231 38 OFFCURVE"
);
},
{
closed = 1;
nodes = (
"221 176 CURVE SMOOTH",
"201 166 OFFCURVE",
"181 157 OFFCURVE",
"160 148 CURVE SMOOTH",
"122 133 OFFCURVE",
"110 117 OFFCURVE",
"110 94 CURVE SMOOTH",
"110 67 OFFCURVE",
"131 46 OFFCURVE",
"159 46 CURVE SMOOTH",
"176 46 OFFCURVE",
"221 73 OFFCURVE",
"229 93 CURVE",
"229 160 LINE SMOOTH",
"229 168 OFFCURVE",
"226 178 OFFCURVE"
);
}
);
width = 414;
}
);
unicode = 00E1;
},
{
glyphname = acircumflex;
lastChange = "2017-10-06 16:36:12 +0000";
layers = (
{
layerId = "92E73F40-5E0C-43C4-B728-1A2B58992D44";
paths = (
{
closed = 1;
nodes = (
"323 474 CURVE SMOOTH",
"316 472 OFFCURVE",
"304 473 OFFCURVE",
"299 477 CURVE SMOOTH",
"188 572 LINE",
"84 477 LINE SMOOTH",
"72 467 OFFCURVE",
"45 476 OFFCURVE",
"53 489 CURVE SMOOTH",
"140 636 LINE SMOOTH",
"144 642 OFFCURVE",
"150 646 OFFCURVE",
"156 648 CURVE SMOOTH",
"164 649 OFFCURVE",
"207 650 OFFCURVE",
"220 649 CURVE SMOOTH",
"231 648 OFFCURVE",
"235 646 OFFCURVE",
"241 637 CURVE SMOOTH",
"327 494 LINE SMOOTH",
"330 487 OFFCURVE",
"334 477 OFFCURVE"
);
},
{
closed = 1;
nodes = (
"227 35 CURVE SMOOTH",
"184 0 OFFCURVE",
"163 -12 OFFCURVE",
"125 -12 CURVE SMOOTH",
"67 -12 OFFCURVE",
"25 26 OFFCURVE",
"25 81 CURVE SMOOTH",
"25 135 OFFCURVE",
"64 168 OFFCURVE",
"132 186 CURVE SMOOTH",
"167 195 OFFCURVE",
"189 206 OFFCURVE",
"222 221 CURVE SMOOTH",
"225 224 OFFCURVE",
"230 228 OFFCURVE",
"230 234 CURVE SMOOTH",
"229 297 LINE SMOOTH",
"228 352 OFFCURVE",
"206 379 OFFCURVE",
"169 379 CURVE SMOOTH",
"150 379 OFFCURVE",
"119 359 OFFCURVE",
"119 341 CURVE SMOOTH",
"119 329 OFFCURVE",
"118 327 OFFCURVE",
"123 316 CURVE",
"114 306 OFFCURVE",
"67 285 OFFCURVE",
"60 283 CURVE SMOOTH",
"41 277 OFFCURVE",
"31 279 OFFCURVE",
"31 303 CURVE SMOOTH",
"31 330 OFFCURVE",
"57 360 OFFCURVE",
"94 390 CURVE SMOOTH",
"131 419 OFFCURVE",
"156 431 OFFCURVE",
"189 431 CURVE SMOOTH",
"232 431 OFFCURVE",
"278 407 OFFCURVE",
"302 373 CURVE SMOOTH",
"318 350 OFFCURVE",
"319 341 OFFCURVE",
"319 279 CURVE SMOOTH",
"319 102 LINE SMOOTH",
"319 60 OFFCURVE",
"327 59 OFFCURVE",
"335 59 CURVE SMOOTH",
"351 59 OFFCURVE",
"361 65 OFFCURVE",
"373 76 CURVE SMOOTH",
"378 79 OFFCURVE",
"379 80 OFFCURVE",
"385 80 CURVE SMOOTH",
"400 77 OFFCURVE",
"401 58 OFFCURVE",
"396 47 CURVE",
"355 11 OFFCURVE",
"315 -12 OFFCURVE",
"289 -12 CURVE SMOOTH",
"260 -12 OFFCURVE",
"243 4 OFFCURVE",
"235 34 CURVE SMOOTH",
"234 38 OFFCURVE",
"231 38 OFFCURVE"
);
},
{
closed = 1;
nodes = (
"221 176 CURVE SMOOTH",
"201 166 OFFCURVE",
"181 157 OFFCURVE",
"160 148 CURVE SMOOTH",
"122 133 OFFCURVE",
"110 117 OFFCURVE",
"110 94 CURVE SMOOTH",
"110 67 OFFCURVE",
"131 46 OFFCURVE",
"159 46 CURVE SMOOTH",
"176 46 OFFCURVE",
"221 73 OFFCURVE",
"229 93 CURVE",
"229 160 LINE SMOOTH",
"229 168 OFFCURVE",
"226 178 OFFCURVE"
);
}
);
width = 414;
}
);
unicode = 00E2;
},
{
glyphname = adieresis;
lastChange = "2017-10-06 16:36:12 +0000";
layers = (
{
layerId = "92E73F40-5E0C-43C4-B728-1A2B58992D44";
paths = (
{
closed = 1;
nodes = (
"290 475 CURVE SMOOTH",
"257 475 OFFCURVE",
"229 502 OFFCURVE",
"229 537 CURVE SMOOTH",
"229 570 OFFCURVE",
"257 598 OFFCURVE",
"290 598 CURVE SMOOTH",
"325 598 OFFCURVE",
"351 570 OFFCURVE",
"351 537 CURVE SMOOTH",
"351 503 OFFCURVE",
"325 475 OFFCURVE"
);
},
{
closed = 1;
nodes = (
"126 475 CURVE SMOOTH",
"93 475 OFFCURVE",
"65 501 OFFCURVE",
"65 537 CURVE SMOOTH",
"65 570 OFFCURVE",
"93 598 OFFCURVE",
"126 598 CURVE SMOOTH",
"160 598 OFFCURVE",
"187 570 OFFCURVE",
"187 537 CURVE SMOOTH",
"187 501 OFFCURVE",
"159 475 OFFCURVE"
);
},
{
closed = 1;
nodes = (
"227 35 CURVE SMOOTH",
"184 0 OFFCURVE",
"163 -12 OFFCURVE",
"125 -12 CURVE SMOOTH",
"67 -12 OFFCURVE",
"25 26 OFFCURVE",
"25 81 CURVE SMOOTH",
"25 135 OFFCURVE",
"64 168 OFFCURVE",
"132 186 CURVE SMOOTH",
"167 195 OFFCURVE",
"189 206 OFFCURVE",
"222 221 CURVE SMOOTH",
"225 224 OFFCURVE",
"230 228 OFFCURVE",
"230 234 CURVE SMOOTH",
"229 297 LINE SMOOTH",
"228 352 OFFCURVE",
"206 379 OFFCURVE",
"169 379 CURVE SMOOTH",
"150 379 OFFCURVE",
"119 359 OFFCURVE",
"119 341 CURVE SMOOTH",
"119 329 OFFCURVE",
"118 327 OFFCURVE",
"123 316 CURVE",
"114 306 OFFCURVE",
"67 285 OFFCURVE",
"60 283 CURVE SMOOTH",
"41 277 OFFCURVE",
"31 279 OFFCURVE",
"31 303 CURVE SMOOTH",
"31 330 OFFCURVE",
"57 360 OFFCURVE",
"94 390 CURVE SMOOTH",
"131 419 OFFCURVE",
"156 431 OFFCURVE",
"189 431 CURVE SMOOTH",
"232 431 OFFCURVE",
"278 407 OFFCURVE",
"302 373 CURVE SMOOTH",
"318 350 OFFCURVE",
"319 341 OFFCURVE",
"319 279 CURVE SMOOTH",
"319 102 LINE SMOOTH",
"319 60 OFFCURVE",
"327 59 OFFCURVE",
"335 59 CURVE SMOOTH",
"351 59 OFFCURVE",
"361 65 OFFCURVE",
"373 76 CURVE SMOOTH",
"378 79 OFFCURVE",
"379 80 OFFCURVE",
"385 80 CURVE SMOOTH",
"400 77 OFFCURVE",
"401 58 OFFCURVE",
"396 47 CURVE",
"355 11 OFFCURVE",
"315 -12 OFFCURVE",
"289 -12 CURVE SMOOTH",
"260 -12 OFFCURVE",
"243 4 OFFCURVE",
"235 34 CURVE SMOOTH",
"234 38 OFFCURVE",
"231 38 OFFCURVE"
);
},
{
closed = 1;
nodes = (
"221 176 CURVE SMOOTH",
"201 166 OFFCURVE",
"181 157 OFFCURVE",
"160 148 CURVE SMOOTH",
"122 133 OFFCURVE",
"110 117 OFFCURVE",
"110 94 CURVE SMOOTH",
"110 67 OFFCURVE",
"131 46 OFFCURVE",
"159 46 CURVE SMOOTH",
"176 46 OFFCURVE",
"221 73 OFFCURVE",
"229 93 CURVE",
"229 160 LINE SMOOTH",
"229 168 OFFCURVE",
"226 178 OFFCURVE"
);
}
);
width = 414;
}
);
unicode = 00E4;
},
{
glyphname = agrave;
lastChange = "2017-10-06 16:36:12 +0000";
layers = (
{
layerId = "92E73F40-5E0C-43C4-B728-1A2B58992D44";
paths = (
{
closed = 1;
nodes = (
"233 474 CURVE SMOOTH",
"202 515 OFFCURVE",
"145 583 OFFCURVE",
"102 629 CURVE SMOOTH",
"92 641 OFFCURVE",
"107 657 OFFCURVE",
"121 657 CURVE SMOOTH",
"195 658 LINE SMOOTH",
"205 658 OFFCURVE",
"213 657 OFFCURVE",
"218 647 CURVE SMOOTH",
"234 602 OFFCURVE",
"257 528 OFFCURVE",
"267 485 CURVE",
"267 463 OFFCURVE",
"241 466 OFFCURVE"
);
},
{
closed = 1;
nodes = (
"227 35 CURVE SMOOTH",
"184 0 OFFCURVE",
"163 -12 OFFCURVE",
"125 -12 CURVE SMOOTH",
"67 -12 OFFCURVE",
"25 26 OFFCURVE",
"25 81 CURVE SMOOTH",
"25 135 OFFCURVE",
"64 168 OFFCURVE",
"132 186 CURVE SMOOTH",
"167 195 OFFCURVE",
"189 206 OFFCURVE",
"222 221 CURVE SMOOTH",
"225 224 OFFCURVE",
"230 228 OFFCURVE",
"230 234 CURVE SMOOTH",
"229 297 LINE SMOOTH",
"228 352 OFFCURVE",
"206 379 OFFCURVE",
"169 379 CURVE SMOOTH",
"150 379 OFFCURVE",
"119 359 OFFCURVE",
"119 341 CURVE SMOOTH",
"119 329 OFFCURVE",
"118 327 OFFCURVE",
"123 316 CURVE",
"114 306 OFFCURVE",
"67 285 OFFCURVE",
"60 283 CURVE SMOOTH",
"41 277 OFFCURVE",
"31 279 OFFCURVE",
"31 303 CURVE SMOOTH",
"31 330 OFFCURVE",
"57 360 OFFCURVE",
"94 390 CURVE SMOOTH",
"131 419 OFFCURVE",
"156 431 OFFCURVE",
"189 431 CURVE SMOOTH",
"232 431 OFFCURVE",
"278 407 OFFCURVE",
"302 373 CURVE SMOOTH",
"318 350 OFFCURVE",
"319 341 OFFCURVE",
"319 279 CURVE SMOOTH",
"319 102 LINE SMOOTH",
"319 60 OFFCURVE",
"327 59 OFFCURVE",
"335 59 CURVE SMOOTH",
"351 59 OFFCURVE",
"361 65 OFFCURVE",
"373 76 CURVE SMOOTH",
"378 79 OFFCURVE",
"379 80 OFFCURVE",
"385 80 CURVE SMOOTH",
"400 77 OFFCURVE",
"401 58 OFFCURVE",
"396 47 CURVE",
"355 11 OFFCURVE",
"315 -12 OFFCURVE",
"289 -12 CURVE SMOOTH",
"260 -12 OFFCURVE",
"243 4 OFFCURVE",
"235 34 CURVE SMOOTH",
"234 38 OFFCURVE",
"231 38 OFFCURVE"
);
},
{
closed = 1;
nodes = (
"221 176 CURVE SMOOTH",
"201 166 OFFCURVE",
"181 157 OFFCURVE",
"160 148 CURVE SMOOTH",
"122 133 OFFCURVE",
"110 117 OFFCURVE",
"110 94 CURVE SMOOTH",
"110 67 OFFCURVE",
"131 46 OFFCURVE",
"159 46 CURVE SMOOTH",
"176 46 OFFCURVE",
"221 73 OFFCURVE",
"229 93 CURVE",
"229 160 LINE SMOOTH",
"229 168 OFFCURVE",
"226 178 OFFCURVE"
);
}
);
width = 414;
}
);
unicode = 00E0;
},
{
glyphname = aring;
lastChange = "2017-10-06 16:36:12 +0000";
layers = (
{
layerId = "92E73F40-5E0C-43C4-B728-1A2B58992D44";
paths = (
{
closed = 1;
nodes = (
"197 474 CURVE SMOOTH",
"140 474 OFFCURVE",
"94 520 OFFCURVE",
"94 577 CURVE SMOOTH",
"94 634 OFFCURVE",
"140 680 OFFCURVE",
"197 680 CURVE SMOOTH",
"252 680 OFFCURVE",
"298 634 OFFCURVE",
"298 577 CURVE SMOOTH",
"298 520 OFFCURVE",
"252 474 OFFCURVE"
);
},
{
closed = 1;
nodes = (
"197 625 CURVE SMOOTH",
"170 625 OFFCURVE",
"149 604 OFFCURVE",
"149 577 CURVE SMOOTH",
"149 550 OFFCURVE",
"170 529 OFFCURVE",
"197 529 CURVE SMOOTH",
"221 529 OFFCURVE",
"243 550 OFFCURVE",
"243 577 CURVE SMOOTH",
"243 604 OFFCURVE",
"221 625 OFFCURVE"
);
},
{
closed = 1;
nodes = (
"227 35 CURVE SMOOTH",
"184 0 OFFCURVE",
"163 -12 OFFCURVE",
"125 -12 CURVE SMOOTH",
"67 -12 OFFCURVE",
"25 26 OFFCURVE",
"25 81 CURVE SMOOTH",
"25 135 OFFCURVE",
"64 168 OFFCURVE",
"132 186 CURVE SMOOTH",
"167 195 OFFCURVE",
"189 206 OFFCURVE",
"222 221 CURVE SMOOTH",
"225 224 OFFCURVE",
"230 228 OFFCURVE",
"230 234 CURVE SMOOTH",
"229 297 LINE SMOOTH",
"228 352 OFFCURVE",
"206 379 OFFCURVE",
"169 379 CURVE SMOOTH",
"150 379 OFFCURVE",
"119 359 OFFCURVE",
"119 341 CURVE SMOOTH",
"119 329 OFFCURVE",
"118 327 OFFCURVE",
"123 316 CURVE",
"114 306 OFFCURVE",
"67 285 OFFCURVE",
"60 283 CURVE SMOOTH",
"41 277 OFFCURVE",
"31 279 OFFCURVE",
"31 303 CURVE SMOOTH",
"31 330 OFFCURVE",
"57 360 OFFCURVE",
"94 390 CURVE SMOOTH",
"131 419 OFFCURVE",
"156 431 OFFCURVE",
"189 431 CURVE SMOOTH",
"232 431 OFFCURVE",
"278 407 OFFCURVE",
"302 373 CURVE SMOOTH",
"318 350 OFFCURVE",
"319 341 OFFCURVE",
"319 279 CURVE SMOOTH",
"319 102 LINE SMOOTH",
"319 60 OFFCURVE",
"327 59 OFFCURVE",
"335 59 CURVE SMOOTH",
"351 59 OFFCURVE",
"361 65 OFFCURVE",
"373 76 CURVE SMOOTH",
"378 79 OFFCURVE",
"379 80 OFFCURVE",
"385 80 CURVE SMOOTH",
"400 77 OFFCURVE",
"401 58 OFFCURVE",
"396 47 CURVE",
"355 11 OFFCURVE",
"315 -12 OFFCURVE",
"289 -12 CURVE SMOOTH",
"260 -12 OFFCURVE",
"243 4 OFFCURVE",
"235 34 CURVE SMOOTH",
"234 38 OFFCURVE",
"231 38 OFFCURVE"
);
},
{
closed = 1;
nodes = (
"221 176 CURVE SMOOTH",
"201 166 OFFCURVE",
"181 157 OFFCURVE",
"160 148 CURVE SMOOTH",
"122 133 OFFCURVE",
"110 117 OFFCURVE",
"110 94 CURVE SMOOTH",
"110 67 OFFCURVE",
"131 46 OFFCURVE",
"159 46 CURVE SMOOTH",
"176 46 OFFCURVE",
"221 73 OFFCURVE",
"229 93 CURVE",
"229 160 LINE SMOOTH",
"229 168 OFFCURVE",
"226 178 OFFCURVE"
);
}
);
width = 414;
}
);
unicode = 00E5;
},
{
glyphname = atilde;
lastChange = "2017-10-06 16:36:12 +0000";
layers = (
{
layerId = "92E73F40-5E0C-43C4-B728-1A2B58992D44";
paths = (
{
closed = 1;
nodes = (
"265 467 CURVE SMOOTH",
"237 467 OFFCURVE",
"205 479 OFFCURVE",
"168 504 CURVE SMOOTH",
"132 528 OFFCURVE",
"125 532 OFFCURVE",
"114 532 CURVE SMOOTH",
"100 532 OFFCURVE",
"91 525 OFFCURVE",
"84 493 CURVE SMOOTH",
"83 487 OFFCURVE",
"81 481 OFFCURVE",
"81 475 CURVE SMOOTH",
"75 464 OFFCURVE",
"47 459 OFFCURVE",
"44 476 CURVE SMOOTH",
"48 558 OFFCURVE",
"81 607 OFFCURVE",
"144 607 CURVE SMOOTH",
"175 607 OFFCURVE",
"198 598 OFFCURVE",
"242 569 CURVE SMOOTH",
"272 550 OFFCURVE",
"286 545 OFFCURVE",
"296 545 CURVE SMOOTH",
"311 545 OFFCURVE",
"322 551 OFFCURVE",
"329 602 CURVE SMOOTH",
"330 607 OFFCURVE",
"338 612 OFFCURVE",
"347 612 CURVE SMOOTH",
"353 613 OFFCURVE",
"363 610 OFFCURVE",
"364 602 CURVE SMOOTH",
"366 596 OFFCURVE",
"366 592 OFFCURVE",
"366 589 CURVE SMOOTH",
"366 521 OFFCURVE",
"325 467 OFFCURVE"
);
},
{
closed = 1;
nodes = (
"227 35 CURVE SMOOTH",
"184 0 OFFCURVE",
"163 -12 OFFCURVE",
"125 -12 CURVE SMOOTH",
"67 -12 OFFCURVE",
"25 26 OFFCURVE",
"25 81 CURVE SMOOTH",
"25 135 OFFCURVE",
"64 168 OFFCURVE",
"132 186 CURVE SMOOTH",
"167 195 OFFCURVE",
"189 206 OFFCURVE",
"222 221 CURVE SMOOTH",
"225 224 OFFCURVE",
"230 228 OFFCURVE",
"230 234 CURVE SMOOTH",
"229 297 LINE SMOOTH",
"228 352 OFFCURVE",
"206 379 OFFCURVE",
"169 379 CURVE SMOOTH",
"150 379 OFFCURVE",
"119 359 OFFCURVE",
"119 341 CURVE SMOOTH",
"119 329 OFFCURVE",
"118 327 OFFCURVE",
"123 316 CURVE",
"114 306 OFFCURVE",
"67 285 OFFCURVE",
"60 283 CURVE SMOOTH",
"41 277 OFFCURVE",
"31 279 OFFCURVE",
"31 303 CURVE SMOOTH",
"31 330 OFFCURVE",
"57 360 OFFCURVE",
"94 390 CURVE SMOOTH",
"131 419 OFFCURVE",
"156 431 OFFCURVE",
"189 431 CURVE SMOOTH",
"232 431 OFFCURVE",
"278 407 OFFCURVE",
"302 373 CURVE SMOOTH",
"318 350 OFFCURVE",
"319 341 OFFCURVE",
"319 279 CURVE SMOOTH",
"319 102 LINE SMOOTH",
"319 60 OFFCURVE",
"327 59 OFFCURVE",
"335 59 CURVE SMOOTH",
"351 59 OFFCURVE",
"361 65 OFFCURVE",
"373 76 CURVE SMOOTH",
"378 79 OFFCURVE",
"379 80 OFFCURVE",
"385 80 CURVE SMOOTH",
"400 77 OFFCURVE",
"401 58 OFFCURVE",
"396 47 CURVE",
"355 11 OFFCURVE",
"315 -12 OFFCURVE",
"289 -12 CURVE SMOOTH",
"260 -12 OFFCURVE",
"243 4 OFFCURVE",
"235 34 CURVE SMOOTH",
"234 38 OFFCURVE",
"231 38 OFFCURVE"
);
},
{
closed = 1;
nodes = (
"221 176 CURVE SMOOTH",
"201 166 OFFCURVE",
"181 157 OFFCURVE",
"160 148 CURVE SMOOTH",
"122 133 OFFCURVE",
"110 117 OFFCURVE",
"110 94 CURVE SMOOTH",
"110 67 OFFCURVE",
"131 46 OFFCURVE",
"159 46 CURVE SMOOTH",
"176 46 OFFCURVE",
"221 73 OFFCURVE",
"229 93 CURVE",
"229 160 LINE SMOOTH",
"229 168 OFFCURVE",
"226 178 OFFCURVE"
);
}
);
width = 414;
}
);
unicode = 00E3;
},
{
glyphname = ae;
lastChange = "2017-10-06 16:36:12 +0000";
layers = (
{
layerId = "92E73F40-5E0C-43C4-B728-1A2B58992D44";
paths = (
{
closed = 1;
nodes = (
"602 258 CURVE SMOOTH",
"366 258 LINE SMOOTH",
"350 258 OFFCURVE",
"344 254 OFFCURVE",
"344 242 CURVE SMOOTH",
"344 206 OFFCURVE",
"348 163 OFFCURVE",
"355 141 CURVE SMOOTH",
"371 92 OFFCURVE",
"421 57 OFFCURVE",
"471 57 CURVE SMOOTH",
"512 57 OFFCURVE",
"537 72 OFFCURVE",
"577 114 CURVE SMOOTH",
"583 120 OFFCURVE",
"599 123 OFFCURVE",
"605 116 CURVE SMOOTH",
"612 108 LINE SMOOTH",
"620 101 OFFCURVE",
"615 90 OFFCURVE",
"610 84 CURVE SMOOTH",
"567 34 OFFCURVE",
"504 -17 OFFCURVE",
"434 -17 CURVE SMOOTH",
"380 -17 OFFCURVE",
"333 8 OFFCURVE",
"299 52 CURVE SMOOTH",
"295 57 OFFCURVE",
"289 62 OFFCURVE",
"282 55 CURVE SMOOTH",
"241 13 OFFCURVE",
"184 -17 OFFCURVE",
"139 -17 CURVE SMOOTH",
"81 -17 OFFCURVE",
"36 23 OFFCURVE",
"36 77 CURVE SMOOTH",
"36 139 OFFCURVE",
"69 165 OFFCURVE",
"169 190 CURVE SMOOTH",
"207 200 OFFCURVE",
"227 209 OFFCURVE",
"255 227 CURVE",
"255 289 LINE SMOOTH",
"255 349 OFFCURVE",
"231 377 OFFCURVE",
"191 377 CURVE SMOOTH",
"159 377 OFFCURVE",
"135 357 OFFCURVE",
"135 338 CURVE SMOOTH",
"135 325 OFFCURVE",
"142 312 OFFCURVE",
"126 305 CURVE SMOOTH",
"72 280 LINE SMOOTH",
"53 271 OFFCURVE",
"45 276 OFFCURVE",
"45 305 CURVE SMOOTH",
"45 333 OFFCURVE",
"68 359 OFFCURVE",
"112 393 CURVE SMOOTH",
"147 420 OFFCURVE",
"176 431 OFFCURVE",
"208 431 CURVE SMOOTH",
"248 431 OFFCURVE",
"289 413 OFFCURVE",
"315 384 CURVE SMOOTH",
"323 376 OFFCURVE",
"325 382 OFFCURVE",
"332 388 CURVE SMOOTH",
"367 417 OFFCURVE",
"409 433 OFFCURVE",
"458 433 CURVE SMOOTH",
"544 433 OFFCURVE",
"578 388 OFFCURVE",
"610 315 CURVE SMOOTH",
"614 306 OFFCURVE",
"616 303 OFFCURVE",
"627 292 CURVE",
"627 275 LINE SMOOTH",
"627 260 OFFCURVE",
"614 258 OFFCURVE"
);
},
{
closed = 1;
nodes = (
"436 389 CURVE SMOOTH",
"393 389 OFFCURVE",
"363 360 OFFCURVE",
"350 303 CURVE SMOOTH",
"349 300 OFFCURVE",
"364 300 OFFCURVE",
"366 300 CURVE SMOOTH",
"505 300 LINE SMOOTH",
"508 300 OFFCURVE",
"516 304 OFFCURVE",
"515 305 CURVE SMOOTH",
"504 360 OFFCURVE",
"471 389 OFFCURVE"
);
},
{
closed = 1;
nodes = (
"255 165 LINE SMOOTH",
"255 169 OFFCURVE",
"254 176 OFFCURVE",
"248 174 CURVE SMOOTH",
"235 167 OFFCURVE",
"218 159 OFFCURVE",
"191 150 CURVE SMOOTH",
"137 132 OFFCURVE",
"125 118 OFFCURVE",
"125 91 CURVE SMOOTH",
"125 60 OFFCURVE",
"145 43 OFFCURVE",
"174 43 CURVE SMOOTH",
"197 43 OFFCURVE",
"224 56 OFFCURVE",
"255 85 CURVE"
);
}
);
width = 654;
}
);
unicode = 00E6;
},
{
glyphname = b;
lastChange = "2017-10-06 16:36:12 +0000";
layers = (
{
layerId = "92E73F40-5E0C-43C4-B728-1A2B58992D44";
paths = (
{
closed = 1;
nodes = (
"228 -15 CURVE SMOOTH",
"199 -15 OFFCURVE",
"141 -7 OFFCURVE",
"92 4 CURVE SMOOTH",
"86 6 OFFCURVE",
"79 17 OFFCURVE",
"78 27 CURVE SMOOTH",
"80 222 OFFCURVE",
"79 462 OFFCURVE",
"78 589 CURVE SMOOTH",
"78 606 OFFCURVE",
"78 618 OFFCURVE",
"77 625 CURVE SMOOTH",
"77 634 OFFCURVE",
"72 636 OFFCURVE",
"60 638 CURVE SMOOTH",
"47 641 OFFCURVE",
"33 643 OFFCURVE",
"19 646 CURVE SMOOTH",
"5 651 OFFCURVE",
"5 679 OFFCURVE",
"19 683 CURVE SMOOTH",
"138 724 LINE SMOOTH",
"158 731 OFFCURVE",
"163 720 OFFCURVE",
"163 702 CURVE SMOOTH",
"163 634 OFFCURVE",
"163 474 OFFCURVE",
"163 389 CURVE SMOOTH",
"163 374 OFFCURVE",
"166 367 OFFCURVE",
"172 372 CURVE SMOOTH",
"206 396 OFFCURVE",
"253 432 OFFCURVE",
"294 432 CURVE SMOOTH",
"385 432 OFFCURVE",
"457 339 OFFCURVE",
"457 230 CURVE SMOOTH",
"457 92 OFFCURVE",
"362 -15 OFFCURVE"
);
},
{
closed = 1;
nodes = (
"256 362 CURVE SMOOTH",
"232 362 OFFCURVE",
"208 349 OFFCURVE",
"170 321 CURVE SMOOTH",
"166 318 OFFCURVE",
"164 307 OFFCURVE",
"164 293 CURVE SMOOTH",
"164 274 OFFCURVE",
"163 247 OFFCURVE",
"163 219 CURVE SMOOTH",
"163 173 OFFCURVE",
"164 125 OFFCURVE",
"170 101 CURVE SMOOTH",
"179 64 OFFCURVE",
"210 39 OFFCURVE",
"254 39 CURVE SMOOTH",
"322 39 OFFCURVE",
"369 101 OFFCURVE",
"369 199 CURVE SMOOTH",
"369 299 OFFCURVE",
"320 362 OFFCURVE"
);
}
);
width = 491;
}
);
unicode = 0062;
},
{
glyphname = c;
lastChange = "2017-10-06 16:36:12 +0000";
layers = (
{
layerId = "92E73F40-5E0C-43C4-B728-1A2B58992D44";
paths = (
{
closed = 1;
nodes = (
"389 93 CURVE SMOOTH",
"346 24 OFFCURVE",
"285 -12 OFFCURVE",
"213 -12 CURVE SMOOTH",
"107 -12 OFFCURVE",
"30 76 OFFCURVE",
"30 193 CURVE SMOOTH",
"30 326 OFFCURVE",
"137 432 OFFCURVE",
"270 432 CURVE SMOOTH",
"331 432 OFFCURVE",
"391 408 OFFCURVE",
"391 364 CURVE SMOOTH",
"391 341 OFFCURVE",
"373 323 OFFCURVE",
"351 323 CURVE SMOOTH",
"328 323 OFFCURVE",
"312 334 OFFCURVE",
"287 358 CURVE SMOOTH",
"266 379 OFFCURVE",
"253 384 OFFCURVE",
"235 384 CURVE SMOOTH",
"176 384 OFFCURVE",
"121 309 OFFCURVE",
"121 216 CURVE SMOOTH",
"121 117 OFFCURVE",
"174 53 OFFCURVE",
"247 53 CURVE SMOOTH",
"294 53 OFFCURVE",
"330 75 OFFCURVE",
"357 114 CURVE SMOOTH",
"360 121 OFFCURVE",
"369 131 OFFCURVE",
"380 128 CURVE SMOOTH",
"385 126 OFFCURVE",
"392 118 OFFCURVE",
"393 112 CURVE SMOOTH",
"395 105 OFFCURVE",
"391 96 OFFCURVE"
);
}
);
width = 432;
}
);
unicode = 0063;
},
{
glyphname = ccedilla;
lastChange = "2017-10-06 16:36:12 +0000";
layers = (
{
layerId = "92E73F40-5E0C-43C4-B728-1A2B58992D44";
paths = (
{
closed = 1;
nodes = (
"390 90 CURVE SMOOTH",
"353 33 OFFCURVE",
"305 -3 OFFCURVE",
"248 -13 CURVE",
"232 -43 LINE SMOOTH",
"231 -45 OFFCURVE",
"229 -52 OFFCURVE",
"233 -53 CURVE SMOOTH",
"269 -62 OFFCURVE",
"300 -95 OFFCURVE",
"300 -136 CURVE SMOOTH",
"300 -190 OFFCURVE",
"253 -234 OFFCURVE",
"200 -234 CURVE SMOOTH",
"186 -234 OFFCURVE",
"174 -233 OFFCURVE",
"157 -227 CURVE SMOOTH",
"150 -225 OFFCURVE",
"146 -213 OFFCURVE",
"150 -204 CURVE SMOOTH",
"152 -202 OFFCURVE",
"153 -200 OFFCURVE",
"154 -197 CURVE SMOOTH",
"161 -184 OFFCURVE",
"180 -194 OFFCURVE",
"190 -194 CURVE SMOOTH",
"214 -194 OFFCURVE",
"237 -174 OFFCURVE",
"237 -153 CURVE SMOOTH",
"237 -116 OFFCURVE",
"195 -112 OFFCURVE",
"161 -141 CURVE SMOOTH",
"154 -147 OFFCURVE",
"132 -141 OFFCURVE",
"141 -125 CURVE SMOOTH",
"200 -26 LINE SMOOTH",
"205 -19 OFFCURVE",
"200 -15 OFFCURVE",
"196 -15 CURVE SMOOTH",
"98 -6 OFFCURVE",
"30 81 OFFCURVE",
"30 192 CURVE SMOOTH",
"30 326 OFFCURVE",
"138 432 OFFCURVE",
"271 432 CURVE SMOOTH",
"332 432 OFFCURVE",
"392 408 OFFCURVE",
"392 364 CURVE SMOOTH",
"392 340 OFFCURVE",
"374 322 OFFCURVE",
"352 322 CURVE SMOOTH",
"329 322 OFFCURVE",
"313 333 OFFCURVE",
"288 358 CURVE SMOOTH",
"267 379 OFFCURVE",
"254 384 OFFCURVE",
"236 384 CURVE SMOOTH",
"177 384 OFFCURVE",
"120 308 OFFCURVE",
"120 214 CURVE SMOOTH",
"120 115 OFFCURVE",
"175 48 OFFCURVE",
"248 48 CURVE SMOOTH",
"295 48 OFFCURVE",
"331 73 OFFCURVE",
"358 111 CURVE SMOOTH",
"360 117 OFFCURVE",
"369 129 OFFCURVE",
"381 126 CURVE SMOOTH",
"385 124 OFFCURVE",
"393 115 OFFCURVE",
"394 110 CURVE SMOOTH",
"397 103 OFFCURVE",
"392 93 OFFCURVE"
);
}
);
width = 432;
}
);
unicode = 00E7;
},
{
glyphname = d;
lastChange = "2017-10-06 16:36:12 +0000";
layers = (
{
layerId = "92E73F40-5E0C-43C4-B728-1A2B58992D44";
paths = (
{
closed = 1;
nodes = (
"492 39 CURVE SMOOTH",
"459 23 OFFCURVE",
"397 0 OFFCURVE",
"363 -10 CURVE SMOOTH",
"338 -18 OFFCURVE",
"333 12 OFFCURVE",
"334 26 CURVE SMOOTH",
"335 42 OFFCURVE",
"330 45 OFFCURVE",
"326 43 CURVE SMOOTH",
"270 4 OFFCURVE",
"230 -15 OFFCURVE",
"192 -15 CURVE SMOOTH",
"96 -15 OFFCURVE",
"22 80 OFFCURVE",
"22 193 CURVE SMOOTH",
"22 327 OFFCURVE",
"120 432 OFFCURVE",
"248 432 CURVE SMOOTH",
"273 432 OFFCURVE",
"297 427 OFFCURVE",
"323 419 CURVE SMOOTH",
"334 416 OFFCURVE",
"334 433 OFFCURVE",
"335 442 CURVE SMOOTH",
"336 481 OFFCURVE",
"335 615 OFFCURVE",
"335 632 CURVE SMOOTH",
"334 636 OFFCURVE",
"334 642 OFFCURVE",
"330 644 CURVE SMOOTH",
"318 651 OFFCURVE",
"289 650 OFFCURVE",
"275 652 CURVE SMOOTH",
"264 653 OFFCURVE",
"263 661 OFFCURVE",
"262 670 CURVE SMOOTH",
"261 680 OFFCURVE",
"265 689 OFFCURVE",
"276 691 CURVE SMOOTH",
"310 702 OFFCURVE",
"360 719 OFFCURVE",
"399 734 CURVE SMOOTH",
"417 741 OFFCURVE",
"423 725 OFFCURVE",
"423 711 CURVE SMOOTH",
"423 121 LINE SMOOTH",
"423 72 OFFCURVE",
"426 71 OFFCURVE",
"444 71 CURVE SMOOTH",
"449 71 OFFCURVE",
"469 78 OFFCURVE",
"473 80 CURVE SMOOTH",
"485 82 OFFCURVE",
"492 85 OFFCURVE",
"498 68 CURVE SMOOTH",
"501 56 OFFCURVE",
"498 42 OFFCURVE"
);
},
{
closed = 1;
nodes = (
"334 310 LINE",
"299 361 OFFCURVE",
"268 380 OFFCURVE",
"227 380 CURVE SMOOTH",
"159 380 OFFCURVE",
"113 319 OFFCURVE",
"113 224 CURVE SMOOTH",
"113 123 OFFCURVE",
"164 55 OFFCURVE",
"228 55 CURVE SMOOTH",
"253 55 OFFCURVE",
"288 68 OFFCURVE",
"327 95 CURVE SMOOTH",
"328 95 OFFCURVE",
"333 102 OFFCURVE",
"334 113 CURVE SMOOTH"
);
}
);
width = 513;
}
);
unicode = 0064;
},
{
glyphname = eth;
lastChange = "2017-10-06 16:36:12 +0000";
layers = (
{
layerId = "92E73F40-5E0C-43C4-B728-1A2B58992D44";
paths = (
{
closed = 1;
nodes = (
"137 620 LINE SMOOTH",
"132 621 OFFCURVE",
"114 630 OFFCURVE",
"122 645 CURVE SMOOTH",
"130 658 LINE SMOOTH",
"136 670 OFFCURVE",
"149 674 OFFCURVE",
"160 671 CURVE SMOOTH",
"220 654 OFFCURVE",
"244 644 OFFCURVE",
"284 622 CURVE",
"374 667 LINE SMOOTH",
"389 671 OFFCURVE",
"397 668 OFFCURVE",
"403 657 CURVE SMOOTH",
"418 633 OFFCURVE",
"368 616 OFFCURVE",
"339 601 CURVE SMOOTH",
"330 596 OFFCURVE",
"329 590 OFFCURVE",
"338 583 CURVE SMOOTH",
"378 553 OFFCURVE",
"421 499 OFFCURVE",
"446 455 CURVE SMOOTH",
"482 389 OFFCURVE",
"503 310 OFFCURVE",
"503 238 CURVE SMOOTH",
"503 146 OFFCURVE",
"482 87 OFFCURVE",
"430 40 CURVE SMOOTH",
"388 4 OFFCURVE",
"335 -17 OFFCURVE",
"276 -17 CURVE SMOOTH",
"142 -17 OFFCURVE",
"46 79 OFFCURVE",
"46 212 CURVE SMOOTH",
"46 341 OFFCURVE",
"144 440 OFFCURVE",
"271 440 CURVE SMOOTH",
"295 440 OFFCURVE",
"313 436 OFFCURVE",
"332 430 CURVE SMOOTH",
"360 420 OFFCURVE",
"322 476 OFFCURVE",
"319 480 CURVE SMOOTH",
"304 504 OFFCURVE",
"292 517 OFFCURVE",
"266 542 CURVE SMOOTH",
"259 548 OFFCURVE",
"243 551 OFFCURVE",
"233 546 CURVE SMOOTH",
"108 479 LINE SMOOTH",
"101 478 OFFCURVE",
"91 479 OFFCURVE",
"86 491 CURVE SMOOTH",
"79 504 OFFCURVE",
"82 514 OFFCURVE",
"95 521 CURVE SMOOTH",
"201 577 LINE SMOOTH",
"207 580 OFFCURVE",
"208 587 OFFCURVE",
"202 590 CURVE SMOOTH",
"183 601 OFFCURVE",
"166 609 OFFCURVE",
"136 620 CURVE"
);
},
{
closed = 1;
nodes = (
"258 392 CURVE SMOOTH",
"194 392 OFFCURVE",
"141 331 OFFCURVE",
"141 244 CURVE SMOOTH",
"141 121 OFFCURVE",
"209 29 OFFCURVE",
"288 29 CURVE SMOOTH",
"356 29 OFFCURVE",
"407 89 OFFCURVE",
"407 178 CURVE SMOOTH",
"407 304 OFFCURVE",
"340 392 OFFCURVE"
);
}
);
width = 545;
}
);
unicode = 00F0;
},
{
glyphname = e;
lastChange = "2017-10-06 16:36:12 +0000";
layers = (
{
layerId = "92E73F40-5E0C-43C4-B728-1A2B58992D44";
paths = (
{
closed = 1;
nodes = (
"386 260 CURVE SMOOTH",
"311 257 OFFCURVE",
"193 259 OFFCURVE",
"131 260 CURVE SMOOTH",
"114 260 OFFCURVE",
"112 238 OFFCURVE",
"112 227 CURVE SMOOTH",
"112 128 OFFCURVE",
"172 58 OFFCURVE",
"251 58 CURVE SMOOTH",
"295 58 OFFCURVE",
"330 75 OFFCURVE",
"367 119 CURVE SMOOTH",
"371 124 OFFCURVE",
"380 127 OFFCURVE",
"387 125 CURVE SMOOTH",
"398 123 OFFCURVE",
"406 107 OFFCURVE",
"400 97 CURVE SMOOTH",
"351 40 OFFCURVE",
"291 -15 OFFCURVE",
"212 -15 CURVE SMOOTH",
"105 -15 OFFCURVE",
"26 82 OFFCURVE",
"26 202 CURVE SMOOTH",
"26 331 OFFCURVE",
"113 429 OFFCURVE",
"231 429 CURVE SMOOTH",
"301 429 OFFCURVE",
"347 401 OFFCURVE",
"376 340 CURVE SMOOTH",
"384 323 OFFCURVE",
"391 308 OFFCURVE",
"403 293 CURVE",
"408 277 OFFCURVE",
"406 261 OFFCURVE"
);
},
{
closed = 1;
nodes = (
"210 388 CURVE SMOOTH",
"173 388 OFFCURVE",
"144 363 OFFCURVE",
"125 312 CURVE SMOOTH",
"122 304 OFFCURVE",
"138 302 OFFCURVE",
"142 302 CURVE SMOOTH",
"277 302 LINE SMOOTH",
"282 302 OFFCURVE",
"295 303 OFFCURVE",
"293 309 CURVE SMOOTH",
"279 362 OFFCURVE",
"248 388 OFFCURVE"
);
}
);
width = 432;
}
);
unicode = 0065;
},
{
glyphname = eacute;
lastChange = "2017-10-06 16:36:12 +0000";
layers = (
{
layerId = "92E73F40-5E0C-43C4-B728-1A2B58992D44";
paths = (
{
closed = 1;
nodes = (
"345 638 CURVE SMOOTH",
"207 469 LINE SMOOTH",
"198 459 OFFCURVE",
"166 461 OFFCURVE",
"173 483 CURVE SMOOTH",
"221 644 LINE SMOOTH",
"224 655 OFFCURVE",
"235 661 OFFCURVE",
"243 661 CURVE SMOOTH",
"329 661 LINE SMOOTH",
"340 661 OFFCURVE",
"350 657 OFFCURVE",
"348 646 CURVE SMOOTH",
"348 643 OFFCURVE",
"347 640 OFFCURVE"
);
},
{
closed = 1;
nodes = (
"386 260 CURVE SMOOTH",
"311 257 OFFCURVE",
"194 259 OFFCURVE",
"132 260 CURVE SMOOTH",
"115 260 OFFCURVE",
"113 238 OFFCURVE",
"113 227 CURVE SMOOTH",
"113 128 OFFCURVE",
"172 58 OFFCURVE",
"251 58 CURVE SMOOTH",
"296 58 OFFCURVE",
"331 75 OFFCURVE",
"367 119 CURVE SMOOTH",
"372 124 OFFCURVE",
"380 127 OFFCURVE",
"387 125 CURVE SMOOTH",
"398 123 OFFCURVE",
"406 107 OFFCURVE",
"400 97 CURVE SMOOTH",
"352 40 OFFCURVE",
"292 -15 OFFCURVE",
"212 -15 CURVE SMOOTH",
"105 -15 OFFCURVE",
"26 82 OFFCURVE",
"26 202 CURVE SMOOTH",
"26 331 OFFCURVE",
"113 429 OFFCURVE",
"232 429 CURVE SMOOTH",
"301 429 OFFCURVE",
"348 401 OFFCURVE",
"376 340 CURVE SMOOTH",
"384 323 OFFCURVE",
"391 308 OFFCURVE",
"403 293 CURVE",
"409 277 OFFCURVE",
"406 261 OFFCURVE"
);
},
{
closed = 1;
nodes = (
"210 388 CURVE SMOOTH",
"174 388 OFFCURVE",
"144 363 OFFCURVE",
"125 312 CURVE SMOOTH",
"122 304 OFFCURVE",
"138 302 OFFCURVE",
"142 302 CURVE SMOOTH",
"277 302 LINE SMOOTH",
"283 302 OFFCURVE",
"295 303 OFFCURVE",
"294 309 CURVE SMOOTH",
"280 362 OFFCURVE",
"249 388 OFFCURVE"
);
}
);
width = 432;
}
);
unicode = 00E9;
},
{
glyphname = ecircumflex;
lastChange = "2017-10-06 16:36:12 +0000";
layers = (
{
layerId = "92E73F40-5E0C-43C4-B728-1A2B58992D44";
paths = (
{
closed = 1;
nodes = (
"365 474 CURVE SMOOTH",
"358 472 OFFCURVE",
"346 473 OFFCURVE",
"341 477 CURVE SMOOTH",
"230 572 LINE",
"126 477 LINE SMOOTH",
"114 467 OFFCURVE",
"87 476 OFFCURVE",
"95 489 CURVE SMOOTH",
"182 636 LINE SMOOTH",
"186 642 OFFCURVE",
"192 646 OFFCURVE",
"198 648 CURVE SMOOTH",
"206 649 OFFCURVE",
"249 650 OFFCURVE",
"262 649 CURVE SMOOTH",
"273 648 OFFCURVE",
"277 646 OFFCURVE",
"283 637 CURVE SMOOTH",
"369 494 LINE SMOOTH",
"372 487 OFFCURVE",
"376 477 OFFCURVE"
);
},
{
closed = 1;
nodes = (
"386 260 CURVE SMOOTH",
"311 257 OFFCURVE",
"194 259 OFFCURVE",
"132 260 CURVE SMOOTH",
"115 260 OFFCURVE",
"113 238 OFFCURVE",
"113 227 CURVE SMOOTH",
"113 128 OFFCURVE",
"172 58 OFFCURVE",
"251 58 CURVE SMOOTH",
"296 58 OFFCURVE",
"331 75 OFFCURVE",
"367 119 CURVE SMOOTH",
"372 124 OFFCURVE",
"380 127 OFFCURVE",
"387 125 CURVE SMOOTH",
"398 123 OFFCURVE",
"406 107 OFFCURVE",
"400 97 CURVE SMOOTH",
"352 40 OFFCURVE",
"292 -15 OFFCURVE",
"212 -15 CURVE SMOOTH",
"105 -15 OFFCURVE",
"26 82 OFFCURVE",
"26 202 CURVE SMOOTH",
"26 331 OFFCURVE",
"113 429 OFFCURVE",
"232 429 CURVE SMOOTH",
"301 429 OFFCURVE",
"348 401 OFFCURVE",
"376 340 CURVE SMOOTH",
"384 323 OFFCURVE",
"391 308 OFFCURVE",
"403 293 CURVE",
"409 277 OFFCURVE",
"406 261 OFFCURVE"
);
},
{
closed = 1;
nodes = (
"210 388 CURVE SMOOTH",
"174 388 OFFCURVE",
"144 363 OFFCURVE",
"125 312 CURVE SMOOTH",
"122 304 OFFCURVE",
"138 302 OFFCURVE",
"142 302 CURVE SMOOTH",
"277 302 LINE SMOOTH",
"283 302 OFFCURVE",
"295 303 OFFCURVE",
"294 309 CURVE SMOOTH",
"280 362 OFFCURVE",
"249 388 OFFCURVE"
);
}
);
width = 432;
}
);
unicode = 00EA;
},
{
glyphname = edieresis;
lastChange = "2017-10-06 16:36:12 +0000";
layers = (
{
layerId = "92E73F40-5E0C-43C4-B728-1A2B58992D44";
paths = (
{
closed = 1;
nodes = (
"314 475 CURVE SMOOTH",
"281 475 OFFCURVE",
"253 502 OFFCURVE",
"253 537 CURVE SMOOTH",
"253 570 OFFCURVE",
"281 598 OFFCURVE",
"314 598 CURVE SMOOTH",
"349 598 OFFCURVE",
"375 570 OFFCURVE",
"375 537 CURVE SMOOTH",
"375 503 OFFCURVE",
"349 475 OFFCURVE"
);
},
{
closed = 1;
nodes = (
"151 475 CURVE SMOOTH",
"117 475 OFFCURVE",
"89 501 OFFCURVE",
"89 537 CURVE SMOOTH",
"89 570 OFFCURVE",
"117 598 OFFCURVE",
"151 598 CURVE SMOOTH",
"184 598 OFFCURVE",
"212 570 OFFCURVE",
"212 537 CURVE SMOOTH",
"212 501 OFFCURVE",
"184 475 OFFCURVE"
);
},
{
closed = 1;
nodes = (
"386 260 CURVE SMOOTH",
"311 257 OFFCURVE",
"194 259 OFFCURVE",
"132 260 CURVE SMOOTH",
"115 260 OFFCURVE",
"113 238 OFFCURVE",
"113 227 CURVE SMOOTH",
"113 128 OFFCURVE",
"172 58 OFFCURVE",
"251 58 CURVE SMOOTH",
"296 58 OFFCURVE",
"331 75 OFFCURVE",
"367 119 CURVE SMOOTH",
"372 124 OFFCURVE",
"380 127 OFFCURVE",
"387 125 CURVE SMOOTH",
"398 123 OFFCURVE",
"406 107 OFFCURVE",
"400 97 CURVE SMOOTH",
"352 40 OFFCURVE",
"292 -15 OFFCURVE",
"212 -15 CURVE SMOOTH",
"105 -15 OFFCURVE",
"26 82 OFFCURVE",
"26 202 CURVE SMOOTH",
"26 331 OFFCURVE",
"113 429 OFFCURVE",
"232 429 CURVE SMOOTH",
"301 429 OFFCURVE",
"348 401 OFFCURVE",
"376 340 CURVE SMOOTH",
"384 323 OFFCURVE",
"391 308 OFFCURVE",
"403 293 CURVE",
"409 277 OFFCURVE",
"406 261 OFFCURVE"
);
},
{
closed = 1;
nodes = (
"210 388 CURVE SMOOTH",
"174 388 OFFCURVE",
"144 363 OFFCURVE",
"125 312 CURVE SMOOTH",
"122 304 OFFCURVE",
"138 302 OFFCURVE",
"142 302 CURVE SMOOTH",
"277 302 LINE SMOOTH",
"283 302 OFFCURVE",
"295 303 OFFCURVE",
"294 309 CURVE SMOOTH",
"280 362 OFFCURVE",
"249 388 OFFCURVE"
);
}
);
width = 432;
}
);
unicode = 00EB;
},
{
glyphname = egrave;
lastChange = "2017-10-06 16:36:12 +0000";
layers = (
{
layerId = "92E73F40-5E0C-43C4-B728-1A2B58992D44";
paths = (
{
closed = 1;
nodes = (
"257 474 CURVE SMOOTH",
"225 515 OFFCURVE",
"168 583 OFFCURVE",
"127 629 CURVE SMOOTH",
"115 641 OFFCURVE",
"132 657 OFFCURVE",
"145 657 CURVE SMOOTH",
"219 658 LINE SMOOTH",
"230 658 OFFCURVE",
"237 657 OFFCURVE",
"242 647 CURVE SMOOTH",
"259 602 OFFCURVE",
"280 528 OFFCURVE",
"291 485 CURVE",
"291 463 OFFCURVE",
"265 466 OFFCURVE"
);
},
{
closed = 1;
nodes = (
"386 260 CURVE SMOOTH",
"311 257 OFFCURVE",
"194 259 OFFCURVE",
"132 260 CURVE SMOOTH",
"115 260 OFFCURVE",
"113 238 OFFCURVE",
"113 227 CURVE SMOOTH",
"113 128 OFFCURVE",
"172 58 OFFCURVE",
"251 58 CURVE SMOOTH",
"296 58 OFFCURVE",
"331 75 OFFCURVE",
"367 119 CURVE SMOOTH",
"372 124 OFFCURVE",
"380 127 OFFCURVE",
"387 125 CURVE SMOOTH",
"398 123 OFFCURVE",
"406 107 OFFCURVE",
"400 97 CURVE SMOOTH",
"352 40 OFFCURVE",
"292 -15 OFFCURVE",
"212 -15 CURVE SMOOTH",
"105 -15 OFFCURVE",
"26 82 OFFCURVE",
"26 202 CURVE SMOOTH",
"26 331 OFFCURVE",
"113 429 OFFCURVE",
"232 429 CURVE SMOOTH",
"301 429 OFFCURVE",
"348 401 OFFCURVE",
"376 340 CURVE SMOOTH",
"384 323 OFFCURVE",
"391 308 OFFCURVE",
"403 293 CURVE",
"409 277 OFFCURVE",
"406 261 OFFCURVE"
);
},
{
closed = 1;
nodes = (
"210 388 CURVE SMOOTH",
"174 388 OFFCURVE",
"144 363 OFFCURVE",
"125 312 CURVE SMOOTH",
"122 304 OFFCURVE",
"138 302 OFFCURVE",
"142 302 CURVE SMOOTH",
"277 302 LINE SMOOTH",
"283 302 OFFCURVE",
"295 303 OFFCURVE",
"294 309 CURVE SMOOTH",
"280 362 OFFCURVE",
"249 388 OFFCURVE"
);
}
);
width = 432;
}
);
unicode = 00E8;
},
{
glyphname = f;
lastChange = "2017-10-06 16:36:12 +0000";
layers = (
{
layerId = "92E73F40-5E0C-43C4-B728-1A2B58992D44";
paths = (
{
closed = 1;
nodes = (
"283 409 CURVE SMOOTH",
"288 389 OFFCURVE",
"291 361 OFFCURVE",
"291 361 CURVE SMOOTH",
"289 352 OFFCURVE",
"284 348 OFFCURVE",
"274 348 CURVE SMOOTH",
"193 349 LINE SMOOTH",
"190 349 OFFCURVE",
"186 341 OFFCURVE",
"186 331 CURVE SMOOTH",
"186 131 LINE SMOOTH",
"186 84 OFFCURVE",
"187 67 OFFCURVE",
"194 57 CURVE SMOOTH",
"204 45 OFFCURVE",
"233 44 OFFCURVE",
"246 44 CURVE SMOOTH",
"257 44 OFFCURVE",
"269 45 OFFCURVE",
"279 44 CURVE SMOOTH",
"293 43 OFFCURVE",
"295 32 OFFCURVE",
"297 18 CURVE SMOOTH",
"297 7 OFFCURVE",
"289 -3 OFFCURVE",
"282 -3 CURVE SMOOTH",
"220 -1 OFFCURVE",
"98 0 OFFCURVE",
"37 -3 CURVE SMOOTH",
"29 -3 OFFCURVE",
"24 8 OFFCURVE",
"24 18 CURVE SMOOTH",
"24 22 OFFCURVE",
"24 28 OFFCURVE",
"26 31 CURVE SMOOTH",
"31 42 OFFCURVE",
"40 41 OFFCURVE",
"49 41 CURVE SMOOTH",
"91 41 OFFCURVE",
"95 55 OFFCURVE",
"95 135 CURVE SMOOTH",
"95 330 LINE SMOOTH",
"95 340 OFFCURVE",
"95 349 OFFCURVE",
"88 351 CURVE SMOOTH",
"37 351 LINE SMOOTH",
"32 351 OFFCURVE",
"24 350 OFFCURVE",
"21 358 CURVE SMOOTH",
"18 368 OFFCURVE",
"19 387 OFFCURVE",
"25 391 CURVE SMOOTH",
"52 397 OFFCURVE",
"69 403 OFFCURVE",
"87 413 CURVE SMOOTH",
"95 417 OFFCURVE",
"95 423 OFFCURVE",
"95 431 CURVE SMOOTH",
"96 441 OFFCURVE",
"96 450 OFFCURVE",
"97 466 CURVE SMOOTH",
"101 542 OFFCURVE",
"113 587 OFFCURVE",
"168 646 CURVE SMOOTH",
"216 700 OFFCURVE",
"270 727 OFFCURVE",
"325 727 CURVE SMOOTH",
"356 727 OFFCURVE",
"413 713 OFFCURVE",
"435 680 CURVE SMOOTH",
"438 676 OFFCURVE",
"439 671 OFFCURVE",
"439 666 CURVE SMOOTH",
"439 656 OFFCURVE",
"428 638 OFFCURVE",
"419 622 CURVE SMOOTH",
"403 597 OFFCURVE",
"387 609 OFFCURVE",
"371 622 CURVE SMOOTH",
"345 643 OFFCURVE",
"308 659 OFFCURVE",
"281 659 CURVE SMOOTH",
"243 659 OFFCURVE",
"211 635 OFFCURVE",
"198 598 CURVE SMOOTH",
"189 572 OFFCURVE",
"184 547 OFFCURVE",
"185 502 CURVE SMOOTH",
"186 438 LINE SMOOTH",
"186 427 OFFCURVE",
"189 420 OFFCURVE",
"197 420 CURVE SMOOTH",
"265 420 LINE SMOOTH",
"282 420 OFFCURVE",
"280 415 OFFCURVE"
);
}
);
width = 321;
}
);
unicode = 0066;
},
{
glyphname = g;
lastChange = "2017-10-06 16:36:12 +0000";
layers = (
{
layerId = "92E73F40-5E0C-43C4-B728-1A2B58992D44";
paths = (
{
closed = 1;
nodes = (
"121 139 CURVE SMOOTH",
"78 165 OFFCURVE",
"51 207 OFFCURVE",
"51 260 CURVE SMOOTH",
"51 357 OFFCURVE",
"127 429 OFFCURVE",
"221 429 CURVE SMOOTH",
"264 429 OFFCURVE",
"301 415 OFFCURVE",
"327 388 CURVE",
"333 388 LINE SMOOTH",
"338 388 OFFCURVE",
"395 395 OFFCURVE",
"420 398 CURVE SMOOTH",
"436 401 OFFCURVE",
"443 399 OFFCURVE",
"445 380 CURVE SMOOTH",
"447 363 OFFCURVE",
"449 348 OFFCURVE",
"448 330 CURVE SMOOTH",
"447 322 OFFCURVE",
"444 313 OFFCURVE",
"433 313 CURVE SMOOTH",
"428 313 OFFCURVE",
"400 316 OFFCURVE",
"379 319 CURVE SMOOTH",
"376 319 OFFCURVE",
"368 320 OFFCURVE",
"371 311 CURVE SMOOTH",
"376 295 OFFCURVE",
"377 285 OFFCURVE",
"377 268 CURVE SMOOTH",
"377 176 OFFCURVE",
"304 113 OFFCURVE",
"207 113 CURVE SMOOTH",
"194 113 OFFCURVE",
"182 115 OFFCURVE",
"169 118 CURVE",
"162 109 OFFCURVE",
"152 102 OFFCURVE",
"143 95 CURVE SMOOTH",
"129 82 OFFCURVE",
"114 68 OFFCURVE",
"142 60 CURVE SMOOTH",
"157 56 OFFCURVE",
"186 53 OFFCURVE",
"242 52 CURVE SMOOTH",
"300 51 OFFCURVE",
"352 50 OFFCURVE",
"398 29 CURVE SMOOTH",
"436 12 OFFCURVE",
"453 -24 OFFCURVE",
"453 -67 CURVE SMOOTH",
"453 -173 OFFCURVE",
"330 -250 OFFCURVE",
"189 -250 CURVE SMOOTH",
"124 -250 OFFCURVE",
"26 -209 OFFCURVE",
"26 -136 CURVE SMOOTH",
"26 -74 OFFCURVE",
"67 -49 OFFCURVE",
"112 -21 CURVE SMOOTH",
"118 -16 OFFCURVE",
"115 -12 OFFCURVE",
"110 -11 CURVE SMOOTH",
"62 9 OFFCURVE",
"44 36 OFFCURVE",
"44 65 CURVE SMOOTH",
"44 87 OFFCURVE",
"70 100 OFFCURVE",
"90 111 CURVE SMOOTH",
"101 117 OFFCURVE",
"110 122 OFFCURVE",
"118 127 CURVE SMOOTH",
"124 131 OFFCURVE",
"126 135 OFFCURVE"
);
},
{
closed = 1;
nodes = (
"210 386 CURVE SMOOTH",
"168 386 OFFCURVE",
"135 343 OFFCURVE",
"135 281 CURVE SMOOTH",
"135 202 OFFCURVE",
"173 158 OFFCURVE",
"218 158 CURVE SMOOTH",
"261 158 OFFCURVE",
"294 194 OFFCURVE",
"294 262 CURVE SMOOTH",
"294 337 OFFCURVE",
"256 386 OFFCURVE"
);
},
{
closed = 1;
nodes = (
"280 -29 CURVE SMOOTH",
"238 -25 OFFCURVE",
"211 -27 OFFCURVE",
"170 -26 CURVE",
"163 -35 OFFCURVE",
"151 -45 OFFCURVE",
"143 -53 CURVE SMOOTH",
"130 -67 OFFCURVE",
"110 -91 OFFCURVE",
"110 -110 CURVE SMOOTH",
"109 -156 OFFCURVE",
"172 -189 OFFCURVE",
"243 -189 CURVE SMOOTH",
"305 -189 OFFCURVE",
"383 -139 OFFCURVE",
"383 -94 CURVE SMOOTH",
"383 -54 OFFCURVE",
"362 -35 OFFCURVE"
);
}
);
width = 483;
}
);
unicode = 0067;
},
{
glyphname = h;
lastChange = "2017-10-06 16:36:12 +0000";
layers = (
{
layerId = "92E73F40-5E0C-43C4-B728-1A2B58992D44";
paths = (
{
closed = 1;
nodes = (
"506 -2 CURVE SMOOTH",
"409 -4 OFFCURVE",
"350 -1 OFFCURVE",
"298 -2 CURVE SMOOTH",
"280 -2 OFFCURVE",
"277 14 OFFCURVE",
"277 20 CURVE SMOOTH",
"276 27 OFFCURVE",
"280 42 OFFCURVE",
"291 42 CURVE SMOOTH",
"297 42 LINE SMOOTH",
"342 42 OFFCURVE",
"347 51 OFFCURVE",
"350 83 CURVE SMOOTH",
"355 125 OFFCURVE",
"357 169 OFFCURVE",
"357 217 CURVE SMOOTH",
"357 306 OFFCURVE",
"351 327 OFFCURVE",
"333 347 CURVE SMOOTH",
"320 361 OFFCURVE",
"300 370 OFFCURVE",
"277 370 CURVE SMOOTH",
"241 370 OFFCURVE",
"221 354 OFFCURVE",
"193 336 CURVE SMOOTH",
"183 330 OFFCURVE",
"184 309 OFFCURVE",
"184 298 CURVE SMOOTH",
"184 93 LINE SMOOTH",
"184 45 OFFCURVE",
"191 41 OFFCURVE",
"230 41 CURVE SMOOTH",
"239 41 OFFCURVE",
"248 42 OFFCURVE",
"250 28 CURVE SMOOTH",
"250 25 OFFCURVE",
"250 17 OFFCURVE",
"251 13 CURVE SMOOTH",
"251 0 OFFCURVE",
"246 -5 OFFCURVE",
"233 -3 CURVE SMOOTH",
"182 -1 OFFCURVE",
"91 -5 OFFCURVE",
"34 -3 CURVE SMOOTH",
"19 -5 OFFCURVE",
"15 26 OFFCURVE",
"24 36 CURVE SMOOTH",
"29 42 OFFCURVE",
"41 42 OFFCURVE",
"48 43 CURVE SMOOTH",
"87 46 OFFCURVE",
"93 53 OFFCURVE",
"93 135 CURVE SMOOTH",
"93 586 LINE",
"92 623 LINE SMOOTH",
"92 634 OFFCURVE",
"83 642 OFFCURVE",
"72 643 CURVE SMOOTH",
"59 645 OFFCURVE",
"47 646 OFFCURVE",
"33 648 CURVE SMOOTH",
"20 650 OFFCURVE",
"17 680 OFFCURVE",
"32 686 CURVE SMOOTH",
"63 699 OFFCURVE",
"116 717 OFFCURVE",
"158 729 CURVE SMOOTH",
"172 733 OFFCURVE",
"184 725 OFFCURVE",
"184 701 CURVE SMOOTH",
"184 409 LINE SMOOTH",
"184 404 OFFCURVE",
"184 381 OFFCURVE",
"196 388 CURVE SMOOTH",
"238 415 OFFCURVE",
"271 431 OFFCURVE",
"325 431 CURVE SMOOTH",
"380 431 OFFCURVE",
"419 409 OFFCURVE",
"435 358 CURVE SMOOTH",
"455 294 OFFCURVE",
"447 200 OFFCURVE",
"444 133 CURVE SMOOTH",
"443 112 OFFCURVE",
"442 90 OFFCURVE",
"442 68 CURVE SMOOTH",
"442 49 OFFCURVE",
"445 44 OFFCURVE",
"498 44 CURVE SMOOTH",
"516 44 OFFCURVE",
"516 34 OFFCURVE",
"518 20 CURVE SMOOTH",
"519 8 OFFCURVE",
"514 -2 OFFCURVE"
);
}
);
width = 542;
}
);
unicode = 0068;
},
{
glyphname = i;
lastChange = "2017-10-06 16:36:12 +0000";
layers = (
{
layerId = "92E73F40-5E0C-43C4-B728-1A2B58992D44";
paths = (
{
closed = 1;
nodes = (
"125 553 CURVE SMOOTH",
"92 553 OFFCURVE",
"70 577 OFFCURVE",
"70 608 CURVE SMOOTH",
"70 640 OFFCURVE",
"95 665 OFFCURVE",
"126 665 CURVE SMOOTH",
"159 665 OFFCURVE",
"184 641 OFFCURVE",
"184 607 CURVE SMOOTH",
"184 575 OFFCURVE",
"157 553 OFFCURVE"
);
},
{
closed = 1;
nodes = (
"247 10 CURVE SMOOTH",
"247 0 OFFCURVE",
"240 -4 OFFCURVE",
"227 -3 CURVE SMOOTH",
"181 0 OFFCURVE",
"83 -2 OFFCURVE",
"34 -3 CURVE SMOOTH",
"29 -3 OFFCURVE",
"21 7 OFFCURVE",
"20 17 CURVE SMOOTH",
"19 28 OFFCURVE",
"23 41 OFFCURVE",
"32 41 CURVE SMOOTH",
"102 47 OFFCURVE",
"95 53 OFFCURVE",
"95 128 CURVE SMOOTH",
"95 304 LINE SMOOTH",
"95 330 OFFCURVE",
"95 340 OFFCURVE",
"92 346 CURVE SMOOTH",
"89 351 OFFCURVE",
"79 352 OFFCURVE",
"74 353 CURVE SMOOTH",
"59 356 OFFCURVE",
"49 360 OFFCURVE",
"35 364 CURVE SMOOTH",
"23 368 OFFCURVE",
"25 393 OFFCURVE",
"33 399 CURVE SMOOTH",
"67 412 OFFCURVE",
"111 428 OFFCURVE",
"151 441 CURVE SMOOTH",
"179 450 OFFCURVE",
"182 427 OFFCURVE",
"182 412 CURVE SMOOTH",
"182 128 LINE SMOOTH",
"182 108 OFFCURVE",
"182 91 OFFCURVE",
"183 77 CURVE SMOOTH",
"185 45 OFFCURVE",
"187 44 OFFCURVE",
"224 44 CURVE SMOOTH",
"237 45 OFFCURVE",
"245 40 OFFCURVE",
"247 28 CURVE SMOOTH",
"247 25 OFFCURVE",
"247 13 OFFCURVE"
);
}
);
width = 266;
}
);
unicode = 0069;
},
{
glyphname = dotlessi;
lastChange = "2017-10-06 16:36:12 +0000";
layers = (
{
layerId = "92E73F40-5E0C-43C4-B728-1A2B58992D44";
paths = (
{
closed = 1;
nodes = (
"33 -2 CURVE SMOOTH",
"28 -2 OFFCURVE",
"20 7 OFFCURVE",
"19 17 CURVE SMOOTH",
"18 29 OFFCURVE",
"23 40 OFFCURVE",
"31 40 CURVE SMOOTH",
"43 40 LINE SMOOTH",
"94 40 OFFCURVE",
"95 44 OFFCURVE",
"95 127 CURVE SMOOTH",
"95 302 LINE SMOOTH",
"95 327 OFFCURVE",
"95 337 OFFCURVE",
"92 343 CURVE SMOOTH",
"89 348 OFFCURVE",
"79 349 OFFCURVE",
"74 350 CURVE SMOOTH",
"59 353 OFFCURVE",
"48 357 OFFCURVE",
"34 361 CURVE SMOOTH",
"22 365 OFFCURVE",
"24 390 OFFCURVE",
"32 396 CURVE SMOOTH",
"154 439 LINE SMOOTH",
"170 444 OFFCURVE",
"180 439 OFFCURVE",
"180 420 CURVE SMOOTH",
"180 127 LINE SMOOTH",
"180 107 OFFCURVE",
"180 90 OFFCURVE",
"181 77 CURVE SMOOTH",
"183 43 OFFCURVE",
"187 40 OFFCURVE",
"224 40 CURVE SMOOTH",
"235 40 LINE SMOOTH",
"244 38 OFFCURVE",
"246 25 OFFCURVE",
"245 18 CURVE SMOOTH",
"245 8 OFFCURVE",
"237 -2 OFFCURVE",
"234 -2 CURVE SMOOTH",
"185 -1 OFFCURVE",
"97 -1 OFFCURVE"
);
}
);
width = 266;
}
);
unicode = 0131;
},
{
glyphname = iacute;
lastChange = "2017-10-06 16:36:12 +0000";
layers = (
{
layerId = "92E73F40-5E0C-43C4-B728-1A2B58992D44";
paths = (
{
closed = 1;
nodes = (
"246 639 CURVE SMOOTH",
"112 477 LINE SMOOTH",
"104 467 OFFCURVE",
"73 469 OFFCURVE",
"79 490 CURVE SMOOTH",
"125 645 LINE SMOOTH",
"128 655 OFFCURVE",
"139 661 OFFCURVE",
"147 661 CURVE SMOOTH",
"231 661 LINE SMOOTH",
"240 661 OFFCURVE",
"250 658 OFFCURVE",
"249 647 CURVE SMOOTH",
"249 644 OFFCURVE",
"247 641 OFFCURVE"
);
},
{
closed = 1;
nodes = (
"247 10 CURVE SMOOTH",
"247 0 OFFCURVE",
"240 -4 OFFCURVE",
"227 -3 CURVE SMOOTH",
"181 0 OFFCURVE",
"83 -2 OFFCURVE",
"34 -3 CURVE SMOOTH",
"29 -3 OFFCURVE",
"21 7 OFFCURVE",
"20 17 CURVE SMOOTH",
"19 28 OFFCURVE",
"23 41 OFFCURVE",
"32 41 CURVE SMOOTH",
"102 47 OFFCURVE",
"95 53 OFFCURVE",
"95 128 CURVE SMOOTH",
"95 304 LINE SMOOTH",
"95 330 OFFCURVE",
"95 340 OFFCURVE",
"92 346 CURVE SMOOTH",
"89 351 OFFCURVE",
"79 352 OFFCURVE",
"74 353 CURVE SMOOTH",
"59 356 OFFCURVE",
"49 360 OFFCURVE",
"35 364 CURVE SMOOTH",
"23 368 OFFCURVE",
"25 393 OFFCURVE",
"33 399 CURVE SMOOTH",
"67 412 OFFCURVE",
"111 428 OFFCURVE",
"151 441 CURVE SMOOTH",
"179 450 OFFCURVE",
"182 427 OFFCURVE",
"182 412 CURVE SMOOTH",
"182 128 LINE SMOOTH",
"182 108 OFFCURVE",
"182 91 OFFCURVE",
"183 77 CURVE SMOOTH",
"185 45 OFFCURVE",
"187 44 OFFCURVE",
"224 44 CURVE SMOOTH",
"237 45 OFFCURVE",
"245 40 OFFCURVE",
"247 28 CURVE SMOOTH",
"247 25 OFFCURVE",
"247 13 OFFCURVE"
);
}
);
width = 266;
}
);
unicode = 00ED;
},
{
glyphname = icircumflex;
lastChange = "2017-10-06 16:36:12 +0000";
layers = (
{
layerId = "92E73F40-5E0C-43C4-B728-1A2B58992D44";
paths = (
{
closed = 1;
nodes = (
"247 10 CURVE SMOOTH",
"247 0 OFFCURVE",
"240 -4 OFFCURVE",
"227 -3 CURVE SMOOTH",
"181 0 OFFCURVE",
"83 -2 OFFCURVE",
"34 -3 CURVE SMOOTH",
"29 -3 OFFCURVE",
"21 7 OFFCURVE",
"20 17 CURVE SMOOTH",
"19 28 OFFCURVE",
"23 41 OFFCURVE",
"32 41 CURVE SMOOTH",
"102 47 OFFCURVE",
"95 53 OFFCURVE",
"95 128 CURVE SMOOTH",
"95 304 LINE SMOOTH",
"95 330 OFFCURVE",
"95 340 OFFCURVE",
"92 346 CURVE SMOOTH",
"89 351 OFFCURVE",
"79 352 OFFCURVE",
"74 353 CURVE SMOOTH",
"59 356 OFFCURVE",
"49 360 OFFCURVE",
"35 364 CURVE SMOOTH",
"23 368 OFFCURVE",
"25 393 OFFCURVE",
"33 399 CURVE SMOOTH",
"67 412 OFFCURVE",
"111 428 OFFCURVE",
"151 441 CURVE SMOOTH",
"179 450 OFFCURVE",
"182 427 OFFCURVE",
"182 412 CURVE SMOOTH",
"182 128 LINE SMOOTH",
"182 108 OFFCURVE",
"182 91 OFFCURVE",
"183 77 CURVE SMOOTH",
"185 45 OFFCURVE",
"187 44 OFFCURVE",
"224 44 CURVE SMOOTH",
"237 45 OFFCURVE",
"245 40 OFFCURVE",
"247 28 CURVE SMOOTH",
"247 25 OFFCURVE",
"247 13 OFFCURVE"
);
},
{
closed = 1;
nodes = (
"272 474 CURVE SMOOTH",
"265 472 OFFCURVE",
"253 473 OFFCURVE",
"248 477 CURVE SMOOTH",
"137 572 LINE",
"33 477 LINE SMOOTH",
"21 467 OFFCURVE",
"-6 476 OFFCURVE",
"2 489 CURVE SMOOTH",
"89 636 LINE SMOOTH",
"93 642 OFFCURVE",
"99 646 OFFCURVE",
"105 648 CURVE SMOOTH",
"113 649 OFFCURVE",
"156 650 OFFCURVE",
"169 649 CURVE SMOOTH",
"180 648 OFFCURVE",
"184 646 OFFCURVE",
"190 637 CURVE SMOOTH",
"276 494 LINE SMOOTH",
"279 487 OFFCURVE",
"283 477 OFFCURVE"
);
}
);
width = 266;
}
);
unicode = 00EE;
},
{
glyphname = idieresis;
lastChange = "2017-10-06 16:36:12 +0000";
layers = (
{
layerId = "92E73F40-5E0C-43C4-B728-1A2B58992D44";
paths = (
{
closed = 1;
nodes = (
"219 481 CURVE SMOOTH",
"184 481 OFFCURVE",
"155 508 OFFCURVE",
"155 541 CURVE SMOOTH",
"155 574 OFFCURVE",
"184 601 OFFCURVE",
"219 601 CURVE SMOOTH",
"255 601 OFFCURVE",
"282 574 OFFCURVE",
"282 541 CURVE SMOOTH",
"282 508 OFFCURVE",
"255 481 OFFCURVE"
);
},
{
closed = 1;
nodes = (
"47 481 CURVE SMOOTH",
"12 481 OFFCURVE",
"-16 507 OFFCURVE",
"-16 541 CURVE SMOOTH",
"-16 574 OFFCURVE",
"12 601 OFFCURVE",
"47 601 CURVE SMOOTH",
"83 601 OFFCURVE",
"111 574 OFFCURVE",
"111 541 CURVE SMOOTH",
"111 507 OFFCURVE",
"82 481 OFFCURVE"
);
},
{
closed = 1;
nodes = (
"247 10 CURVE SMOOTH",
"247 0 OFFCURVE",
"240 -4 OFFCURVE",
"227 -3 CURVE SMOOTH",
"181 0 OFFCURVE",
"83 -2 OFFCURVE",
"34 -3 CURVE SMOOTH",
"29 -3 OFFCURVE",
"21 7 OFFCURVE",
"20 17 CURVE SMOOTH",
"19 28 OFFCURVE",
"23 41 OFFCURVE",
"32 41 CURVE SMOOTH",
"102 47 OFFCURVE",
"95 53 OFFCURVE",
"95 128 CURVE SMOOTH",
"95 304 LINE SMOOTH",
"95 330 OFFCURVE",
"95 340 OFFCURVE",
"92 346 CURVE SMOOTH",
"89 351 OFFCURVE",
"79 352 OFFCURVE",
"74 353 CURVE SMOOTH",
"59 356 OFFCURVE",
"49 360 OFFCURVE",
"35 364 CURVE SMOOTH",
"23 368 OFFCURVE",
"25 393 OFFCURVE",
"33 399 CURVE SMOOTH",
"67 412 OFFCURVE",
"111 428 OFFCURVE",
"151 441 CURVE SMOOTH",
"179 450 OFFCURVE",
"182 427 OFFCURVE",
"182 412 CURVE SMOOTH",
"182 128 LINE SMOOTH",
"182 108 OFFCURVE",
"182 91 OFFCURVE",
"183 77 CURVE SMOOTH",
"185 45 OFFCURVE",
"187 44 OFFCURVE",
"224 44 CURVE SMOOTH",
"237 45 OFFCURVE",
"245 40 OFFCURVE",
"247 28 CURVE SMOOTH",
"247 25 OFFCURVE",
"247 13 OFFCURVE"
);
}
);
width = 266;
}
);
unicode = 00EF;
},
{
glyphname = igrave;
lastChange = "2017-10-06 16:36:12 +0000";
layers = (
{
layerId = "92E73F40-5E0C-43C4-B728-1A2B58992D44";
paths = (
{
closed = 1;
nodes = (
"157 482 CURVE SMOOTH",
"126 521 OFFCURVE",
"71 586 OFFCURVE",
"30 630 CURVE SMOOTH",
"20 642 OFFCURVE",
"35 657 OFFCURVE",
"48 657 CURVE SMOOTH",
"120 658 LINE SMOOTH",
"128 658 OFFCURVE",
"136 658 OFFCURVE",
"143 648 CURVE SMOOTH",
"158 604 OFFCURVE",
"179 534 OFFCURVE",
"189 492 CURVE",
"189 471 OFFCURVE",
"164 474 OFFCURVE"
);
},
{
closed = 1;
nodes = (
"247 10 CURVE SMOOTH",
"247 0 OFFCURVE",
"240 -4 OFFCURVE",
"227 -3 CURVE SMOOTH",
"181 0 OFFCURVE",
"83 -2 OFFCURVE",
"34 -3 CURVE SMOOTH",
"29 -3 OFFCURVE",
"21 7 OFFCURVE",
"20 17 CURVE SMOOTH",
"19 28 OFFCURVE",
"23 41 OFFCURVE",
"32 41 CURVE SMOOTH",
"102 47 OFFCURVE",
"95 53 OFFCURVE",
"95 128 CURVE SMOOTH",
"95 304 LINE SMOOTH",
"95 330 OFFCURVE",
"95 340 OFFCURVE",
"92 346 CURVE SMOOTH",
"89 351 OFFCURVE",
"79 352 OFFCURVE",
"74 353 CURVE SMOOTH",
"59 356 OFFCURVE",
"49 360 OFFCURVE",
"35 364 CURVE SMOOTH",
"23 368 OFFCURVE",
"25 393 OFFCURVE",
"33 399 CURVE SMOOTH",
"67 412 OFFCURVE",
"111 428 OFFCURVE",
"151 441 CURVE SMOOTH",
"179 450 OFFCURVE",
"182 427 OFFCURVE",
"182 412 CURVE SMOOTH",
"182 128 LINE SMOOTH",
"182 108 OFFCURVE",
"182 91 OFFCURVE",
"183 77 CURVE SMOOTH",
"185 45 OFFCURVE",
"187 44 OFFCURVE",
"224 44 CURVE SMOOTH",
"237 45 OFFCURVE",
"245 40 OFFCURVE",
"247 28 CURVE SMOOTH",
"247 25 OFFCURVE",
"247 13 OFFCURVE"
);
}
);
width = 266;
}
);
unicode = 00EC;
},
{
glyphname = j;
lastChange = "2017-10-06 16:36:12 +0000";
layers = (
{
layerId = "92E73F40-5E0C-43C4-B728-1A2B58992D44";
paths = (
{
closed = 1;
nodes = (
"114 541 CURVE SMOOTH",
"80 541 OFFCURVE",
"56 566 OFFCURVE",
"56 598 CURVE SMOOTH",
"56 630 OFFCURVE",
"81 654 OFFCURVE",
"114 654 CURVE SMOOTH",
"147 654 OFFCURVE",
"171 630 OFFCURVE",
"171 598 CURVE SMOOTH",
"171 566 OFFCURVE",
"146 541 OFFCURVE"
);
},
{
closed = 1;
nodes = (
"151 -131 CURVE SMOOTH",
"142 -155 OFFCURVE",
"126 -176 OFFCURVE",
"110 -195 CURVE SMOOTH",
"79 -230 OFFCURVE",
"40 -244 OFFCURVE",
"-7 -244 CURVE SMOOTH",
"-62 -244 OFFCURVE",
"-107 -220 OFFCURVE",
"-107 -181 CURVE SMOOTH",
"-107 -154 OFFCURVE",
"-92 -123 OFFCURVE",
"-67 -123 CURVE SMOOTH",
"-49 -123 OFFCURVE",
"-34 -142 OFFCURVE",
"-24 -155 CURVE SMOOTH",
"-11 -170 OFFCURVE",
"9 -185 OFFCURVE",
"29 -185 CURVE SMOOTH",
"65 -185 OFFCURVE",
"84 -158 OFFCURVE",
"84 -72 CURVE SMOOTH",
"84 -10 LINE",
"84 307 LINE SMOOTH",
"84 348 OFFCURVE",
"91 351 OFFCURVE",
"52 360 CURVE SMOOTH",
"41 362 OFFCURVE",
"31 364 OFFCURVE",
"23 367 CURVE SMOOTH",
"11 370 OFFCURVE",
"13 397 OFFCURVE",
"22 402 CURVE SMOOTH",
"29 405 OFFCURVE",
"77 425 OFFCURVE",
"143 447 CURVE SMOOTH",
"166 455 OFFCURVE",
"171 432 OFFCURVE",
"171 422 CURVE SMOOTH",
"171 27 LINE SMOOTH",
"171 -59 OFFCURVE",
"168 -88 OFFCURVE"
);
}
);
width = 247;
}
);
unicode = 006A;
},
{
glyphname = k;
lastChange = "2017-10-06 16:36:12 +0000";
layers = (
{
layerId = "92E73F40-5E0C-43C4-B728-1A2B58992D44";
paths = (
{
closed = 1;
nodes = (
"179 197 LINE SMOOTH",
"169 204 OFFCURVE",
"169 199 OFFCURVE",
"169 197 CURVE SMOOTH",
"169 163 OFFCURVE",
"168 128 OFFCURVE",
"169 93 CURVE SMOOTH",
"169 64 OFFCURVE",
"165 42 OFFCURVE",
"199 40 CURVE SMOOTH",
"209 40 OFFCURVE",
"218 40 OFFCURVE",
"228 40 CURVE SMOOTH",
"234 40 OFFCURVE",
"241 29 OFFCURVE",
"241 18 CURVE SMOOTH",
"241 7 OFFCURVE",
"234 -3 OFFCURVE",
"228 -3 CURVE SMOOTH",
"179 -2 OFFCURVE",
"80 0 OFFCURVE",
"28 -3 CURVE SMOOTH",
"17 -4 OFFCURVE",
"12 27 OFFCURVE",
"18 35 CURVE SMOOTH",
"21 39 OFFCURVE",
"25 41 OFFCURVE",
"36 41 CURVE SMOOTH",
"78 41 OFFCURVE",
"81 45 OFFCURVE",
"81 135 CURVE SMOOTH",
"81 570 LINE SMOOTH",
"81 589 OFFCURVE",
"81 603 OFFCURVE",
"80 622 CURVE SMOOTH",
"79 633 OFFCURVE",
"58 637 OFFCURVE",
"50 638 CURVE SMOOTH",
"48 639 OFFCURVE",
"28 644 OFFCURVE",
"26 644 CURVE SMOOTH",
"9 648 OFFCURVE",
"14 679 OFFCURVE",
"25 681 CURVE SMOOTH",
"78 695 OFFCURVE",
"101 712 OFFCURVE",
"139 722 CURVE SMOOTH",
"160 727 OFFCURVE",
"167 722 OFFCURVE",
"168 700 CURVE SMOOTH",
"169 296 LINE SMOOTH",
"169 290 OFFCURVE",
"172 276 OFFCURVE",
"180 282 CURVE SMOOTH",
"283 357 LINE SMOOTH",
"307 375 OFFCURVE",
"315 384 OFFCURVE",
"287 385 CURVE SMOOTH",
"278 385 OFFCURVE",
"272 386 OFFCURVE",
"268 386 CURVE SMOOTH",
"259 388 OFFCURVE",
"250 388 OFFCURVE",
"252 407 CURVE SMOOTH",
"253 420 OFFCURVE",
"256 426 OFFCURVE",
"271 426 CURVE SMOOTH",
"331 425 OFFCURVE",
"407 426 OFFCURVE",
"452 426 CURVE SMOOTH",
"463 427 OFFCURVE",
"468 415 OFFCURVE",
"468 405 CURVE SMOOTH",
"468 396 OFFCURVE",
"461 383 OFFCURVE",
"457 383 CURVE SMOOTH",
"410 382 OFFCURVE",
"380 370 OFFCURVE",
"339 339 CURVE SMOOTH",
"306 313 OFFCURVE",
"276 292 OFFCURVE",
"241 267 CURVE SMOOTH",
"238 263 OFFCURVE",
"234 260 OFFCURVE",
"240 253 CURVE SMOOTH",
"299 192 OFFCURVE",
"356 133 OFFCURVE",
"417 71 CURVE SMOOTH",
"439 49 OFFCURVE",
"450 39 OFFCURVE",
"481 39 CURVE SMOOTH",
"492 39 LINE",
"509 32 OFFCURVE",
"503 -4 OFFCURVE",
"490 -3 CURVE SMOOTH",
"436 0 OFFCURVE",
"330 -1 OFFCURVE",
"279 -3 CURVE SMOOTH",
"273 -3 OFFCURVE",
"265 8 OFFCURVE",
"265 19 CURVE SMOOTH",
"265 35 OFFCURVE",
"270 39 OFFCURVE",
"285 39 CURVE SMOOTH",
"320 39 OFFCURVE",
"320 46 OFFCURVE",
"293 75 CURVE SMOOTH"
);
}
);
width = 518;
}
);
unicode = 006B;
},
{
glyphname = l;
lastChange = "2017-10-06 16:36:12 +0000";
layers = (
{
layerId = "92E73F40-5E0C-43C4-B728-1A2B58992D44";
paths = (
{
closed = 1;
nodes = (
"239 -2 CURVE SMOOTH",
"149 -1 OFFCURVE",
"109 0 OFFCURVE",
"41 -2 CURVE SMOOTH",
"38 -2 OFFCURVE",
"27 3 OFFCURVE",
"25 10 CURVE SMOOTH",
"24 15 OFFCURVE",
"22 25 OFFCURVE",
"26 33 CURVE SMOOTH",
"31 43 OFFCURVE",
"35 41 OFFCURVE",
"46 41 CURVE SMOOTH",
"93 41 OFFCURVE",
"99 51 OFFCURVE",
"99 101 CURVE SMOOTH",
"99 619 LINE SMOOTH",
"99 627 OFFCURVE",
"96 630 OFFCURVE",
"88 631 CURVE SMOOTH",
"72 635 OFFCURVE",
"56 637 OFFCURVE",
"40 640 CURVE SMOOTH",
"27 643 OFFCURVE",
"25 673 OFFCURVE",
"40 678 CURVE SMOOTH",
"65 685 OFFCURVE",
"111 698 OFFCURVE",
"167 720 CURVE SMOOTH",
"179 721 OFFCURVE",
"187 704 OFFCURVE",
"187 694 CURVE SMOOTH",
"187 102 LINE SMOOTH",
"187 45 OFFCURVE",
"188 41 OFFCURVE",
"230 41 CURVE SMOOTH",
"238 41 OFFCURVE",
"252 43 OFFCURVE",
"254 31 CURVE SMOOTH",
"255 27 OFFCURVE",
"254 23 OFFCURVE",
"254 18 CURVE SMOOTH",
"254 8 OFFCURVE",
"252 -2 OFFCURVE"
);
}
);
width = 272;
}
);
unicode = 006C;
},
{
glyphname = lslash;
lastChange = "2017-10-06 16:36:12 +0000";
layers = (
{
layerId = "92E73F40-5E0C-43C4-B728-1A2B58992D44";
paths = (
{
closed = 1;
nodes = (
"267 405 CURVE SMOOTH",
"183 332 LINE SMOOTH",
"176 326 OFFCURVE",
"173 320 OFFCURVE",
"173 309 CURVE SMOOTH",
"173 146 LINE",
"173 101 LINE SMOOTH",
"173 47 OFFCURVE",
"183 38 OFFCURVE",
"230 38 CURVE SMOOTH",
"258 38 OFFCURVE",
"253 -4 OFFCURVE",
"232 -4 CURVE SMOOTH",
"180 -3 OFFCURVE",
"72 -2 OFFCURVE",
"17 -4 CURVE SMOOTH",
"7 -2 OFFCURVE",
"2 5 OFFCURVE",
"2 14 CURVE SMOOTH",
"2 26 OFFCURVE",
"3 38 OFFCURVE",
"21 38 CURVE SMOOTH",
"71 38 OFFCURVE",
"85 52 OFFCURVE",
"85 100 CURVE SMOOTH",
"85 139 LINE",
"85 245 LINE SMOOTH",
"85 248 OFFCURVE",
"84 250 OFFCURVE",
"81 247 CURVE SMOOTH",
"-7 172 OFFCURVE",
"-30 145 OFFCURVE",
"-30 183 CURVE SMOOTH",
"-30 263 LINE",
"6 294 OFFCURVE",
"43 323 OFFCURVE",
"77 355 CURVE SMOOTH",
"83 361 OFFCURVE",
"85 366 OFFCURVE",
"85 374 CURVE SMOOTH",
"85 556 LINE",
"85 609 LINE SMOOTH",
"85 612 OFFCURVE",
"82 619 OFFCURVE",
"81 619 CURVE SMOOTH",
"74 624 OFFCURVE",
"14 631 OFFCURVE",
"12 631 CURVE SMOOTH",
"7 635 OFFCURVE",
"2 641 OFFCURVE",
"3 650 CURVE SMOOTH",
"2 658 OFFCURVE",
"6 665 OFFCURVE",
"12 668 CURVE SMOOTH",
"150 708 LINE SMOOTH",
"169 713 OFFCURVE",
"173 701 OFFCURVE",
"173 684 CURVE SMOOTH",
"173 446 LINE SMOOTH",
"173 439 OFFCURVE",
"175 437 OFFCURVE",
"178 440 CURVE SMOOTH",
"258 509 LINE SMOOTH",
"279 527 OFFCURVE",
"283 511 OFFCURVE",
"283 492 CURVE SMOOTH",
"283 435 LINE SMOOTH",
"283 426 OFFCURVE",
"276 413 OFFCURVE"
);
}
);
width = 251;
}
);
unicode = 0142;
},
{
glyphname = m;
lastChange = "2017-10-06 16:36:12 +0000";
layers = (
{
layerId = "92E73F40-5E0C-43C4-B728-1A2B58992D44";
paths = (
{
closed = 1;
nodes = (
"248 -3 CURVE SMOOTH",
"199 -1 OFFCURVE",
"96 -1 OFFCURVE",
"39 -3 CURVE SMOOTH",
"22 -4 OFFCURVE",
"22 20 OFFCURVE",
"26 31 CURVE SMOOTH",
"30 41 OFFCURVE",
"44 41 OFFCURVE",
"53 41 CURVE SMOOTH",
"91 42 OFFCURVE",
"99 50 OFFCURVE",
"99 134 CURVE SMOOTH",
"99 274 LINE SMOOTH",
"99 327 OFFCURVE",
"98 342 OFFCURVE",
"97 344 CURVE SMOOTH",
"94 349 OFFCURVE",
"89 353 OFFCURVE",
"61 357 CURVE SMOOTH",
"38 360 LINE SMOOTH",
"20 362 OFFCURVE",
"32 394 OFFCURVE",
"37 397 CURVE SMOOTH",
"65 409 OFFCURVE",
"121 427 OFFCURVE",
"167 439 CURVE SMOOTH",
"184 443 OFFCURVE",
"189 431 OFFCURVE",
"189 416 CURVE SMOOTH",
"189 370 LINE SMOOTH",
"189 368 OFFCURVE",
"191 361 OFFCURVE",
"193 362 CURVE SMOOTH",
"236 392 OFFCURVE",
"293 429 OFFCURVE",
"351 429 CURVE SMOOTH",
"396 429 OFFCURVE",
"433 403 OFFCURVE",
"448 361 CURVE SMOOTH",
"450 357 OFFCURVE",
"454 356 OFFCURVE",
"459 360 CURVE SMOOTH",
"506 393 OFFCURVE",
"554 429 OFFCURVE",
"614 429 CURVE SMOOTH",
"658 429 OFFCURVE",
"694 406 OFFCURVE",
"711 367 CURVE SMOOTH",
"724 337 OFFCURVE",
"726 308 OFFCURVE",
"726 229 CURVE SMOOTH",
"726 177 OFFCURVE",
"722 126 OFFCURVE",
"722 75 CURVE SMOOTH",
"722 49 OFFCURVE",
"725 43 OFFCURVE",
"781 43 CURVE SMOOTH",
"786 44 OFFCURVE",
"797 44 OFFCURVE",
"803 40 CURVE SMOOTH",
"809 37 OFFCURVE",
"811 25 OFFCURVE",
"810 17 CURVE SMOOTH",
"810 6 OFFCURVE",
"801 -3 OFFCURVE",
"794 -3 CURVE SMOOTH",
"726 0 OFFCURVE",
"643 -2 OFFCURVE",
"576 -3 CURVE SMOOTH",
"571 -3 LINE SMOOTH",
"549 -4 OFFCURVE",
"552 39 OFFCURVE",
"570 39 CURVE SMOOTH",
"580 39 LINE SMOOTH",
"619 39 OFFCURVE",
"627 47 OFFCURVE",
"630 85 CURVE SMOOTH",
"634 125 OFFCURVE",
"634 163 OFFCURVE",
"634 221 CURVE SMOOTH",
"634 346 OFFCURVE",
"617 369 OFFCURVE",
"571 369 CURVE SMOOTH",
"544 369 OFFCURVE",
"506 348 OFFCURVE",
"457 315 CURVE",
"457 92 LINE SMOOTH",
"457 47 OFFCURVE",
"465 39 OFFCURVE",
"505 39 CURVE SMOOTH",
"519 39 OFFCURVE",
"523 33 OFFCURVE",
"524 19 CURVE SMOOTH",
"524 11 OFFCURVE",
"519 -3 OFFCURVE",
"508 -3 CURVE SMOOTH",
"459 -2 OFFCURVE",
"358 -1 OFFCURVE",
"304 -2 CURVE SMOOTH",
"281 -2 OFFCURVE",
"287 32 OFFCURVE",
"299 38 CURVE SMOOTH",
"304 41 OFFCURVE",
"309 40 OFFCURVE",
"314 40 CURVE SMOOTH",
"360 40 OFFCURVE",
"368 46 OFFCURVE",
"368 134 CURVE SMOOTH",
"368 293 LINE SMOOTH",
"368 343 OFFCURVE",
"344 369 OFFCURVE",
"307 369 CURVE SMOOTH",
"267 369 OFFCURVE",
"221 336 OFFCURVE",
"189 315 CURVE",
"189 92 LINE SMOOTH",
"189 46 OFFCURVE",
"195 39 OFFCURVE",
"242 39 CURVE SMOOTH",
"248 40 OFFCURVE",
"248 39 OFFCURVE",
"256 37 CURVE SMOOTH",
"261 36 OFFCURVE",
"262 20 OFFCURVE",
"262 10 CURVE SMOOTH",
"260 0 OFFCURVE",
"254 -3 OFFCURVE"
);
}
);
width = 825;
}
);
unicode = 006D;
},
{
glyphname = n;
lastChange = "2017-10-06 16:36:12 +0000";
layers = (
{
layerId = "92E73F40-5E0C-43C4-B728-1A2B58992D44";
paths = (
{
closed = 1;
nodes = (
"501 -1 CURVE SMOOTH",
"497 -2 OFFCURVE",
"492 -2 OFFCURVE",
"488 -2 CURVE SMOOTH",
"439 -3 OFFCURVE",
"354 0 OFFCURVE",
"303 -2 CURVE SMOOTH",
"286 -3 OFFCURVE",
"282 4 OFFCURVE",
"281 19 CURVE SMOOTH",
"281 28 OFFCURVE",
"286 41 OFFCURVE",
"295 41 CURVE SMOOTH",
"301 41 LINE",
"342 45 OFFCURVE",
"352 54 OFFCURVE",
"356 91 CURVE SMOOTH",
"362 147 OFFCURVE",
"362 205 OFFCURVE",
"362 262 CURVE SMOOTH",
"362 336 OFFCURVE",
"338 365 OFFCURVE",
"296 365 CURVE SMOOTH",
"271 365 OFFCURVE",
"223 342 OFFCURVE",
"181 310 CURVE",
"181 92 LINE SMOOTH",
"181 45 OFFCURVE",
"188 41 OFFCURVE",
"235 41 CURVE SMOOTH",
"242 41 OFFCURVE",
"248 29 OFFCURVE",
"249 19 CURVE SMOOTH",
"249 5 OFFCURVE",
"245 -2 OFFCURVE",
"230 -3 CURVE SMOOTH",
"180 -1 OFFCURVE",
"95 -4 OFFCURVE",
"43 -2 CURVE SMOOTH",
"40 -2 LINE SMOOTH",
"34 -2 OFFCURVE",
"27 0 OFFCURVE",
"25 6 CURVE SMOOTH",
"21 18 OFFCURVE",
"25 39 OFFCURVE",
"38 39 CURVE SMOOTH",
"43 39 LINE SMOOTH",
"83 39 OFFCURVE",
"94 47 OFFCURVE",
"94 135 CURVE SMOOTH",
"94 269 LINE SMOOTH",
"94 326 OFFCURVE",
"92 341 OFFCURVE",
"90 346 CURVE SMOOTH",
"89 349 OFFCURVE",
"87 352 OFFCURVE",
"56 358 CURVE SMOOTH",
"36 362 LINE SMOOTH",
"22 365 OFFCURVE",
"26 395 OFFCURVE",
"36 399 CURVE SMOOTH",
"63 408 OFFCURVE",
"96 421 OFFCURVE",
"122 431 CURVE SMOOTH",
"132 435 OFFCURVE",
"142 439 OFFCURVE",
"152 441 CURVE SMOOTH",
"171 445 OFFCURVE",
"181 434 OFFCURVE",
"181 419 CURVE SMOOTH",
"181 376 LINE SMOOTH",
"181 372 OFFCURVE",
"187 360 OFFCURVE",
"189 362 CURVE SMOOTH",
"229 390 OFFCURVE",
"285 428 OFFCURVE",
"336 428 CURVE SMOOTH",
"440 428 OFFCURVE",
"450 317 OFFCURVE",
"450 247 CURVE SMOOTH",
"450 189 OFFCURVE",
"442 130 OFFCURVE",
"442 71 CURVE SMOOTH",
"442 46 OFFCURVE",
"445 41 OFFCURVE",
"484 41 CURVE SMOOTH",
"491 44 OFFCURVE",
"500 43 OFFCURVE",
"505 36 CURVE SMOOTH",
"510 28 OFFCURVE",
"512 4 OFFCURVE"
);
}
);
width = 523;
}
);
unicode = 006E;
},
{
glyphname = ntilde;
lastChange = "2017-10-06 16:36:12 +0000";
layers = (
{
layerId = "92E73F40-5E0C-43C4-B728-1A2B58992D44";
paths = (
{
closed = 1;
nodes = (
"426 619 CURVE SMOOTH",
"426 547 OFFCURVE",
"385 492 OFFCURVE",
"324 492 CURVE SMOOTH",
"296 492 OFFCURVE",
"264 505 OFFCURVE",
"226 531 CURVE SMOOTH",
"190 556 OFFCURVE",
"183 559 OFFCURVE",
"172 559 CURVE SMOOTH",
"157 559 OFFCURVE",
"149 552 OFFCURVE",
"141 517 CURVE SMOOTH",
"141 511 OFFCURVE",
"139 505 OFFCURVE",
"138 499 CURVE SMOOTH",
"132 487 OFFCURVE",
"104 482 OFFCURVE",
"101 500 CURVE SMOOTH",
"105 586 OFFCURVE",
"138 638 OFFCURVE",
"202 638 CURVE SMOOTH",
"233 638 OFFCURVE",
"257 628 OFFCURVE",
"301 598 CURVE SMOOTH",
"331 577 OFFCURVE",
"346 572 OFFCURVE",
"356 572 CURVE SMOOTH",
"371 572 OFFCURVE",
"382 579 OFFCURVE",
"389 632 CURVE SMOOTH",
"390 638 OFFCURVE",
"399 643 OFFCURVE",
"407 643 CURVE SMOOTH",
"413 644 OFFCURVE",
"424 641 OFFCURVE",
"424 633 CURVE SMOOTH",
"426 626 OFFCURVE",
"426 622 OFFCURVE"
);
},
{
closed = 1;
nodes = (
"506 36 CURVE SMOOTH",
"511 28 OFFCURVE",
"512 4 OFFCURVE",
"502 -1 CURVE SMOOTH",
"498 -2 OFFCURVE",
"493 -2 OFFCURVE",
"489 -2 CURVE SMOOTH",
"440 -3 OFFCURVE",
"354 0 OFFCURVE",
"303 -2 CURVE SMOOTH",
"287 -3 OFFCURVE",
"283 4 OFFCURVE",
"282 19 CURVE SMOOTH",
"282 29 OFFCURVE",
"287 41 OFFCURVE",
"295 41 CURVE SMOOTH",
"302 41 LINE",
"343 45 OFFCURVE",
"352 54 OFFCURVE",
"355 91 CURVE SMOOTH",
"361 148 OFFCURVE",
"361 206 OFFCURVE",
"361 264 CURVE SMOOTH",
"361 339 OFFCURVE",
"339 367 OFFCURVE",
"296 367 CURVE SMOOTH",
"271 367 OFFCURVE",
"225 345 OFFCURVE",
"182 312 CURVE",
"182 93 LINE SMOOTH",
"182 45 OFFCURVE",
"189 41 OFFCURVE",
"236 41 CURVE SMOOTH",
"242 41 OFFCURVE",
"249 29 OFFCURVE",
"250 19 CURVE SMOOTH",
"250 5 OFFCURVE",
"245 -2 OFFCURVE",
"231 -3 CURVE SMOOTH",
"181 -1 OFFCURVE",
"95 -4 OFFCURVE",
"44 -2 CURVE SMOOTH",
"40 -2 LINE SMOOTH",
"34 -2 OFFCURVE",
"28 0 OFFCURVE",
"25 6 CURVE SMOOTH",
"21 18 OFFCURVE",
"25 39 OFFCURVE",
"38 39 CURVE SMOOTH",
"44 39 LINE SMOOTH",
"84 39 OFFCURVE",
"93 48 OFFCURVE",
"93 136 CURVE SMOOTH",
"93 271 LINE SMOOTH",
"93 328 OFFCURVE",
"92 343 OFFCURVE",
"90 348 CURVE SMOOTH",
"88 352 OFFCURVE",
"88 354 OFFCURVE",
"57 361 CURVE SMOOTH",
"37 365 LINE SMOOTH",
"23 367 OFFCURVE",
"27 397 OFFCURVE",
"37 402 CURVE SMOOTH",
"57 408 OFFCURVE",
"96 424 OFFCURVE",
"123 434 CURVE SMOOTH",
"133 438 OFFCURVE",
"143 442 OFFCURVE",
"152 444 CURVE SMOOTH",
"173 449 OFFCURVE",
"182 443 OFFCURVE",
"182 422 CURVE SMOOTH",
"182 378 LINE SMOOTH",
"182 371 OFFCURVE",
"185 361 OFFCURVE",
"190 364 CURVE SMOOTH",
"230 392 OFFCURVE",
"288 431 OFFCURVE",
"336 431 CURVE SMOOTH",
"440 431 OFFCURVE",
"450 319 OFFCURVE",
"450 249 CURVE SMOOTH",
"450 190 OFFCURVE",
"443 131 OFFCURVE",
"443 71 CURVE SMOOTH",
"443 47 OFFCURVE",
"446 41 OFFCURVE",
"485 41 CURVE",
"492 45 OFFCURVE",
"501 43 OFFCURVE"
);
}
);
width = 523;
}
);
unicode = 00F1;
},
{
glyphname = o;
lastChange = "2017-10-06 16:36:12 +0000";
layers = (
{
layerId = "92E73F40-5E0C-43C4-B728-1A2B58992D44";
paths = (
{
closed = 1;
nodes = (
"261 -15 CURVE SMOOTH",
"131 -15 OFFCURVE",
"32 82 OFFCURVE",
"32 208 CURVE SMOOTH",
"32 336 OFFCURVE",
"130 430 OFFCURVE",
"258 430 CURVE SMOOTH",
"386 430 OFFCURVE",
"487 334 OFFCURVE",
"487 207 CURVE SMOOTH",
"486 83 OFFCURVE",
"387 -15 OFFCURVE"
);
},
{
closed = 1;
nodes = (
"244 384 CURVE SMOOTH",
"180 384 OFFCURVE",
"129 323 OFFCURVE",
"129 237 CURVE SMOOTH",
"129 119 OFFCURVE",
"196 32 OFFCURVE",
"272 32 CURVE SMOOTH",
"337 32 OFFCURVE",
"386 102 OFFCURVE",
"386 192 CURVE SMOOTH",
"386 304 OFFCURVE",
"320 384 OFFCURVE"
);
}
);
width = 518;
}
);
unicode = 006F;
},
{
glyphname = oacute;
lastChange = "2017-10-06 16:36:12 +0000";
layers = (
{
layerId = "92E73F40-5E0C-43C4-B728-1A2B58992D44";
paths = (
{
closed = 1;
nodes = (
"396 642 CURVE SMOOTH",
"396 641 LINE SMOOTH",
"395 638 OFFCURVE",
"255 469 OFFCURVE",
"255 469 CURVE SMOOTH",
"246 459 OFFCURVE",
"214 461 OFFCURVE",
"221 483 CURVE SMOOTH",
"269 645 LINE SMOOTH",
"273 655 OFFCURVE",
"283 661 OFFCURVE",
"291 661 CURVE SMOOTH",
"378 661 LINE SMOOTH",
"388 661 OFFCURVE",
"400 657 OFFCURVE",
"397 646 CURVE SMOOTH",
"397 645 OFFCURVE",
"397 643 OFFCURVE"
);
},
{
closed = 1;
nodes = (
"260 -15 CURVE SMOOTH",
"130 -15 OFFCURVE",
"32 82 OFFCURVE",
"32 209 CURVE SMOOTH",
"32 338 OFFCURVE",
"129 434 OFFCURVE",
"257 434 CURVE SMOOTH",
"386 434 OFFCURVE",
"486 336 OFFCURVE",
"485 208 CURVE SMOOTH",
"485 83 OFFCURVE",
"386 -15 OFFCURVE"
);
},
{
closed = 1;
nodes = (
"243 387 CURVE SMOOTH",
"179 387 OFFCURVE",
"128 327 OFFCURVE",
"128 240 CURVE SMOOTH",
"128 121 OFFCURVE",
"195 32 OFFCURVE",
"272 32 CURVE SMOOTH",
"336 32 OFFCURVE",
"387 93 OFFCURVE",
"387 184 CURVE SMOOTH",
"387 297 OFFCURVE",
"319 387 OFFCURVE"
);
}
);
width = 518;
}
);
unicode = 00F3;
},
{
glyphname = ocircumflex;
lastChange = "2017-10-06 16:36:12 +0000";
layers = (
{
layerId = "92E73F40-5E0C-43C4-B728-1A2B58992D44";
paths = (
{
closed = 1;
nodes = (
"485 206 CURVE SMOOTH",
"485 82 OFFCURVE",
"386 -15 OFFCURVE",
"260 -15 CURVE SMOOTH",
"130 -15 OFFCURVE",
"32 81 OFFCURVE",
"32 207 CURVE SMOOTH",
"32 335 OFFCURVE",
"129 430 OFFCURVE",
"257 430 CURVE SMOOTH",
"386 430 OFFCURVE",
"486 333 OFFCURVE"
);
},
{
closed = 1;
nodes = (
"387 183 CURVE SMOOTH",
"387 295 OFFCURVE",
"319 384 OFFCURVE",
"243 384 CURVE SMOOTH",
"179 384 OFFCURVE",
"128 324 OFFCURVE",
"128 238 CURVE SMOOTH",
"128 120 OFFCURVE",
"195 32 OFFCURVE",
"272 32 CURVE SMOOTH",
"336 32 OFFCURVE",
"387 93 OFFCURVE"
);
},
{
closed = 1;
nodes = (
"391 483 CURVE SMOOTH",
"384 481 OFFCURVE",
"372 482 OFFCURVE",
"367 486 CURVE SMOOTH",
"256 581 LINE",
"152 486 LINE SMOOTH",
"140 476 OFFCURVE",
"113 485 OFFCURVE",
"121 498 CURVE SMOOTH",
"208 645 LINE SMOOTH",
"212 651 OFFCURVE",
"218 655 OFFCURVE",
"224 657 CURVE SMOOTH",
"232 658 OFFCURVE",
"275 659 OFFCURVE",
"288 658 CURVE SMOOTH",
"299 657 OFFCURVE",
"303 655 OFFCURVE",
"309 646 CURVE SMOOTH",
"395 503 LINE SMOOTH",
"398 496 OFFCURVE",
"402 486 OFFCURVE"
);
}
);
width = 518;
}
);
unicode = 00F4;
},
{
glyphname = odieresis;
lastChange = "2017-10-06 16:36:12 +0000";
layers = (
{
layerId = "92E73F40-5E0C-43C4-B728-1A2B58992D44";
paths = (
{
closed = 1;
nodes = (
"342 475 CURVE SMOOTH",
"309 475 OFFCURVE",
"281 502 OFFCURVE",
"281 537 CURVE SMOOTH",
"281 570 OFFCURVE",
"309 598 OFFCURVE",
"342 598 CURVE SMOOTH",
"377 598 OFFCURVE",
"404 570 OFFCURVE",
"404 537 CURVE SMOOTH",
"404 503 OFFCURVE",
"377 475 OFFCURVE"
);
},
{
closed = 1;
nodes = (
"178 475 CURVE SMOOTH",
"145 475 OFFCURVE",
"117 501 OFFCURVE",
"117 537 CURVE SMOOTH",
"117 570 OFFCURVE",
"145 598 OFFCURVE",
"178 598 CURVE SMOOTH",
"211 598 OFFCURVE",
"239 570 OFFCURVE",
"239 537 CURVE SMOOTH",
"239 501 OFFCURVE",
"211 475 OFFCURVE"
);
},
{
closed = 1;
nodes = (
"260 -15 CURVE SMOOTH",
"130 -15 OFFCURVE",
"32 82 OFFCURVE",
"32 208 CURVE SMOOTH",
"32 337 OFFCURVE",
"129 433 OFFCURVE",
"257 433 CURVE SMOOTH",
"386 433 OFFCURVE",
"486 335 OFFCURVE",
"485 207 CURVE SMOOTH",
"485 83 OFFCURVE",
"386 -15 OFFCURVE"
);
},
{
closed = 1;
nodes = (
"243 387 CURVE SMOOTH",
"179 387 OFFCURVE",
"128 326 OFFCURVE",
"128 240 CURVE SMOOTH",
"128 121 OFFCURVE",
"195 32 OFFCURVE",
"272 32 CURVE SMOOTH",
"336 32 OFFCURVE",
"387 93 OFFCURVE",
"387 184 CURVE SMOOTH",
"387 297 OFFCURVE",
"319 387 OFFCURVE"
);
}
);
width = 518;
}
);
unicode = 00F6;
},
{
glyphname = ograve;
lastChange = "2017-10-06 16:36:12 +0000";
layers = (
{
layerId = "92E73F40-5E0C-43C4-B728-1A2B58992D44";
paths = (
{
closed = 1;
nodes = (
"306 474 CURVE SMOOTH",
"274 515 OFFCURVE",
"217 583 OFFCURVE",
"174 629 CURVE SMOOTH",
"163 641 OFFCURVE",
"180 657 OFFCURVE",
"193 657 CURVE SMOOTH",
"268 658 LINE SMOOTH",
"276 658 OFFCURVE",
"284 658 OFFCURVE",
"291 647 CURVE SMOOTH",
"308 602 OFFCURVE",
"330 528 OFFCURVE",
"339 485 CURVE SMOOTH",
"341 462 OFFCURVE",
"313 467 OFFCURVE"
);
},
{
closed = 1;
nodes = (
"260 -15 CURVE SMOOTH",
"130 -15 OFFCURVE",
"32 82 OFFCURVE",
"32 209 CURVE SMOOTH",
"32 338 OFFCURVE",
"129 434 OFFCURVE",
"257 434 CURVE SMOOTH",
"386 434 OFFCURVE",
"486 336 OFFCURVE",
"485 208 CURVE SMOOTH",
"485 83 OFFCURVE",
"386 -15 OFFCURVE"
);
},
{
closed = 1;
nodes = (
"243 387 CURVE SMOOTH",
"179 387 OFFCURVE",
"128 327 OFFCURVE",
"128 240 CURVE SMOOTH",
"128 121 OFFCURVE",
"195 32 OFFCURVE",
"272 32 CURVE SMOOTH",
"336 32 OFFCURVE",
"387 93 OFFCURVE",
"387 184 CURVE SMOOTH",
"387 297 OFFCURVE",
"319 387 OFFCURVE"
);
}
);
width = 518;
}
);
unicode = 00F2;
},
